<svg width="296" height="296" viewBox="0 0 296 296" fill="none" xmlns="http://www.w3.org/2000/svg">
<g filter="url(#filter0_d)">
<circle cx="154" cy="148" r="64" fill="white"/>
</g>
<path d="M124.3 144.2H125C125.3 144.2 125.6 143.9 125.6 143.6V142.7C125.6 141.9 126.2 141.3 127 141.3H131.3C131.6 141.3 131.8 141.1 131.9 140.8L132 140.6C132.5 138.7 133.3 136.8 134.3 135.1L134.4 134.9C134.5 134.7 134.5 134.3 134.3 134.1L131.3 131.1C130.8 130.6 130.8 129.7 131.3 129.2L135.9 124.6C136.4 124.1 137.3 124.1 137.8 124.6L140.8 127.6C141 127.8 141.3 127.8 141.6 127.7L141.8 127.6C143.5 126.6 145.4 125.8 147.3 125.3L147.5 125.2C147.8 125.1 148 124.8 148 124.5V120.3C148 119.5 148.6 118.9 149.4 118.9H155.9C156.7 118.9 157.3 119.5 157.3 120.3V124.6C157.3 124.9 157.5 125.1 157.8 125.2H158C159.9 125.7 161.8 126.5 163.5 127.5L163.7 127.6C163.9 127.7 164.3 127.7 164.5 127.5L167.5 124.5C167.8 124.2 168.1 124.1 168.5 124.1C168.9 124.1 169.2 124.2 169.5 124.5L174.1 129.1C174.6 129.6 174.6 130.5 174.1 131L171.1 134C170.9 134.2 170.9 134.5 171 134.8L171.1 135C172.1 136.7 172.9 138.6 173.4 140.5L173.5 140.7C173.6 141 173.8 141.2 174.1 141.2H178.4C179.2 141.2 179.8 141.8 179.8 142.6V143.5C179.8 143.8 180.1 144.1 180.4 144.1H181.1C181.4 144.1 181.7 143.8 181.7 143.5V140C181.7 139.7 181.4 139.4 181.1 139.4H176C175.4 139.4 174.9 139 174.7 138.4C174.4 137.4 174 136.5 173.5 135.6C173.2 135.1 173.3 134.4 173.8 134L177.3 130.5C177.5 130.3 177.5 129.9 177.3 129.6L168.9 121.2C168.6 121 168.2 121 168 121.3L164.5 124.8C164.1 125.2 163.4 125.3 162.9 125.1C162 124.7 161.1 124.3 160.1 123.9C159.5 123.7 159.1 123.2 159.1 122.6V117.6C159.1 117.3 158.8 117 158.5 117H146.7C146.4 117 146.1 117.3 146.1 117.6V122.5C146.1 123.1 145.7 123.6 145.1 123.8C144.1 124.1 143.2 124.5 142.3 125C141.8 125.3 141.1 125.2 140.7 124.7L137.2 121.2C137 121 136.6 121 136.3 121.3L127.9 129.7C127.7 129.9 127.7 130.3 127.9 130.6L131.4 134.1C131.8 134.5 131.9 135.2 131.7 135.7C131.3 136.6 130.9 137.5 130.5 138.5C130.3 139.1 129.8 139.5 129.2 139.5H124.3C124 139.5 123.7 139.8 123.7 140.1V143.7C123.7 144 123.9 144.2 124.3 144.2Z" fill="#008440"/>
<path d="M122 148.3H146C146.5 148.3 146.9 147.9 146.9 147.4C146.9 146.9 146.5 146.5 146 146.5H122C121.5 146.5 121.1 146.9 121.1 147.4C121.1 147.9 121.4 148.3 122 148.3Z" fill="#008440"/>
<path d="M158.4 147.3C158.4 147.8 158.8 148.2 159.3 148.2H183.3C183.8 148.2 184.2 147.8 184.2 147.3C184.2 146.8 183.8 146.4 183.3 146.4H159.3C158.8 146.4 158.4 146.8 158.4 147.3Z" fill="#008440"/>
<path d="M155.1 151.3C154.2 150.8 153.2 150.6 152.2 150.7C151.1 150.8 150 151.3 149.1 152.1C148.3 152.9 147.8 154 147.7 155.2C147.6 156.2 147.8 157.2 148.3 158.1C148.8 159 149.6 159.7 150.5 160.1C151.4 160.5 152.5 160.7 153.5 160.5C154.5 160.3 155.4 159.8 156.1 159.1C156.8 158.4 157.3 157.5 157.5 156.4C157.7 155.4 157.5 154.4 157.1 153.4C156.7 152.4 156 151.8 155.1 151.3ZM155.2 157.2C154.9 157.7 154.4 158.2 153.9 158.4C153.5 158.6 153.1 158.7 152.6 158.7C152.4 158.7 152.2 158.7 152.1 158.7C151.5 158.6 150.9 158.3 150.5 157.9C150.1 157.5 149.8 156.9 149.7 156.3C149.6 155.7 149.7 155.1 149.9 154.5C150.2 153.9 150.6 153.5 151.1 153.1C151.6 152.8 152.3 152.6 152.9 152.7C153.6 152.8 154.3 153.1 154.8 153.6C155.3 154.1 155.6 154.8 155.7 155.5C155.7 156 155.5 156.6 155.2 157.2Z" fill="#008440"/>
<path d="M176.1 168.8C175.3 168 174.2 167.5 173.1 167.4C172.9 167.4 172.8 167.4 172.6 167.4C171.7 167.4 170.9 167.6 170.1 168.1C169.2 168.6 168.5 169.4 168.1 170.3C167.7 171.2 167.5 172.3 167.7 173.3C167.9 174.3 168.4 175.2 169.1 176C169.8 176.8 170.7 177.2 171.7 177.4C172.7 177.6 173.7 177.4 174.7 177C175.6 176.6 176.4 175.9 176.9 175C177.4 174.1 177.6 173.1 177.5 172.1C177.4 170.7 176.9 169.6 176.1 168.8ZM175.6 172.5C175.5 173.2 175.2 173.9 174.7 174.4C174.2 174.9 173.5 175.2 172.8 175.3C172.7 175.3 172.6 175.3 172.6 175.3C172.1 175.3 171.5 175.2 171.1 174.9C170.6 174.6 170.1 174.1 169.9 173.5C169.6 172.9 169.6 172.3 169.7 171.7C169.8 171.1 170.1 170.5 170.5 170.1C170.9 169.7 171.5 169.4 172.1 169.3C172.7 169.2 173.3 169.3 173.9 169.5C174.5 169.8 174.9 170.2 175.2 170.7C175.5 171.3 175.7 171.9 175.6 172.5Z" fill="#008440"/>
<path d="M135.1 159.7C134.2 159.2 133.2 159 132.2 159.1C131 159.2 130 159.7 129.2 160.5C128.4 161.3 127.9 162.4 127.8 163.6C127.7 164.6 127.9 165.6 128.4 166.5C128.9 167.4 129.7 168.1 130.6 168.5C131.5 168.9 132.6 169.1 133.6 168.9C134.6 168.7 135.5 168.2 136.2 167.5C136.9 166.8 137.4 165.9 137.6 164.8C137.8 163.7 137.6 162.8 137.2 161.8C136.8 160.8 136 160.2 135.1 159.7ZM135.2 165.5C134.9 166 134.4 166.5 133.9 166.7C133.5 166.9 133.1 167 132.6 167C132.4 167 132.2 167 132.1 167C131.5 166.9 130.9 166.6 130.5 166.2C130.1 165.8 129.8 165.2 129.7 164.6C129.6 164 129.7 163.4 129.9 162.8C130.2 162.2 130.6 161.8 131.1 161.4C131.6 161.1 132.3 160.9 132.9 161C133.6 161.1 134.3 161.4 134.8 161.9C135.3 162.4 135.6 163.1 135.7 163.8C135.7 164.3 135.6 164.9 135.2 165.5Z" fill="#008440"/>
<path d="M183.2 154.7H160.6C160.1 154.7 159.6 155.1 159.6 155.7C159.6 156.3 160 156.7 160.6 156.7H183.2C183.7 156.7 184.2 156.3 184.2 155.7C184.2 155.1 183.8 154.7 183.2 154.7Z" fill="#008440"/>
<path d="M122 156.6H144.7C145.2 156.6 145.7 156.2 145.7 155.6C145.7 155 145.3 154.6 144.7 154.6H122C121.5 154.6 121 155 121 155.6C121 156.2 121.4 156.6 122 156.6Z" fill="#008440"/>
<path d="M183.2 171.3H180.5C180 171.3 179.5 171.7 179.5 172.3C179.5 172.9 179.9 173.3 180.5 173.3H183.2C183.7 173.3 184.2 172.9 184.2 172.3C184.2 171.7 183.8 171.3 183.2 171.3Z" fill="#008440"/>
<path d="M164.6 171.3H122C121.5 171.3 121 171.7 121 172.3C121 172.9 121.4 173.3 122 173.3H164.6C165.1 173.3 165.6 172.9 165.6 172.3C165.6 171.7 165.1 171.3 164.6 171.3Z" fill="#008440"/>
<path d="M122 164.9H124.7C125.2 164.9 125.7 164.5 125.7 163.9C125.7 163.3 125.3 162.9 124.7 162.9H122C121.5 162.9 121 163.3 121 163.9C121 164.5 121.4 164.9 122 164.9Z" fill="#008440"/>
<path d="M183.2 163H140.6C140.1 163 139.6 163.4 139.6 164C139.6 164.6 140 165 140.6 165H183.2C183.7 165 184.2 164.6 184.2 164C184.2 163.4 183.8 163 183.2 163Z" fill="#008440"/>
<path d="M162.2 143.2C162.3 143.8 162.7 144.2 163.3 144.2C163.6 144.2 163.8 144.1 164 143.9C164.2 143.7 164.2 143.5 164.2 143.3C163.9 140.7 162.7 138.2 160.9 136.4C158.7 134.2 155.8 133 152.7 133C149.6 133 146.7 134.2 144.5 136.4C142.6 138.3 141.5 140.7 141.2 143.3C141.2 143.5 141.2 143.7 141.4 143.9C141.6 144.1 141.8 144.2 142.1 144.2C142.6 144.2 143.1 143.8 143.2 143.2C143.5 141.1 144.5 139.2 145.9 137.7C147.7 135.9 150.2 134.9 152.8 134.9C155.4 134.9 157.8 135.9 159.7 137.7C160.9 139.2 161.9 141.2 162.2 143.2Z" fill="#008440"/>
<defs>
<filter id="filter0_d" x="0" y="0" width="296" height="296" filterUnits="userSpaceOnUse" color-interpolation-filters="sRGB">
<feFlood flood-opacity="0" result="BackgroundImageFix"/>
<feColorMatrix in="SourceAlpha" type="matrix" values="0 0 0 0 0 0 0 0 0 0 0 0 0 0 0 0 0 0 127 0"/>
<feMorphology radius="38" operator="dilate" in="SourceAlpha" result="effect1_dropShadow"/>
<feOffset dx="-6"/>
<feGaussianBlur stdDeviation="23"/>
<feColorMatrix type="matrix" values="0 0 0 0 0.64375 0 0 0 0 0.75 0 0 0 0 0.695265 0 0 0 0.14 0"/>
<feBlend mode="normal" in2="BackgroundImageFix" result="effect1_dropShadow"/>
<feBlend mode="normal" in="SourceGraphic" in2="effect1_dropShadow" result="shape"/>
</filter>
</defs>
</svg>
