<svg width="296" height="296" viewBox="0 0 296 296" fill="none" xmlns="http://www.w3.org/2000/svg">
<g filter="url(#filter0_d)">
<circle cx="154" cy="148" r="64" fill="white"/>
</g>
<path d="M163.281 178C163.281 180.209 161.49 182 159.281 182H148.719C146.51 182 144.719 180.209 144.719 178V177.742C144.719 175.533 146.51 173.742 148.719 173.742H159.281C161.49 173.742 163.281 175.533 163.281 177.742V178ZM146.781 177.871C146.781 179.011 147.706 179.935 148.846 179.935H159.154C160.294 179.935 161.219 179.011 161.219 177.871V177.871C161.219 176.731 160.294 175.806 159.154 175.806H148.846C147.706 175.806 146.781 176.731 146.781 177.871V177.871Z" fill="#008440"/>
<path d="M155.031 173.743V169.612C155.031 169.042 154.57 168.581 154 168.581C153.43 168.581 152.969 169.042 152.969 169.612V173.743C152.969 174.312 153.43 174.774 154 174.774C154.57 174.774 155.031 174.312 155.031 173.743Z" fill="#008440"/>
<path d="M144.718 176.839H122.032C121.462 176.839 121 177.301 121 177.871C121 178.441 121.462 178.903 122.032 178.903H144.718C145.288 178.903 145.75 178.441 145.75 177.871C145.75 177.301 145.288 176.839 144.718 176.839Z" fill="#008440"/>
<path d="M185.968 176.839H163.282C162.712 176.839 162.25 177.301 162.25 177.871C162.25 178.441 162.712 178.903 163.282 178.903H185.968C186.538 178.903 187 178.441 187 177.871C187 177.301 186.538 176.839 185.968 176.839Z" fill="#008440"/>
<path d="M177.719 162.613C177.719 166.479 174.585 169.613 170.719 169.613H137.281C133.415 169.613 130.281 166.479 130.281 162.613V125C130.281 121.134 133.415 118 137.281 118H170.719C174.585 118 177.719 121.134 177.719 125V162.613ZM132.344 161.548C132.344 164.862 135.03 167.548 138.344 167.548H169.656C172.97 167.548 175.656 164.862 175.656 161.548V126.065C175.656 122.751 172.97 120.065 169.656 120.065H138.344C135.03 120.065 132.344 122.751 132.344 126.065V161.548Z" fill="#008440"/>
<path d="M175.655 134.516H132.345C131.775 134.516 131.312 134.978 131.312 135.548C131.312 136.118 131.775 136.581 132.345 136.581H175.655C176.225 136.581 176.688 136.118 176.688 135.548C176.688 134.978 176.225 134.516 175.655 134.516Z" fill="#008440"/>
<path d="M175.655 151.032H132.345C131.775 151.032 131.312 151.494 131.312 152.065C131.312 152.635 131.775 153.097 132.345 153.097H175.655C176.225 153.097 176.688 152.635 176.688 152.065C176.688 151.494 176.225 151.032 175.655 151.032Z" fill="#008440"/>
<path d="M147.812 127.29C147.812 129.001 146.426 130.387 144.716 130.387H138.534C136.824 130.387 135.438 129.001 135.438 127.29V127.29C135.438 125.58 136.824 124.194 138.534 124.194H144.716C146.426 124.194 147.812 125.58 147.812 127.29V127.29ZM137.5 127.29C137.5 127.86 137.962 128.323 138.532 128.323H144.718C145.288 128.323 145.75 127.86 145.75 127.29V127.29C145.75 126.72 145.288 126.258 144.718 126.258H138.532C137.962 126.258 137.5 126.72 137.5 127.29V127.29Z" fill="#008440"/>
<path d="M168.438 131.419C167.622 131.419 166.824 131.177 166.146 130.723C165.467 130.27 164.939 129.625 164.626 128.87C164.314 128.116 164.233 127.286 164.392 126.485C164.551 125.684 164.944 124.948 165.521 124.371C166.098 123.793 166.833 123.4 167.633 123.241C168.433 123.081 169.262 123.163 170.016 123.476C170.77 123.788 171.414 124.317 171.867 124.996C172.321 125.675 172.562 126.474 172.562 127.29C172.562 128.385 172.128 129.436 171.354 130.21C170.581 130.984 169.532 131.419 168.438 131.419ZM168.438 125.226C168.03 125.226 167.631 125.347 167.292 125.574C166.952 125.801 166.688 126.123 166.532 126.5C166.376 126.878 166.335 127.293 166.415 127.693C166.494 128.094 166.691 128.461 166.979 128.75C167.268 129.039 167.635 129.236 168.035 129.315C168.435 129.395 168.85 129.354 169.227 129.198C169.604 129.041 169.926 128.777 170.152 128.437C170.379 128.098 170.5 127.699 170.5 127.29C170.5 126.743 170.283 126.218 169.896 125.83C169.509 125.443 168.985 125.226 168.438 125.226Z" fill="#008440"/>
<path d="M159.156 127.29C159.156 127.86 159.618 128.323 160.188 128.323C160.757 128.323 161.219 127.86 161.219 127.29C161.219 126.721 160.757 126.258 160.188 126.258C159.618 126.258 159.156 126.721 159.156 127.29Z" fill="#008440"/>
<path d="M155.031 127.29C155.031 127.86 155.493 128.323 156.062 128.323C156.632 128.323 157.094 127.86 157.094 127.29C157.094 126.721 156.632 126.258 156.062 126.258C155.493 126.258 155.031 126.721 155.031 127.29Z" fill="#008440"/>
<path d="M150.906 127.29C150.906 127.86 151.368 128.323 151.938 128.323C152.507 128.323 152.969 127.86 152.969 127.29C152.969 126.721 152.507 126.258 151.938 126.258C151.368 126.258 150.906 126.721 150.906 127.29Z" fill="#008440"/>
<path d="M147.812 143.806C147.812 145.517 146.426 146.903 144.716 146.903H138.534C136.824 146.903 135.438 145.517 135.438 143.806V143.806C135.438 142.096 136.824 140.71 138.534 140.71H144.716C146.426 140.71 147.812 142.096 147.812 143.806V143.806ZM137.5 143.806C137.5 144.377 137.962 144.839 138.532 144.839H144.718C145.288 144.839 145.75 144.377 145.75 143.806V143.806C145.75 143.236 145.288 142.774 144.718 142.774H138.532C137.962 142.774 137.5 143.236 137.5 143.806V143.806Z" fill="#008440"/>
<path d="M168.438 147.935C167.622 147.935 166.824 147.693 166.146 147.24C165.467 146.786 164.939 146.141 164.626 145.387C164.314 144.632 164.233 143.802 164.392 143.001C164.551 142.2 164.944 141.464 165.521 140.887C166.098 140.309 166.833 139.916 167.633 139.757C168.433 139.597 169.262 139.679 170.016 139.992C170.77 140.304 171.414 140.833 171.867 141.512C172.321 142.192 172.562 142.99 172.562 143.806C172.562 144.902 172.128 145.952 171.354 146.726C170.581 147.5 169.532 147.935 168.438 147.935ZM168.438 141.742C168.03 141.742 167.631 141.863 167.292 142.09C166.952 142.317 166.688 142.639 166.532 143.016C166.376 143.394 166.335 143.809 166.415 144.209C166.494 144.61 166.691 144.978 166.979 145.266C167.268 145.555 167.635 145.752 168.035 145.831C168.435 145.911 168.85 145.87 169.227 145.714C169.604 145.558 169.926 145.293 170.152 144.953C170.379 144.614 170.5 144.215 170.5 143.806C170.5 143.259 170.283 142.734 169.896 142.347C169.509 141.959 168.985 141.742 168.438 141.742Z" fill="#008440"/>
<path d="M159.156 143.806C159.156 144.376 159.618 144.839 160.188 144.839C160.757 144.839 161.219 144.376 161.219 143.806C161.219 143.237 160.757 142.774 160.188 142.774C159.618 142.774 159.156 143.237 159.156 143.806Z" fill="#008440"/>
<path d="M155.031 143.806C155.031 144.376 155.493 144.839 156.062 144.839C156.632 144.839 157.094 144.376 157.094 143.806C157.094 143.237 156.632 142.774 156.062 142.774C155.493 142.774 155.031 143.237 155.031 143.806Z" fill="#008440"/>
<path d="M150.906 143.806C150.906 144.376 151.368 144.839 151.938 144.839C152.507 144.839 152.969 144.376 152.969 143.806C152.969 143.237 152.507 142.774 151.938 142.774C151.368 142.774 150.906 143.237 150.906 143.806Z" fill="#008440"/>
<path d="M147.812 160.323C147.812 162.033 146.426 163.419 144.716 163.419H138.534C136.824 163.419 135.438 162.033 135.438 160.323V160.323C135.438 158.612 136.824 157.226 138.534 157.226H144.716C146.426 157.226 147.812 158.612 147.812 160.323V160.323ZM137.5 160.323C137.5 160.893 137.962 161.355 138.532 161.355H144.718C145.288 161.355 145.75 160.893 145.75 160.323V160.323C145.75 159.752 145.288 159.29 144.718 159.29H138.532C137.962 159.29 137.5 159.752 137.5 160.323V160.323Z" fill="#008440"/>
<path d="M168.438 164.452C167.622 164.452 166.824 164.209 166.146 163.756C165.467 163.302 164.939 162.657 164.626 161.903C164.314 161.148 164.233 160.318 164.392 159.517C164.551 158.716 164.944 157.98 165.521 157.403C166.098 156.825 166.833 156.432 167.633 156.273C168.433 156.114 169.262 156.195 170.016 156.508C170.77 156.82 171.414 157.35 171.867 158.029C172.321 158.708 172.562 159.506 172.562 160.323C172.562 161.418 172.128 162.468 171.354 163.242C170.581 164.017 169.532 164.452 168.438 164.452ZM168.438 158.258C168.03 158.258 167.631 158.379 167.292 158.606C166.952 158.833 166.688 159.155 166.532 159.533C166.376 159.91 166.335 160.325 166.415 160.725C166.494 161.126 166.691 161.494 166.979 161.782C167.268 162.071 167.635 162.268 168.035 162.347C168.435 162.427 168.85 162.386 169.227 162.23C169.604 162.074 169.926 161.809 170.152 161.47C170.379 161.13 170.5 160.731 170.5 160.323C170.5 159.775 170.283 159.25 169.896 158.863C169.509 158.476 168.985 158.258 168.438 158.258Z" fill="#008440"/>
<path d="M159.156 160.323C159.156 160.892 159.618 161.355 160.188 161.355C160.757 161.355 161.219 160.892 161.219 160.323C161.219 159.753 160.757 159.29 160.188 159.29C159.618 159.29 159.156 159.753 159.156 160.323Z" fill="#008440"/>
<path d="M155.031 160.323C155.031 160.892 155.493 161.355 156.062 161.355C156.632 161.355 157.094 160.892 157.094 160.323C157.094 159.753 156.632 159.29 156.062 159.29C155.493 159.29 155.031 159.753 155.031 160.323Z" fill="#008440"/>
<path d="M150.906 160.323C150.906 160.892 151.368 161.355 151.938 161.355C152.507 161.355 152.969 160.892 152.969 160.323C152.969 159.753 152.507 159.29 151.938 159.29C151.368 159.29 150.906 159.753 150.906 160.323Z" fill="#008440"/>
<defs>
<filter id="filter0_d" x="0" y="0" width="296" height="296" filterUnits="userSpaceOnUse" color-interpolation-filters="sRGB">
<feFlood flood-opacity="0" result="BackgroundImageFix"/>
<feColorMatrix in="SourceAlpha" type="matrix" values="0 0 0 0 0 0 0 0 0 0 0 0 0 0 0 0 0 0 127 0"/>
<feMorphology radius="38" operator="dilate" in="SourceAlpha" result="effect1_dropShadow"/>
<feOffset dx="-6"/>
<feGaussianBlur stdDeviation="23"/>
<feColorMatrix type="matrix" values="0 0 0 0 0.64375 0 0 0 0 0.75 0 0 0 0 0.695265 0 0 0 0.14 0"/>
<feBlend mode="normal" in2="BackgroundImageFix" result="effect1_dropShadow"/>
<feBlend mode="normal" in="SourceGraphic" in2="effect1_dropShadow" result="shape"/>
</filter>
</defs>
</svg>
