<svg width="296" height="296" viewBox="0 0 296 296" fill="none" xmlns="http://www.w3.org/2000/svg">
<g filter="url(#filter0_d)">
<circle cx="154" cy="148" r="64" fill="white"/>
</g>
<g clip-path="url(#clip0)">
<path d="M158.96 170.982C158.96 171.534 158.512 171.982 157.96 171.982H150.054C149.501 171.982 149.054 171.534 149.054 170.982V168.089C149.054 167.634 148.746 167.239 148.311 167.107C147.035 166.719 145.802 166.201 144.63 165.561C144.226 165.34 143.721 165.401 143.397 165.729L141.408 167.74C141.018 168.134 140.381 168.136 139.989 167.742L134.394 162.123C134.006 161.733 134.006 161.103 134.393 160.713L136.405 158.687C136.725 158.364 136.785 157.867 136.57 157.467C135.932 156.28 135.418 155.03 135.035 153.737C134.905 153.298 134.508 152.987 134.051 152.987H131.246C130.693 152.987 130.246 152.539 130.246 151.987V143.99C130.246 143.437 130.693 142.99 131.246 142.99H134.091C134.548 142.99 134.945 142.678 135.075 142.24C135.457 140.948 135.972 139.7 136.609 138.516C136.825 138.116 136.765 137.619 136.445 137.296L134.428 135.26C134.043 134.871 134.042 134.245 134.426 133.855L139.989 128.208C140.38 127.811 141.02 127.81 141.412 128.206L143.406 130.218C143.729 130.544 144.231 130.606 144.635 130.388C145.804 129.756 147.033 129.246 148.305 128.867C148.743 128.736 149.054 128.34 149.054 127.883V124.995C149.054 124.442 149.502 123.995 150.054 123.995H157.96C158.512 123.995 158.96 124.442 158.96 124.995V127.887C158.96 128.342 159.268 128.738 159.703 128.87C160.977 129.257 162.208 129.773 163.378 130.411C163.782 130.631 164.286 130.57 164.609 130.243L166.605 128.229C166.995 127.835 167.633 127.834 168.024 128.228L173.62 133.855C174.008 134.244 174.009 134.873 173.622 135.264L171.606 137.298C171.287 137.62 171.226 138.115 171.44 138.515C172.073 139.7 172.584 140.948 172.966 142.239C173.095 142.678 173.492 142.99 173.95 142.99H176.794C177.347 142.99 177.794 143.437 177.794 143.99V151.987C177.794 152.539 177.347 152.987 176.794 152.987H173.948C173.491 152.987 173.095 153.298 172.965 153.736C172.58 155.029 172.065 156.28 171.428 157.468C171.214 157.868 171.274 158.363 171.593 158.686L173.61 160.721C173.996 161.111 173.996 161.739 173.611 162.129L168.024 167.772C167.633 168.167 166.994 168.167 166.603 167.772L164.611 165.762C164.286 165.434 163.781 165.373 163.377 165.595C162.208 166.235 160.977 166.753 159.703 167.14C159.268 167.272 158.96 167.667 158.96 168.122V170.982ZM151.032 168.986C151.034 169.537 151.481 169.983 152.032 169.983H155.979C156.531 169.983 156.979 169.535 156.979 168.983V166.54C156.979 166.076 157.303 165.674 157.758 165.577C159.873 165.126 161.888 164.286 163.701 163.098C164.085 162.842 164.596 162.894 164.92 163.222L166.624 164.946C167.015 165.341 167.653 165.342 168.045 164.947L170.84 162.13C171.228 161.74 171.227 161.11 170.839 160.72L169.11 158.983C168.783 158.654 168.73 158.141 168.985 157.752C170.157 155.934 170.99 153.915 171.441 151.794C171.537 151.332 171.945 151.001 172.416 151.001H174.813C175.365 151.001 175.813 150.553 175.813 150.001V146.002C175.813 145.45 175.365 145.002 174.813 145.002H172.403C171.935 145.002 171.531 144.674 171.435 144.216C170.988 142.081 170.155 140.047 168.978 138.217C168.724 137.829 168.776 137.315 169.103 136.986L170.821 135.256C171.208 134.866 171.208 134.237 170.821 133.847L168.026 131.03C167.634 130.635 166.995 130.636 166.604 131.032L164.899 132.761C164.576 133.088 164.065 133.141 163.682 132.886C161.867 131.7 159.853 130.859 157.738 130.406C157.284 130.309 156.959 129.907 156.959 129.443V126.994C156.959 126.442 156.511 125.994 155.959 125.994H152.015C151.463 125.994 151.015 126.442 151.015 126.994V129.43C151.015 129.898 150.687 130.302 150.229 130.4C148.128 130.855 146.127 131.696 144.325 132.879C143.942 133.134 143.431 133.083 143.106 132.755L141.403 131.036C141.012 130.641 140.374 130.641 139.983 131.035L137.189 133.851C136.801 134.242 136.802 134.873 137.192 135.263L138.928 136.995C139.256 137.323 139.309 137.836 139.055 138.224C137.878 140.054 137.045 142.088 136.599 144.223C136.503 144.681 136.098 145.009 135.63 145.009H133.227C132.675 145.009 132.227 145.457 132.227 146.009V150.007C132.227 150.56 132.675 151.007 133.227 151.007H135.617C136.089 151.007 136.496 151.339 136.592 151.801C137.044 153.921 137.876 155.941 139.049 157.759C139.303 158.148 139.251 158.661 138.924 158.991L137.205 160.721C136.818 161.111 136.818 161.739 137.204 162.129L139.999 164.949C140.391 165.346 141.033 165.344 141.423 164.945L143.116 163.218C143.438 162.889 143.949 162.836 144.332 163.091C146.133 164.274 148.134 165.115 150.236 165.57C150.694 165.668 151.023 166.072 151.024 166.54L151.032 168.986Z" fill="#008440"/>
<path d="M154.02 160.985C151.472 160.987 148.981 160.227 146.862 158.801C144.742 157.374 143.09 155.346 142.113 152.971C141.136 150.596 140.879 147.983 141.375 145.461C141.87 142.939 143.096 140.622 144.896 138.803C146.696 136.984 148.991 135.745 151.489 135.242C153.988 134.74 156.578 134.996 158.932 135.98C161.286 136.963 163.298 138.629 164.713 140.766C166.129 142.904 166.884 145.417 166.884 147.988C166.879 151.431 165.522 154.732 163.111 157.168C160.7 159.603 157.431 160.976 154.02 160.985ZM154.02 136.991C151.864 136.988 149.756 137.631 147.962 138.838C146.169 140.045 144.77 141.761 143.943 143.771C143.117 145.78 142.899 147.991 143.318 150.125C143.737 152.26 144.774 154.22 146.297 155.76C147.82 157.299 149.762 158.348 151.876 158.773C153.99 159.198 156.182 158.981 158.173 158.149C160.165 157.318 161.868 155.908 163.066 154.099C164.264 152.29 164.903 150.164 164.903 147.988C164.9 145.075 163.752 142.282 161.712 140.221C159.673 138.159 156.906 136.998 154.02 136.991Z" fill="#008440"/>
<path d="M185.651 146.998C185.668 147.545 185.223 147.988 184.676 147.988C184.129 147.988 183.687 147.544 183.67 146.997C183.45 140.067 180.858 133.416 176.317 128.187C171.56 122.709 164.989 119.165 157.833 118.217C150.676 117.269 143.423 118.983 137.426 123.037C131.43 127.092 127.1 133.21 125.246 140.25L123.338 139.73C125.32 132.226 129.94 125.706 136.335 121.386C142.729 117.066 150.463 115.241 158.093 116.252C165.723 117.263 172.728 121.04 177.801 126.88C182.659 132.471 185.428 139.586 185.651 146.998Z" fill="#008440"/>
<path d="M153.967 179.98C145.562 179.971 137.505 176.598 131.562 170.6C125.851 164.836 122.541 157.101 122.284 148.979C122.267 148.432 122.711 147.988 123.258 147.988C123.805 147.988 124.247 148.432 124.264 148.979C124.483 155.909 127.076 162.56 131.617 167.789C136.374 173.268 142.944 176.812 150.101 177.759C157.257 178.707 164.511 176.994 170.508 172.939C176.23 169.07 180.434 163.321 182.418 156.686C182.575 156.16 183.119 155.844 183.649 155.988C184.173 156.131 184.485 156.67 184.33 157.191C182.42 163.61 178.557 169.271 173.276 173.363C167.737 177.655 160.95 179.981 153.967 179.98Z" fill="#008440"/>
<path d="M186.101 161.324C185.596 161.545 185.008 161.311 184.792 160.804L183.755 158.371C183.538 157.861 182.947 157.625 182.438 157.845L180.045 158.879C179.536 159.099 178.945 158.863 178.729 158.352C178.515 157.847 178.749 157.263 179.253 157.046L183.481 155.219C183.99 154.999 184.581 155.235 184.798 155.746L186.616 160.028C186.829 160.529 186.599 161.107 186.101 161.324Z" fill="#008440"/>
<path d="M124.383 140.913C123.869 141.121 123.284 140.87 123.079 140.354L121.364 136.03C121.163 135.522 121.41 134.947 121.917 134.743C122.427 134.538 123.007 134.788 123.21 135.299L124.182 137.754C124.386 138.27 124.972 138.521 125.487 138.312L127.9 137.335C128.414 137.127 128.999 137.377 129.204 137.893C129.408 138.404 129.16 138.984 128.65 139.19L124.383 140.913Z" fill="#008440"/>
<path d="M153.016 147.988C153.016 148.535 153.459 148.988 154.007 148.988C154.554 148.988 154.997 148.535 154.997 147.988C154.997 147.441 154.554 146.989 154.007 146.989C153.459 146.989 153.016 147.441 153.016 147.988Z" fill="#008440"/>
<path d="M149.054 147.988C149.054 148.535 149.497 148.988 150.044 148.988C150.591 148.988 151.035 148.535 151.035 147.988C151.035 147.441 150.591 146.989 150.044 146.989C149.497 146.989 149.054 147.441 149.054 147.988Z" fill="#008440"/>
<path d="M156.978 147.988C156.978 148.535 157.422 148.988 157.969 148.988C158.516 148.988 158.96 148.535 158.96 147.988C158.96 147.441 158.516 146.989 157.969 146.989C157.422 146.989 156.978 147.441 156.978 147.988Z" fill="#008440"/>
</g>
<defs>
<filter id="filter0_d" x="0" y="0" width="296" height="296" filterUnits="userSpaceOnUse" color-interpolation-filters="sRGB">
<feFlood flood-opacity="0" result="BackgroundImageFix"/>
<feColorMatrix in="SourceAlpha" type="matrix" values="0 0 0 0 0 0 0 0 0 0 0 0 0 0 0 0 0 0 127 0"/>
<feMorphology radius="38" operator="dilate" in="SourceAlpha" result="effect1_dropShadow"/>
<feOffset dx="-6"/>
<feGaussianBlur stdDeviation="23"/>
<feColorMatrix type="matrix" values="0 0 0 0 0.64375 0 0 0 0 0.75 0 0 0 0 0.695265 0 0 0 0.14 0"/>
<feBlend mode="normal" in2="BackgroundImageFix" result="effect1_dropShadow"/>
<feBlend mode="normal" in="SourceGraphic" in2="effect1_dropShadow" result="shape"/>
</filter>
<clipPath id="clip0">
<rect width="67" height="64" fill="white" transform="translate(121 116)"/>
</clipPath>
</defs>
</svg>
