<svg width="1119" height="260" fill="none" xmlns="http://www.w3.org/2000/svg"><g clip-path="url(#clip0)"><path d="M0 40C0 17.909 17.909 0 40 0h1039c22.09 0 40 17.909 40 40v180c0 22.091-17.91 40-40 40H0V40z" fill="#CCE6D9"/><path d="M142.949 384.221c21.603-34.893 3.217-93.588-41.138-131.456l-9.652-7.573c-24.882-18.015-45.611-42.964-60.357-72.645-14.745-29.68-23.053-63.178-24.189-97.533C6.478 40.658 12.55 6.502 25.29-24.437c12.741-30.94 31.76-57.709 55.378-77.944 11.313-9.725 23.582-17.808 36.541-24.074-20.561 9.642-40.017 22.273-57.915 37.598C5.586-42.965-31.865 24.616-45.899 100.964c-14.034 76.348-3.665 156.104 29.123 224.021a165.512 165.512 0 009.882 19.204 6.677 6.677 0 010 1.623h1.15c8.56 12.709 18.62 23.912 29.876 33.27 44.125 37.597 97.444 40.031 118.817 5.139z" fill="#fff" fill-opacity=".4"/><path d="M203.092 274.834c35.582-57.538 5.3-154.326-67.756-216.77l-15.898-12.49c-40.982-29.706-75.124-70.847-99.41-119.79C-4.26-123.16-17.943-178.397-19.814-235.05c-1.87-56.653 8.128-112.977 29.114-163.995 20.985-51.019 52.311-95.163 91.211-128.531 18.634-16.036 38.842-29.364 60.185-39.697-33.865 15.9-65.91 36.727-95.389 61.999-88.46 75.677-150.144 187.118-173.259 313.016-23.115 125.898-6.037 257.417 47.967 369.412a273.013 273.013 0 0016.276 31.668 11.02 11.02 0 010 2.676h1.893c14.1 20.958 30.67 39.432 49.209 54.862 72.677 61.998 160.495 66.012 195.698 8.474z" fill="#fff" fill-opacity=".3"/><path d="M1167.1 249.218c18.85-30.271 2.81-81.192-35.89-114.044l-8.42-6.571c-21.72-15.628-39.8-37.273-52.67-63.022-12.86-25.75-20.11-54.81-21.1-84.615-1-29.806 4.3-59.438 15.42-86.279 11.12-26.841 27.71-50.065 48.32-67.62 9.87-8.437 20.58-15.449 31.88-20.885-17.94 8.365-34.91 19.322-50.53 32.617-46.86 39.815-79.54 98.444-91.79 164.68-12.242 66.235-3.195 135.428 25.41 194.349a144.183 144.183 0 008.63 16.661c.05.467.05.941 0 1.408h1c7.47 11.025 16.25 20.745 26.07 28.863 38.5 32.617 85.02 34.729 103.67 4.458z" fill="#fff" fill-opacity=".5"/><path d="M1176.1 122.709c18.85-30.348 2.81-81.399-35.89-114.334l-8.42-6.588c-21.72-15.668-39.8-37.368-52.67-63.182-12.86-25.815-20.11-54.95-21.1-84.831-1-29.881 4.3-59.589 15.42-86.498 11.12-26.91 27.71-50.193 48.32-67.793 9.87-8.458 20.58-15.488 31.88-20.938-17.94 8.386-34.91 19.372-50.53 32.701-46.86 39.915-79.54 98.694-91.79 165.098-12.242 66.404-3.19 135.773 25.41 194.844 2.54 5.8 5.42 11.382 8.63 16.703.05.468.05.944 0 1.412h1c7.47 11.054 16.25 20.798 26.07 28.936 38.5 32.701 85.02 34.818 103.67 4.47z" fill="#fff" fill-opacity=".6"/><path d="M942.082 68.468c52.314-84.222 7.792-225.898-99.618-317.302l-23.374-18.281c-60.253-43.482-110.45-103.704-146.157-175.345-35.707-71.642-55.824-152.497-58.575-235.423-2.75-82.927 11.951-165.371 42.804-240.051 30.854-74.679 76.911-139.296 134.102-188.136 27.397-23.48 57.107-42.98 88.487-58.11-49.79 23.27-96.904 53.76-140.244 90.75-130.057 110.775-220.749 273.9-254.733 458.184-33.984 184.285-8.876 376.799 70.523 540.732 7.03 16.098 15.027 31.589 23.931 46.355a16.145 16.145 0 010 3.917h2.782c20.73 30.677 45.093 57.72 72.349 80.305 106.853 90.751 235.967 96.627 287.723 12.405z" fill="#fff" fill-opacity=".3"/></g><defs><clipPath id="clip0"><path d="M0 40C0 17.909 17.909 0 40 0h1039c22.09 0 40 17.909 40 40v180c0 22.091-17.91 40-40 40H0V40z" fill="#fff"/></clipPath></defs></svg>