<svg width="80" height="80" viewBox="0 0 80 80" fill="none" xmlns="http://www.w3.org/2000/svg">
<path d="M30.9772 60.2069C28.191 46 18.857 47.7241 20.1805 32.7586C21.5039 17.0345 39.336 17.2413 39.336 17.2413C39.336 17.2413 57.1681 17.0345 58.4915 32.6896C59.815 47.7241 50.481 45.931 47.6948 60.2069H30.9772Z" stroke="#008440" stroke-width="2.5" stroke-miterlimit="10" stroke-linecap="round" stroke-linejoin="round"/>
<path d="M48.0429 66.4138H30.9771V71.5862H48.0429V66.4138Z" stroke="#008440" stroke-width="2.5" stroke-miterlimit="10" stroke-linecap="round" stroke-linejoin="round"/>
<path d="M48.0429 61.2415H30.9771V66.4139H48.0429V61.2415Z" stroke="#008440" stroke-width="2.5" stroke-miterlimit="10" stroke-linecap="round" stroke-linejoin="round"/>
<path d="M30.9771 71.5862L34.5295 76.4827H44.4904L48.0429 71.5862H30.9771Z" stroke="#008440" stroke-width="2.5" stroke-miterlimit="10" stroke-linecap="round" stroke-linejoin="round"/>
<path d="M15.2349 12.4827C20.3198 6.48267 27.7034 2.4137 36.2015 1.65508C44.6996 0.896462 52.7101 3.65508 58.7702 8.68957" stroke="#008440" stroke-width="2.5" stroke-miterlimit="10" stroke-linecap="round" stroke-linejoin="round"/>
<path d="M17.812 61.5861C11.4036 56.9655 6.80628 49.9999 5.48281 41.6551C4.15934 33.3103 6.38834 25.2413 10.9857 18.8965" stroke="#008440" stroke-width="2.5" stroke-miterlimit="10" stroke-linecap="round" stroke-linejoin="round"/>
<path d="M3.60205 20.6207L11.0553 18.2759L13.6326 26.5517" stroke="#008440" stroke-width="2.5" stroke-miterlimit="10" stroke-linecap="round" stroke-linejoin="round"/>
<path d="M65.6658 15.793C70.8901 21.655 73.8853 29.5171 73.328 37.9309C72.7708 46.3447 68.87 53.793 62.9492 58.9654" stroke="#008440" stroke-width="2.5" stroke-miterlimit="10" stroke-linecap="round" stroke-linejoin="round"/>
<path d="M70.542 58.8275L62.7405 59.5172L62.0439 50.8965" stroke="#008440" stroke-width="2.5" stroke-miterlimit="10" stroke-linecap="round" stroke-linejoin="round"/>
<path d="M58.4914 1.79321L59.6059 10.0001L51.665 10.7587" stroke="#008440" stroke-width="2.5" stroke-miterlimit="10" stroke-linecap="round" stroke-linejoin="round"/>
</svg>
