<svg width="80" height="80" viewBox="0 0 80 80" fill="none" xmlns="http://www.w3.org/2000/svg">
<g clip-path="url(#clip0)">
<path d="M46.4012 19.573L52.4325 14.2989C52.7101 14.0534 52.8204 13.666 52.7063 13.3131C52.5922 12.9602 52.2804 12.707 51.9115 12.6764L43.9598 11.9859L40.8529 4.56768C40.7084 4.22631 40.3737 4 40.0048 4C39.636 4 39.3013 4.22247 39.1568 4.56768L36.0499 11.9859L28.0982 12.6764C27.7293 12.707 27.4175 12.9602 27.3034 13.3131C27.1893 13.666 27.2958 14.0572 27.5772 14.2989L33.6085 19.573L31.8021 27.4131C31.7185 27.7775 31.8592 28.1534 32.1558 28.3721C32.3155 28.491 32.5057 28.5485 32.6958 28.5485C32.8593 28.5485 33.0228 28.5063 33.1712 28.4143L40.0086 24.2564L46.8423 28.4143C46.9906 28.5025 47.1542 28.5485 47.3177 28.5485C47.3177 28.5485 47.3177 28.5485 47.3215 28.5485C47.8311 28.5485 48.2418 28.1342 48.2418 27.6203C48.2418 27.5244 48.2266 27.4323 48.1999 27.3479L46.4012 19.573ZM40.4764 22.3845C40.3319 22.2963 40.1646 22.2503 40.001 22.2503C39.8375 22.2503 39.674 22.2963 39.5257 22.3845L34.08 25.6986L35.5213 19.4502C35.5974 19.1165 35.4871 18.7636 35.2285 18.5373L30.4217 14.3372L36.761 13.7887C37.0995 13.758 37.3961 13.5432 37.5292 13.2249L40.0048 7.31405L42.4805 13.2249C42.6136 13.5432 42.9102 13.758 43.2487 13.7887L49.588 14.3372L44.7812 18.5373C44.5226 18.7636 44.4085 19.1127 44.4884 19.4502L45.9297 25.6986L40.4764 22.3845Z" fill="#008440"/>
<path d="M27.9996 19.3735L26.0107 21.1111C25.7673 21.3221 25.6608 21.6519 25.7331 21.9703L26.8473 26.7995L22.6376 24.241C22.3638 24.0723 22.0177 24.0723 21.7439 24.241L17.5342 26.7995L18.6484 21.9703C18.7207 21.6558 18.6142 21.3259 18.3708 21.1111L14.6555 17.8661L19.5497 17.4403C19.8691 17.4135 20.1468 17.2102 20.2722 16.911L22.1851 12.3465L24.0979 16.911C24.2842 17.356 24.79 17.5631 25.2311 17.3751C25.6723 17.1872 25.8776 16.677 25.6913 16.2321L22.9799 9.7651C22.843 9.4429 22.5311 9.23193 22.1813 9.23193C21.8352 9.23193 21.5196 9.4429 21.3827 9.7651L18.8766 15.7488L12.4612 16.305C12.1152 16.3357 11.8186 16.5696 11.7121 16.9033C11.6056 17.237 11.7045 17.6014 11.9669 17.8316L16.8345 22.0854L15.3742 28.4105C15.2943 28.7518 15.4274 29.1086 15.7089 29.3157C15.861 29.4269 16.0397 29.4845 16.2184 29.4845C16.3744 29.4845 16.5265 29.4423 16.6672 29.3579L22.1813 26.0055L27.6954 29.3579C27.992 29.5382 28.3685 29.5228 28.6499 29.3157C28.9313 29.1086 29.0644 28.7518 28.9845 28.4105L27.5356 22.0854L29.129 20.693C29.4903 20.3785 29.5283 19.8261 29.2165 19.4618C28.9085 19.0974 28.3609 19.059 27.9996 19.3735Z" fill="#008440"/>
<path d="M63.16 22.0854L68.0276 17.8316C68.29 17.6014 68.3927 17.237 68.2824 16.9033C68.1759 16.5696 67.8793 16.3318 67.5333 16.305L61.1179 15.7488L58.6118 9.7651C58.4749 9.4429 58.1631 9.23193 57.8132 9.23193C57.4672 9.23193 57.1515 9.4429 57.0146 9.7651L54.307 16.2321C54.1207 16.677 54.326 17.1872 54.7671 17.3751C55.2083 17.5631 55.714 17.356 55.9004 16.911L57.8132 12.3465L59.726 16.911C59.8515 17.2102 60.1291 17.4135 60.4486 17.4403L65.3428 17.8661L61.6275 21.1111C61.3841 21.3221 61.2776 21.6519 61.3498 21.9703L62.4641 26.7995L58.2619 24.2372C57.9881 24.0684 57.6421 24.0684 57.3683 24.2372L53.1585 26.7956L54.2728 21.9665C54.345 21.6519 54.2386 21.3221 53.9952 21.1073L52.0063 19.3697C51.645 19.0552 51.0974 19.0935 50.7856 19.4579C50.4737 19.8223 50.5118 20.3747 50.873 20.6892L52.4664 22.0815L51.0061 28.4066C50.9263 28.748 51.0594 29.1047 51.3408 29.3118C51.6222 29.519 51.9987 29.5343 52.2953 29.354L57.8094 26.0016L63.3235 29.354C63.4604 29.4384 63.6163 29.4806 63.7723 29.4806C63.951 29.4806 64.1297 29.4231 64.2818 29.3118C64.5632 29.1047 64.6963 28.748 64.6165 28.4066L63.16 22.0854Z" fill="#008440"/>
<path d="M12.0121 23.1402L10.4682 24.4903C10.24 24.6898 10.1411 24.9967 10.2096 25.2958L10.9207 28.3721L8.23591 26.7419C7.97731 26.5846 7.65407 26.5846 7.39929 26.7419L4.71449 28.3721L5.42562 25.2958C5.49407 25.0005 5.3952 24.6898 5.16703 24.4903L2.79787 22.4191L5.91999 22.1467C6.22041 22.1199 6.479 21.9281 6.59689 21.6481L7.8176 18.7368L9.0383 21.6481C9.21323 22.0662 9.68859 22.258 10.1031 22.0815C10.5176 21.9051 10.7077 21.4256 10.5366 21.0075L8.57056 16.3126C8.44506 16.0096 8.14844 15.814 7.8214 15.814C7.49436 15.814 7.20154 16.0096 7.07224 16.3126L5.29632 20.5549L0.744344 20.9577C0.421104 20.9845 0.143497 21.207 0.0408212 21.5177C-0.0618551 21.8322 0.0332156 22.1736 0.280399 22.3884L3.72956 25.4032L2.699 29.8872C2.62674 30.2094 2.74843 30.5431 3.01083 30.7349C3.27322 30.9267 3.62688 30.942 3.90829 30.7732L7.8176 28.3951L11.7269 30.7732C11.8562 30.8499 12.0007 30.8921 12.1452 30.8921C12.3125 30.8921 12.4799 30.8384 12.6206 30.7349C12.883 30.5431 13.0085 30.2094 12.9324 29.8872L11.898 25.4032L13.0731 24.3753C13.4116 24.0799 13.4496 23.5621 13.1568 23.2207C12.8639 22.8793 12.3506 22.8448 12.0121 23.1402Z" fill="#008440"/>
<path d="M79.9651 21.5175C79.8662 21.203 79.5886 20.9843 79.2616 20.9536L74.7134 20.5586L72.9375 16.3163C72.812 16.0132 72.5153 15.8176 72.1883 15.8176C71.8613 15.8176 71.5684 16.0132 71.4391 16.3163L69.4731 21.0112C69.2981 21.4293 69.4921 21.9087 69.9028 22.0852C70.3173 22.2616 70.7927 22.066 70.9676 21.6517L72.1883 18.7404L73.409 21.6517C73.5269 21.9317 73.7855 22.1235 74.0859 22.1504L77.2081 22.4227L74.8389 24.494C74.6107 24.6934 74.5118 25.0003 74.5803 25.2995L75.2914 28.3757L72.6066 26.7455C72.348 26.5883 72.0248 26.5883 71.77 26.7455L69.0852 28.3757L69.7963 25.2995C69.8648 25.0041 69.7659 24.6934 69.5377 24.494L67.9938 23.1438C67.6553 22.8485 67.1419 22.883 66.8491 23.2282C66.5563 23.5696 66.5905 24.0874 66.929 24.3828L68.1041 25.4107L67.0697 29.8947C66.9974 30.2169 67.1191 30.5506 67.3815 30.7423C67.6439 30.9341 67.9976 30.9495 68.279 30.7807L72.1883 28.4026L76.0976 30.7807C76.2269 30.8574 76.3714 30.8996 76.5159 30.8996C76.6833 30.8996 76.8506 30.8459 76.9913 30.7423C77.2537 30.5506 77.3792 30.2169 77.3031 29.8947L76.2688 25.4107L79.7179 22.3959C79.9689 22.1734 80.064 21.832 79.9651 21.5175Z" fill="#008440"/>
<path d="M56.7981 48.2447C55.9805 47.2014 54.7788 46.626 53.4097 46.626H46.0931C47.0895 44.7273 47.6979 43.2966 47.9033 42.3607C47.9071 42.3415 47.9109 42.3223 47.9147 42.307C48.2797 40.4045 48.1352 38.3486 47.5002 36.3655C46.8613 34.3748 45.7927 32.6487 44.4085 31.3829C43.5186 30.5698 42.5603 30.0097 41.5601 29.7182C40.522 29.4152 39.4838 29.4152 38.4761 29.7144C36.8332 30.2015 35.8179 31.1413 35.4528 32.5068C35.1752 33.5539 35.3691 34.5857 35.5555 35.5792C35.8331 37.0521 36.0955 38.4445 35.0193 40.09C35.0041 40.113 34.9927 40.136 34.9775 40.159C34.966 40.182 33.7568 42.3799 32.1177 44.5816C30.1479 47.2321 28.3453 48.797 27.1665 48.8814L17.0852 48.9658H17.0814C15.2066 48.9735 13.6816 50.5116 13.6816 52.4064V72.5515C13.6816 74.4502 15.2104 75.9922 17.0928 75.9922H17.0966L21.6486 75.9768C22.1962 75.9768 22.6411 75.5242 22.6411 74.9719C22.6411 74.4195 22.1924 73.9707 21.6448 73.9707H21.641L17.0928 73.9861C16.3094 73.9861 15.6705 73.3417 15.6705 72.5515V52.4064C15.6705 51.6163 16.3094 50.9719 17.0928 50.9719C17.0966 50.9719 17.0966 50.9719 17.1004 50.9719L27.2083 50.8875C27.2235 50.8875 27.2425 50.8875 27.2577 50.8875C28.3453 50.8261 29.4938 50.2392 30.7715 49.1039C31.6918 48.283 32.6805 47.1668 33.7073 45.786C35.3349 43.5996 36.529 41.4708 36.7001 41.164C37.3656 40.136 37.7193 39.0697 37.7763 37.9036C37.8258 36.9102 37.6584 36.0049 37.5063 35.211C37.3466 34.3671 37.2097 33.6345 37.3694 33.0323C37.4911 32.5797 37.7877 32.0158 39.0313 31.6437C40.3432 31.2525 41.7731 31.6898 43.0661 32.8712C45.382 34.9923 46.5685 38.7206 45.9562 41.9349C45.7471 42.8824 44.8914 44.735 43.5414 47.1477C43.3665 47.4584 43.3703 47.8381 43.549 48.145C43.7278 48.4518 44.0548 48.6436 44.4085 48.6436H53.4059C54.1627 48.6436 54.794 48.9389 55.2313 49.499C55.8055 50.2316 55.9919 51.3209 55.7333 52.4103C55.6002 52.9741 55.3492 53.4612 54.9955 53.8563C54.9803 53.8563 54.9689 53.8563 54.9537 53.8563H51.8468C51.2992 53.8563 50.8504 54.3051 50.8504 54.8613C50.8504 55.4174 51.2954 55.8662 51.8468 55.8662H54.2121C54.889 56.8251 54.6875 58.1216 54.5658 58.6433C54.4061 59.3375 54.0867 59.9014 53.6227 60.3233C53.5885 60.3195 53.5543 60.3195 53.52 60.3195H50.4131C49.8655 60.3195 49.4168 60.7683 49.4168 61.3244C49.4168 61.8768 49.8617 62.3294 50.4131 62.3294H53.2386C53.6455 63.0582 53.7064 64.0439 53.3945 65.0336C53.1321 65.8621 52.6606 66.5218 52.0217 66.9629H48.9833C48.4357 66.9629 47.9869 67.4117 47.9869 67.9679C47.9869 68.5202 48.4319 68.9728 48.9833 68.9728H51.7517C51.9989 69.598 51.9989 70.3575 51.7441 71.1131C51.0596 73.1461 49.3711 73.9784 45.9068 73.9784H35.16C35.1486 73.9784 35.1334 73.9784 35.122 73.9784C32.0911 74.0935 29.8855 73.5296 28.7408 72.3482C27.8586 71.4392 27.8776 70.4419 27.8852 70.3383C27.889 70.3077 27.889 70.2961 27.889 70.2578L27.9308 56.9556C27.9308 56.4032 27.4897 55.9506 26.9383 55.9506H26.9345C26.3869 55.9506 25.9419 56.3994 25.9381 56.9517L25.8963 70.2233C25.8887 70.3844 25.8811 70.8101 26.0104 71.374C26.2081 72.2332 26.6417 73.0387 27.2653 73.6984C28.7066 75.2289 31.091 75.9998 34.3538 75.9998C34.6238 75.9998 34.8976 75.996 35.179 75.9845H45.9182C47.1997 75.9845 48.854 75.9078 50.3218 75.3094C51.9533 74.6458 53.0675 73.4491 53.6379 71.7575C54.041 70.5531 54.0296 69.3219 53.6227 68.2632C54.3947 67.5958 54.9651 66.7059 55.2997 65.6473C55.7409 64.2549 55.6724 62.8165 55.1362 61.6543C55.8055 60.9792 56.2733 60.1162 56.509 59.1112C56.665 58.4361 56.9045 56.8942 56.2581 55.4443C56.9502 54.7654 57.4331 53.8947 57.6727 52.8859C58.0758 51.1828 57.7488 49.4568 56.7981 48.2447Z" fill="#008440"/>
<path d="M21.2914 68.954C21.2914 69.1113 21.1659 69.2379 21.01 69.2379C20.4624 69.2379 20.0137 69.6868 20.0137 70.2432C20.0137 70.7995 20.4586 71.2484 21.01 71.2484C22.2611 71.2484 23.2803 70.2201 23.2803 68.9579C23.2803 68.4054 22.8354 67.9526 22.284 67.9526C21.7364 67.9526 21.2914 68.4015 21.2914 68.954Z" fill="#008440"/>
</g>
<defs>
<clipPath id="clip0">
<rect width="80" height="80" fill="white"/>
</clipPath>
</defs>
</svg>
