<svg width="64" height="64" viewBox="0 0 64 64" fill="none" xmlns="http://www.w3.org/2000/svg">
<path d="M26.5507 21.8819H45.3294L47.3791 29.7303H37.1304L36.4461 21.8819L38.0407 40.1006L38.9956 50.9977M26.5507 21.8819L25.8505 29.7239M26.5507 21.8819H17.6674L15.6018 29.7239H25.8505M25.8505 29.7239H37.1304L38.0343 40.1006M38.0343 40.1006H24.9593M38.0343 40.1006H50.1355L53 50.9977H38.9956M38.0343 40.1006L38.9956 50.9977M24.9593 40.1006L24.0044 50.9977M24.9593 40.1006H12.8645M24.9593 40.1006L25.8696 29.7239M24.0044 50.9977H38.9956M24.0044 50.9977H10L12.8645 40.1006M50.11 40.1006L47.3791 29.7239M12.8645 40.1006L15.6209 29.7239M39.3107 54.8014L39.6767 58.9778L48.1653 60.6805L48.5663 63H14.3859L14.7902 60.6805L23.2947 58.9778L23.6511 54.8014M49.4671 21.6795L51.4722 20.2178L45.3071 15.6848L47.6783 8.31831H40.0395L37.662 1L31.4777 5.53941L25.2776 1L22.935 8.31831H15.2962L17.6706 15.6784L11.4705 20.2049L13.5011 21.6795H49.4671ZM23.3074 18.0653C23.5831 17.0391 24.0462 16.0738 24.6728 15.219C25.3083 14.3045 26.1228 13.5313 27.0661 12.9473C28.0093 12.3632 29.0613 11.9806 30.1568 11.8233C32.2205 11.4945 34.3316 11.9511 36.0806 13.1044C37.8296 14.2578 39.0919 16.0258 39.6226 18.0653H23.3074Z" stroke="#008440" stroke-width="1.5" stroke-linecap="round" stroke-linejoin="round"/>
</svg>
