<svg width="67" height="64" viewBox="0 0 67 64" fill="none" xmlns="http://www.w3.org/2000/svg">
<g clip-path="url(#clip0)">
<path d="M37.9596 54.982C37.9596 55.5343 37.5119 55.982 36.9596 55.982H29.0537C28.5014 55.982 28.0537 55.5343 28.0537 54.982V52.0888C28.0537 51.6339 27.7458 51.2389 27.3105 51.1066C26.0349 50.7187 24.8017 50.2007 23.6301 49.5606C23.2256 49.3396 22.7209 49.401 22.3968 49.7287L20.4083 51.7396C20.0179 52.1345 19.3804 52.1355 18.9886 51.742L13.3943 46.1227C13.0063 45.7329 13.0058 45.1029 13.3934 44.7126L15.4049 42.6866C15.7252 42.3639 15.7852 41.867 15.5699 41.4666C14.932 40.2803 14.4176 39.0305 14.0348 37.7372C13.9049 37.2984 13.5083 36.9869 13.0506 36.9869H10.2456C9.69332 36.9869 9.24561 36.5392 9.24561 35.9869V27.9895C9.24561 27.4373 9.69332 26.9895 10.2456 26.9895H13.0905C13.548 26.9895 13.9446 26.6782 14.0746 26.2396C14.4574 24.9482 14.9717 23.7004 15.6093 22.5161C15.8247 22.1159 15.7652 21.6191 15.4453 21.2963L13.4279 19.2603C13.0425 18.8713 13.0416 18.2447 13.4259 17.8546L18.9894 12.2079C19.3803 11.8111 20.02 11.8102 20.412 12.2059L22.4059 14.2182C22.7289 14.5441 23.2309 14.606 23.6346 14.3878C24.8035 13.756 26.0333 13.2465 27.3049 12.8671C27.7429 12.7364 28.0537 12.3401 28.0537 11.883V8.99451C28.0537 8.44222 28.5014 7.99451 29.0537 7.99451H36.9596C37.5119 7.99451 37.9596 8.44222 37.9596 8.99451V11.8875C37.9596 12.3425 38.2676 12.7376 38.703 12.8698C39.9764 13.2567 41.2076 13.773 42.3777 14.4108C42.7817 14.631 43.2854 14.5697 43.6093 14.2429L45.6046 12.2291C45.9954 11.8348 46.6325 11.8342 47.024 12.2278L52.6204 17.8546C53.0078 18.2441 53.0084 18.8733 52.6217 19.2636L50.6054 21.2985C50.2865 21.6203 50.2262 22.1151 50.4397 22.5147C51.0729 23.7004 51.5842 24.9483 51.9655 26.2391C52.0952 26.678 52.4919 26.9895 52.9496 26.9895H55.7941C56.3464 26.9895 56.7941 27.4373 56.7941 27.9895V35.9869C56.7941 36.5392 56.3464 36.9869 55.7941 36.9869H52.9482C52.4911 36.9869 52.0948 37.2976 51.9646 37.7357C51.5801 39.0294 51.0653 40.28 50.4283 41.4679C50.2139 41.8677 50.2738 42.3633 50.5932 42.6856L52.6102 44.7212C52.9962 45.1109 52.9964 45.7388 52.6105 46.1286L47.024 51.772C46.6328 52.1672 45.9943 52.1673 45.603 51.7723L43.6106 49.7616C43.2862 49.4342 42.7812 49.3734 42.3769 49.5948C41.2078 50.2351 39.9768 50.7528 38.7032 51.14C38.2677 51.2723 37.9596 51.6674 37.9596 52.1225V54.982ZM30.0318 52.9856C30.0335 53.5367 30.4807 53.9825 31.0318 53.9825H34.9784C35.5307 53.9825 35.9784 53.5348 35.9784 52.9825V50.5405C35.9784 50.0757 36.3032 49.6742 36.7577 49.577C38.8731 49.1264 40.888 48.2859 42.7013 47.0976C43.0848 46.8422 43.5956 46.8943 43.9195 47.222L45.6237 48.9457C46.0146 49.3411 46.6529 49.3417 47.0446 48.947L49.8401 46.1302C50.2274 45.7399 50.227 45.1101 49.8391 44.7203L48.1103 42.9833C47.7829 42.6543 47.7304 42.1409 47.9844 41.7524C49.1569 39.9342 49.9895 37.9148 50.4411 35.7939C50.5373 35.3319 50.9444 35.0008 51.4163 35.0008H53.8129C54.3652 35.0008 54.8129 34.5531 54.8129 34.0008V30.0024C54.8129 29.4501 54.3652 29.0024 53.8129 29.0024H51.4032C50.9349 29.0024 50.5307 28.6742 50.4345 28.2159C49.9881 26.081 49.1552 24.0475 47.9778 22.2175C47.7237 21.8288 47.7759 21.3154 48.1031 20.9859L49.8208 19.2562C50.208 18.8663 50.2081 18.2371 49.8211 17.8471L47.0256 15.0302C46.6336 14.6353 45.9946 14.6362 45.6039 15.0324L43.8991 16.7605C43.5756 17.0885 43.0649 17.1409 42.6815 16.8855C40.867 15.6995 38.8525 14.8592 36.7379 14.4062C36.2834 14.309 35.9586 13.9074 35.9586 13.4427V10.994C35.9586 10.4417 35.5109 9.99398 34.9586 9.99398H31.0151C30.4628 9.99398 30.0151 10.4417 30.0151 10.994V13.4295C30.0151 13.8979 29.6874 14.3024 29.2292 14.3995C27.1277 14.8553 25.1268 15.6956 23.3252 16.8789C22.9416 17.1344 22.4308 17.0825 22.1064 16.7551L20.4029 15.0359C20.0118 14.6412 19.3741 14.641 18.9827 15.0353L16.1887 17.8507C15.8005 18.2419 15.802 18.8735 16.1921 19.2628L17.9275 20.995C18.2558 21.3228 18.3092 21.8359 18.0553 22.2241C16.8779 24.0541 16.0451 26.0876 15.5986 28.2226C15.5024 28.6809 15.0982 29.009 14.6299 29.009H12.2268C11.6745 29.009 11.2268 29.4567 11.2268 30.009V34.0075C11.2268 34.5597 11.6745 35.0075 12.2268 35.0075H14.6168C15.0887 35.0075 15.4958 35.3386 15.592 35.8006C16.0437 37.9214 16.8763 39.9409 18.0487 41.759C18.3028 42.1477 18.2506 42.6611 17.9234 42.9906L16.2051 44.7209C15.8182 45.1105 15.8178 45.7393 16.2043 46.1294L18.9986 48.9494C19.3914 49.3458 20.0326 49.344 20.4232 48.9454L22.1161 47.2178C22.4383 46.889 22.9487 46.8358 23.3319 47.091C25.1334 48.2742 27.1344 49.1145 29.2358 49.5703C29.6943 49.6675 30.0227 50.0716 30.0242 50.5403L30.0318 52.9856Z" fill="#008440"/>
<path d="M33.0198 44.9848C30.4723 44.9874 27.9812 44.2274 25.8618 42.8009C23.7423 41.3745 22.0897 39.3456 21.113 36.971C20.1363 34.5964 19.8793 31.9828 20.3747 29.4609C20.8701 26.9389 22.0956 24.6219 23.896 22.8029C25.6965 20.984 27.9911 19.7448 30.4895 19.2423C32.9879 18.7397 35.5778 18.9963 37.9317 19.9796C40.2855 20.9629 42.2975 22.6287 43.7132 24.7663C45.1288 26.9038 45.8844 29.4171 45.8844 31.9882C45.8791 35.4312 44.5225 38.7318 42.1115 41.1676C39.7004 43.6034 36.4313 44.976 33.0198 44.9848ZM33.0198 20.9911C30.8642 20.9884 28.7561 21.6311 26.9625 22.8379C25.1688 24.0447 23.7701 25.7613 22.9433 27.7705C22.1166 29.7797 21.8989 31.9913 22.3179 34.1254C22.7368 36.2595 23.7736 38.2203 25.297 39.7596C26.8203 41.2989 28.7619 42.3476 30.876 42.773C32.99 43.1984 35.1817 42.9814 37.1735 42.1495C39.1654 41.3175 40.8679 39.908 42.0659 38.0992C43.2638 36.2905 43.9032 34.1638 43.9032 31.9882C43.8997 29.075 42.7524 26.2819 40.7125 24.2206C38.6726 22.1594 35.9064 20.9981 33.0198 20.9911Z" fill="#008440"/>
<path d="M64.6514 30.9984C64.6679 31.5449 64.223 31.9882 63.6763 31.9882C63.1289 31.9882 62.6871 31.5439 62.6698 30.9968C62.4506 24.0673 59.8578 17.4163 55.3168 12.1869C50.5596 6.70851 43.9895 3.1647 36.833 2.21709C29.6765 1.26948 22.4229 2.98286 16.4264 7.03732C10.4299 11.0918 6.1005 17.2102 4.24644 24.2502L2.33789 23.7304C4.32024 16.2261 8.93972 9.70593 15.3346 5.38595C21.7296 1.06596 29.4632 -0.75878 37.0931 0.252093C44.7229 1.26297 51.7278 5.04042 56.8012 10.8798C61.6588 16.4708 64.4281 23.5864 64.6514 30.9984Z" fill="#008440"/>
<path d="M32.9668 63.9798C24.5624 63.971 16.5047 60.5976 10.5619 54.5999C4.85082 48.8361 1.5412 41.1011 1.28401 32.9787C1.2667 32.4321 1.71147 31.9882 2.25837 31.9882C2.80531 31.9882 3.24683 32.4322 3.26411 32.9788C3.48313 39.9086 6.07591 46.5598 10.6171 51.7895C15.3743 57.2678 21.9444 60.8117 29.1009 61.7593C36.2574 62.7069 43.511 60.9935 49.5075 56.939C55.2298 53.0699 59.434 47.3213 61.4177 40.6858C61.575 40.1597 62.1194 39.8438 62.6492 39.9881C63.1732 40.1308 63.4853 40.6703 63.3304 41.1909C61.42 47.6104 57.5565 53.2712 52.2757 57.3632C46.7372 61.6548 39.9495 63.9808 32.9668 63.9798Z" fill="#008440"/>
<path d="M65.1008 45.3243C64.5958 45.5448 64.0079 45.3113 63.7919 44.8043L62.7553 42.3707C62.538 41.8607 61.9473 41.6248 61.4385 41.8447L59.0451 42.8794C58.5361 43.0994 57.9454 42.8628 57.7291 42.3522C57.515 41.8469 57.7488 41.2635 58.2526 41.0458L62.481 39.2189C62.9902 38.9989 63.5812 39.2354 63.798 39.746L65.6165 44.0283C65.829 44.5286 65.5989 45.1068 65.1008 45.3243Z" fill="#008440"/>
<path d="M3.38319 24.913C2.8688 25.1208 2.2836 24.8701 2.0791 24.3544L0.364302 20.0302C0.162851 19.5222 0.409964 18.9469 0.917098 18.7433C1.42748 18.5383 2.00718 18.7875 2.20969 19.2989L3.18188 21.7537C3.38635 22.2699 3.97227 22.5208 4.48696 22.3124L6.89966 21.3354C7.41381 21.1272 7.99923 21.3774 8.20424 21.8928C8.4076 22.404 8.15979 22.9837 7.64962 23.1897L3.38319 24.913Z" fill="#008440"/>
<path d="M32.0159 31.9883C32.0159 32.5354 32.4594 32.988 33.0065 32.988C33.5536 32.988 33.9971 32.5354 33.9971 31.9883C33.9971 31.4412 33.5536 30.9885 33.0065 30.9885C32.4594 30.9885 32.0159 31.4412 32.0159 31.9883Z" fill="#008440"/>
<path d="M28.0535 31.9883C28.0535 32.5354 28.497 32.988 29.0441 32.988C29.5912 32.988 30.0347 32.5354 30.0347 31.9883C30.0347 31.4412 29.5912 30.9885 29.0441 30.9885C28.497 30.9885 28.0535 31.4412 28.0535 31.9883Z" fill="#008440"/>
<path d="M35.9785 31.9883C35.9785 32.5354 36.422 32.988 36.9691 32.988C37.5162 32.988 37.9597 32.5354 37.9597 31.9883C37.9597 31.4412 37.5162 30.9885 36.9691 30.9885C36.422 30.9885 35.9785 31.4412 35.9785 31.9883Z" fill="#008440"/>
</g>
<defs>
<clipPath id="clip0">
<rect width="67" height="64" fill="white"/>
</clipPath>
</defs>
</svg>
