<svg width="43" height="39" viewBox="0 0 43 39" fill="none" xmlns="http://www.w3.org/2000/svg">
<path d="M34.8684 2.16415C30.4358 3.28115 26.3289 5.32831 22.5753 8.27817C21.3782 9.22404 20.1764 10.2751 19.05 11.4015C13.4455 17.0061 10.1102 23.5063 9.04655 30.8495C8.9241 31.826 8.80164 32.8025 8.7569 33.8017C8.74983 33.9595 8.74278 34.1173 8.73571 34.2751C8.66585 35.2492 8.67604 36.1935 8.71136 37.1629M8.71136 37.1629L1.65308 30.1046M8.71136 37.1629L8.98767 37.4392L17.0923 29.3346M41.6057 1.1539C40.7642 1.19158 39.9479 1.25438 39.1292 1.36977L41.6057 1.1539Z" stroke="#CCE6D9" stroke-width="2" stroke-miterlimit="3" stroke-linecap="round" stroke-linejoin="round"/>
</svg>
