<svg width="649" height="649" viewBox="0 0 649 649" fill="none" xmlns="http://www.w3.org/2000/svg">
<g filter="url(#filter0_d)">
<circle r="139.5" transform="matrix(-1 0 0 1 337.5 324.5)" fill="white"/>
</g>
<g clip-path="url(#clip0)">
<path d="M268.351 342.443C266.699 340.175 262.622 340.333 259.248 342.795C259.002 342.971 258.774 343.164 258.545 343.358C257.193 344.524 255.622 345.409 253.924 345.96C252.223 346.51 250.431 346.719 248.649 346.575C246.868 346.43 245.133 345.936 243.543 345.119C241.953 344.302 240.539 343.179 239.384 341.815C238.228 340.451 237.353 338.872 236.808 337.169C236.473 336.16 236.26 335.115 236.176 334.056C236.302 335.747 236.626 337.417 237.142 339.032C238.707 343.848 241.988 347.918 246.36 350.467C250.732 353.016 255.889 353.865 260.847 352.853C261.36 352.784 261.865 352.672 262.359 352.519H262.464C263.475 352.161 264.428 351.657 265.293 351.024C268.579 348.474 269.985 344.712 268.351 342.443Z" fill="#008440"/>
<path d="M277.506 327.375C274.853 328.254 273.746 332.175 275.028 336.166L275.345 336.993C276.301 339.318 276.596 341.862 276.197 344.345C275.798 346.827 274.72 349.15 273.083 351.058C271.446 352.965 269.313 354.382 266.921 355.152C264.529 355.922 261.971 356.015 259.529 355.42C262.371 356.132 265.332 356.231 268.215 355.709C271.098 355.187 273.836 354.056 276.249 352.393C278.661 350.729 280.691 348.571 282.205 346.061C283.719 343.551 284.681 340.748 285.027 337.837C285.099 337.354 285.134 336.866 285.133 336.377C285.133 336.377 285.133 336.377 285.133 336.272C285.106 335.203 284.929 334.144 284.605 333.124C283.446 329.01 280.177 326.496 277.506 327.375Z" fill="#008440"/>
<path d="M265.996 313.713C265.996 316.526 269.388 318.794 273.552 318.794C273.851 318.812 274.15 318.812 274.448 318.794C276.948 318.595 279.453 319.092 281.687 320.23C283.921 321.368 285.797 323.103 287.107 325.242C288.416 327.381 289.109 329.84 289.108 332.349C289.107 334.857 288.412 337.316 287.101 339.454C287.998 338.019 288.713 336.478 289.227 334.865C290.777 330.057 290.507 324.846 288.469 320.223C286.432 315.601 282.768 311.888 278.174 309.791C277.744 309.569 277.298 309.381 276.838 309.229H276.715C275.688 308.928 274.623 308.774 273.552 308.772C269.388 308.649 265.996 310.917 265.996 313.713Z" fill="#008440"/>
<path d="M249.513 320.517C252.167 321.396 255.382 318.865 256.665 314.891C256.753 314.609 256.841 314.328 256.911 314.029C257.44 311.853 258.499 309.84 259.991 308.171C261.484 306.502 263.366 305.227 265.469 304.46C267.573 303.693 269.833 303.457 272.049 303.774C274.265 304.091 276.369 304.95 278.174 306.275C279.011 306.892 279.777 307.599 280.458 308.385C279.376 307.067 278.137 305.886 276.768 304.868C272.663 301.902 267.611 300.551 262.575 301.073C257.538 301.595 252.87 303.954 249.46 307.699C249.109 308.037 248.791 308.408 248.512 308.807C247.898 309.684 247.424 310.651 247.106 311.673C245.735 315.735 246.86 319.656 249.513 320.517Z" fill="#008440"/>
<path d="M250.884 338.259C252.535 335.99 251.13 332.175 247.738 329.713L247 329.221C245.098 328.05 243.513 326.428 242.385 324.499C241.258 322.569 240.622 320.392 240.536 318.158C240.449 315.925 240.913 313.705 241.887 311.694C242.861 309.682 244.316 307.942 246.121 306.627C246.987 305.995 247.925 305.469 248.915 305.062C247.343 305.689 245.856 306.51 244.487 307.506C240.381 310.489 237.517 314.882 236.444 319.845C235.371 324.808 236.164 329.993 238.671 334.408C238.893 334.842 239.145 335.259 239.426 335.656C239.431 335.691 239.431 335.727 239.426 335.762H239.514C240.169 336.588 240.938 337.316 241.799 337.925C245.173 340.369 249.249 340.527 250.884 338.259Z" fill="#008440"/>
<path d="M352.084 337.221V311.972H342.77V304.64H369.937V311.972H360.659V337.221H352.084Z" fill="#008440"/>
<path d="M371.923 337.221V304.64H396.278V311.972H380.463V317.053H395.909V324.368H380.446V329.889H396.261V337.221H371.923Z" fill="#008440"/>
<path d="M397.473 320.957C397.473 310.899 405.24 304.112 415.468 304.112C418.469 303.981 421.442 304.734 424.019 306.278C426.596 307.822 428.664 310.089 429.965 312.798L422.584 316.315C421.974 314.926 420.98 313.74 419.719 312.896C418.459 312.052 416.984 311.585 415.468 311.55C414.228 311.518 412.996 311.74 411.846 312.204C410.696 312.668 409.654 313.364 408.784 314.247C407.914 315.131 407.235 316.184 406.789 317.341C406.342 318.499 406.138 319.735 406.189 320.974C406.144 322.213 406.351 323.447 406.799 324.602C407.248 325.757 407.927 326.808 408.796 327.69C409.665 328.573 410.705 329.268 411.852 329.734C412.999 330.2 414.23 330.426 415.468 330.399C416.986 330.362 418.462 329.893 419.723 329.046C420.983 328.198 421.976 327.009 422.584 325.616L429.965 329.028C428.657 331.739 426.592 334.013 424.019 335.574C421.445 337.134 418.475 337.914 415.468 337.819C405.24 337.802 397.473 330.891 397.473 320.957Z" fill="#008440"/>
<path d="M297.504 337.221V304.64H306.079V337.221H297.504Z" fill="#EB7700"/>
<path d="M332.649 337.221L318.591 318.372V337.221H309.98V304.64H318.766L332.227 322.575V304.64H340.837V337.221H332.649Z" fill="#EB7700"/>
<path d="M296.836 352.87V343.059H303.865V344.817H298.962V346.874H303.812V348.721H298.962V350.954H303.918V352.87H296.836Z" fill="#EB7700"/>
<path d="M311.772 352.87L306.993 346.47V352.87H304.867V343.059H307.063L311.702 349.213V343.059H313.828V352.87H311.772Z" fill="#EB7700"/>
<path d="M315.076 352.87V343.059H322.105V344.817H317.237V346.874H322.105V348.721H317.237V350.954H322.105V352.87H315.076Z" fill="#EB7700"/>
<path d="M328.8 352.87L326.832 349.354H325.268V352.87H323.142V343.059H327.816C328.25 343.019 328.687 343.072 329.099 343.213C329.511 343.354 329.888 343.58 330.207 343.877C330.525 344.174 330.778 344.535 330.947 344.937C331.116 345.338 331.199 345.771 331.19 346.206C331.224 346.873 331.023 347.531 330.621 348.065C330.22 348.598 329.643 348.973 328.993 349.125L331.26 352.87H328.8ZM329.011 346.206C329.007 346.019 328.965 345.835 328.886 345.665C328.807 345.495 328.694 345.343 328.553 345.219C328.413 345.095 328.248 345.002 328.07 344.945C327.892 344.887 327.704 344.868 327.517 344.888H325.268V347.543H327.517C327.705 347.562 327.895 347.542 328.074 347.484C328.254 347.426 328.419 347.331 328.56 347.205C328.701 347.08 328.813 346.926 328.891 346.754C328.969 346.582 329.01 346.395 329.011 346.206Z" fill="#EB7700"/>
<path d="M331.594 347.965C331.589 347.279 331.723 346.6 331.988 345.968C332.254 345.336 332.645 344.765 333.138 344.29C333.632 343.814 334.217 343.444 334.857 343.203C335.498 342.961 336.182 342.852 336.866 342.883C337.686 342.858 338.498 343.047 339.223 343.433C339.947 343.818 340.558 344.386 340.995 345.081L339.238 346.03C338.977 345.639 338.625 345.318 338.211 345.094C337.798 344.87 337.336 344.751 336.866 344.747C336.013 344.747 335.195 345.086 334.592 345.689C333.989 346.293 333.65 347.111 333.65 347.965C333.65 348.818 333.989 349.636 334.592 350.24C335.195 350.843 336.013 351.182 336.866 351.182C337.451 351.2 338.025 351.021 338.497 350.673C338.968 350.326 339.31 349.83 339.467 349.266H336.409V347.42H341.874C341.874 350.936 339.941 353.046 336.743 353.046C336.067 353.068 335.394 352.952 334.764 352.705C334.134 352.458 333.561 352.085 333.079 351.61C332.598 351.135 332.218 350.567 331.963 349.94C331.707 349.313 331.582 348.641 331.594 347.965Z" fill="#EB7700"/>
<path d="M344.651 352.87V348.844L340.82 343.059H343.192L345.67 346.98L348.147 343.059H350.572L346.742 348.844V352.87H344.651Z" fill="#EB7700"/>
<path d="M353.279 351.481L354.456 349.846C354.869 350.271 355.364 350.609 355.91 350.838C356.457 351.068 357.044 351.185 357.637 351.182C358.814 351.182 359.394 350.672 359.394 350.092C359.394 348.334 353.63 349.582 353.63 345.89C353.63 344.255 355.071 342.901 357.426 342.901C358.853 342.844 360.249 343.334 361.327 344.272L360.149 345.837C359.347 345.136 358.315 344.754 357.25 344.765C356.354 344.765 355.844 345.134 355.844 345.732C355.844 347.279 361.59 346.224 361.59 349.899C361.59 351.657 360.272 353.046 357.584 353.046C356.798 353.088 356.012 352.972 355.272 352.703C354.532 352.434 353.854 352.018 353.279 351.481Z" fill="#EB7700"/>
<path d="M361.784 347.965C361.745 346.914 362.021 345.876 362.577 344.983C363.132 344.091 363.941 343.385 364.9 342.955C365.86 342.526 366.925 342.394 367.96 342.575C368.995 342.756 369.953 343.243 370.709 343.972C371.466 344.702 371.988 345.641 372.207 346.669C372.427 347.697 372.334 348.767 371.942 349.743C371.549 350.718 370.874 351.553 370.003 352.142C369.133 352.731 368.106 353.045 367.055 353.046C366.369 353.085 365.683 352.982 365.038 352.743C364.394 352.504 363.806 352.134 363.311 351.657C362.816 351.18 362.425 350.606 362.162 349.97C361.899 349.335 361.77 348.652 361.784 347.965ZM370.06 347.965C370.026 347.372 369.819 346.802 369.465 346.325C369.111 345.849 368.625 345.486 368.067 345.283C367.509 345.079 366.904 345.043 366.327 345.18C365.749 345.316 365.224 345.619 364.816 346.051C364.408 346.482 364.136 347.024 364.032 347.609C363.928 348.193 363.998 348.796 364.232 349.342C364.467 349.887 364.856 350.352 365.351 350.679C365.846 351.006 366.427 351.181 367.02 351.182C367.437 351.191 367.851 351.112 368.235 350.951C368.62 350.79 368.966 350.55 369.253 350.247C369.539 349.944 369.759 349.585 369.898 349.191C370.037 348.798 370.092 348.38 370.06 347.965Z" fill="#EB7700"/>
<path d="M372.942 352.87V343.059H375.086V351.024H379.321V352.87H372.942Z" fill="#EB7700"/>
<path d="M379.69 348.932V343.059H381.851V348.879C381.902 349.466 382.171 350.014 382.606 350.412C383.04 350.811 383.608 351.032 384.197 351.032C384.787 351.032 385.355 350.811 385.789 350.412C386.223 350.014 386.492 349.466 386.543 348.879V343.059H388.722V348.932C388.722 351.358 387.246 353.046 384.206 353.046C381.166 353.046 379.69 351.358 379.69 348.932Z" fill="#EB7700"/>
<path d="M392.395 352.87V344.958H389.372V343.199H397.368V344.958H394.451V352.87H392.395Z" fill="#EB7700"/>
<path d="M398.018 352.87V343.059H400.144V352.87H398.018Z" fill="#EB7700"/>
<path d="M400.935 347.965C400.897 346.914 401.173 345.876 401.728 344.983C402.283 344.091 403.093 343.385 404.052 342.955C405.011 342.526 406.077 342.394 407.112 342.575C408.147 342.756 409.104 343.243 409.861 343.972C410.618 344.702 411.139 345.641 411.359 346.669C411.578 347.697 411.486 348.767 411.093 349.743C410.7 350.718 410.025 351.553 409.155 352.142C408.284 352.731 407.258 353.045 406.207 353.046C405.52 353.088 404.832 352.986 404.187 352.748C403.541 352.51 402.952 352.14 402.457 351.663C401.961 351.185 401.57 350.61 401.308 349.973C401.046 349.337 400.919 348.653 400.935 347.965ZM409.212 347.965C409.177 347.372 408.97 346.802 408.616 346.325C408.262 345.849 407.776 345.486 407.219 345.283C406.661 345.079 406.056 345.043 405.478 345.18C404.901 345.316 404.375 345.619 403.968 346.051C403.56 346.482 403.287 347.024 403.184 347.609C403.08 348.193 403.149 348.796 403.384 349.342C403.618 349.887 404.007 350.352 404.502 350.679C404.998 351.006 405.578 351.181 406.172 351.182C406.588 351.191 407.002 351.112 407.387 350.951C407.771 350.79 408.118 350.55 408.404 350.247C408.69 349.944 408.91 349.585 409.049 349.191C409.188 348.798 409.244 348.38 409.212 347.965Z" fill="#EB7700"/>
<path d="M419.088 352.87L414.308 346.47V352.87H412.182V343.059H414.378L419.017 349.213V343.059H421.143V352.87H419.088Z" fill="#EB7700"/>
<path d="M421.723 351.481L422.901 349.846C423.314 350.271 423.809 350.609 424.355 350.838C424.902 351.068 425.489 351.185 426.081 351.182C427.259 351.182 427.839 350.672 427.839 350.092C427.839 348.334 422.075 349.582 422.075 345.89C422.075 344.255 423.516 342.901 425.87 342.901C427.297 342.847 428.692 343.337 429.772 344.272L428.577 345.837C427.776 345.133 426.743 344.751 425.677 344.765C424.763 344.765 424.271 345.134 424.271 345.732C424.271 347.279 430.018 346.224 430.018 349.899C430.018 351.657 428.682 353.046 426.011 353.046C425.228 353.087 424.445 352.97 423.708 352.701C422.971 352.432 422.296 352.017 421.723 351.481Z" fill="#EB7700"/>
</g>
<defs>
<filter id="filter0_d" x="0.283466" y="0.464569" width="648.071" height="648.071" filterUnits="userSpaceOnUse" color-interpolation-filters="sRGB">
<feFlood flood-opacity="0" result="BackgroundImageFix"/>
<feColorMatrix in="SourceAlpha" type="matrix" values="0 0 0 0 0 0 0 0 0 0 0 0 0 0 0 0 0 0 127 0"/>
<feMorphology radius="83.4803" operator="dilate" in="SourceAlpha" result="effect1_dropShadow"/>
<feOffset dx="-13.1811"/>
<feGaussianBlur stdDeviation="50.5276"/>
<feColorMatrix type="matrix" values="0 0 0 0 0.64375 0 0 0 0 0.75 0 0 0 0 0.695265 0 0 0 0.14 0"/>
<feBlend mode="normal" in2="BackgroundImageFix" result="effect1_dropShadow"/>
<feBlend mode="normal" in="SourceGraphic" in2="effect1_dropShadow" result="shape"/>
</filter>
<clipPath id="clip0">
<rect width="194" height="55" fill="white" transform="translate(236 301)"/>
</clipPath>
</defs>
</svg>
