<svg width="112" height="33" viewBox="0 0 112 33" fill="none" xmlns="http://www.w3.org/2000/svg">
<path d="M29.9921 11.168C28.5947 11.9147 27.0321 12.288 25.3041 12.288C24.4294 12.288 23.6241 12.1493 22.8881 11.872C22.1627 11.584 21.5334 11.184 21.0001 10.672C20.4774 10.1493 20.0667 9.52533 19.7681 8.8C19.4694 8.07467 19.3201 7.26933 19.3201 6.384C19.3201 5.47733 19.4694 4.656 19.7681 3.92C20.0667 3.17333 20.4774 2.53867 21.0001 2.016C21.5334 1.49333 22.1627 1.09333 22.8881 0.815999C23.6241 0.528 24.4294 0.384 25.3041 0.384C26.1681 0.384 26.9787 0.490666 27.7361 0.704C28.4934 0.906666 29.1707 1.27467 29.7681 1.808L28.2801 3.312C27.9174 2.96 27.4747 2.688 26.9521 2.496C26.4401 2.304 25.8961 2.208 25.3201 2.208C24.7334 2.208 24.2001 2.31467 23.7201 2.528C23.2507 2.73067 22.8454 3.01867 22.5041 3.392C22.1627 3.75467 21.8961 4.18133 21.7041 4.672C21.5227 5.16267 21.4321 5.69067 21.4321 6.256C21.4321 6.864 21.5227 7.424 21.7041 7.936C21.8961 8.448 22.1627 8.89067 22.5041 9.264C22.8454 9.63733 23.2507 9.93067 23.7201 10.144C24.2001 10.3573 24.7334 10.464 25.3201 10.464C25.8321 10.464 26.3121 10.416 26.7601 10.32C27.2187 10.224 27.6241 10.0747 27.9761 9.872V7.2H25.6561V5.376H29.9921V11.168ZM32.3812 0.672H39.8852V2.496H34.3972V5.28H39.5972V7.104H34.3972V10.176H40.1732V12H32.3812V0.672ZM42.1624 0.672H44.8344L50.3224 9.088H50.3544V0.672H52.3704V12H49.8104L44.2104 3.312H44.1784V12H42.1624V0.672ZM54.8968 0.672H62.4008V2.496H56.9128V5.28H62.1128V7.104H56.9128V10.176H62.6888V12H54.8968V0.672ZM64.6781 0.672H68.6141C69.1581 0.672 69.6807 0.725333 70.1821 0.832C70.6941 0.928 71.1474 1.09867 71.5421 1.344C71.9367 1.58933 72.2514 1.92 72.4861 2.336C72.7207 2.752 72.8381 3.28 72.8381 3.92C72.8381 4.74133 72.6087 5.42933 72.1501 5.984C71.7021 6.53867 71.0567 6.87467 70.2141 6.992L73.2221 12H70.7901L68.1661 7.2H66.6941V12H64.6781V0.672ZM68.2621 5.472C68.5501 5.472 68.8381 5.46133 69.1261 5.44C69.4141 5.408 69.6754 5.344 69.9101 5.248C70.1554 5.14133 70.3527 4.98667 70.5021 4.784C70.6514 4.57067 70.7261 4.27733 70.7261 3.904C70.7261 3.57333 70.6567 3.30667 70.5181 3.104C70.3794 2.90133 70.1981 2.752 69.9741 2.656C69.7501 2.54933 69.4994 2.48 69.2221 2.448C68.9554 2.416 68.6941 2.4 68.4381 2.4H66.6941V5.472H68.2621ZM78.4202 0.672H80.1642L85.0442 12H82.7402L81.6842 9.408H76.7722L75.7482 12H73.4922L78.4202 0.672ZM80.9802 7.68L79.2362 3.072L77.4602 7.68H80.9802ZM86.3031 0.672H88.3191V10.176H93.1351V12H86.3031V0.672ZM9.3525 23.328C8.9365 22.88 8.53117 22.5813 8.1365 22.432C7.7525 22.2827 7.36317 22.208 6.9685 22.208C6.38183 22.208 5.8485 22.3147 5.3685 22.528C4.89917 22.7307 4.49383 23.0187 4.1525 23.392C3.81117 23.7547 3.5445 24.1813 3.3525 24.672C3.17117 25.1627 3.0805 25.6907 3.0805 26.256C3.0805 26.864 3.17117 27.424 3.3525 27.936C3.5445 28.448 3.81117 28.8907 4.1525 29.264C4.49383 29.6373 4.89917 29.9307 5.3685 30.144C5.8485 30.3573 6.38183 30.464 6.9685 30.464C7.42717 30.464 7.86983 30.3573 8.2965 30.144C8.73383 29.92 9.13917 29.568 9.5125 29.088L11.1765 30.272C10.6645 30.976 10.0405 31.488 9.3045 31.808C8.5685 32.128 7.7845 32.288 6.9525 32.288C6.07783 32.288 5.2725 32.1493 4.5365 31.872C3.81117 31.584 3.18183 31.184 2.6485 30.672C2.12583 30.1493 1.71517 29.5253 1.4165 28.8C1.11783 28.0747 0.9685 27.2693 0.9685 26.384C0.9685 25.4773 1.11783 24.656 1.4165 23.92C1.71517 23.1733 2.12583 22.5387 2.6485 22.016C3.18183 21.4933 3.81117 21.0933 4.5365 20.816C5.2725 20.528 6.07783 20.384 6.9525 20.384C7.7205 20.384 8.42983 20.5227 9.0805 20.8C9.74183 21.0667 10.3552 21.5253 10.9205 22.176L9.3525 23.328ZM11.9216 26.384C11.9216 25.4773 12.071 24.656 12.3696 23.92C12.6683 23.1733 13.079 22.5387 13.6016 22.016C14.135 21.4933 14.7643 21.0933 15.4896 20.816C16.2256 20.528 17.031 20.384 17.9056 20.384C18.791 20.3733 19.6016 20.5067 20.3376 20.784C21.0736 21.0507 21.7083 21.4453 22.2416 21.968C22.775 22.4907 23.191 23.12 23.4896 23.856C23.7883 24.592 23.9376 25.4133 23.9376 26.32C23.9376 27.2053 23.7883 28.0107 23.4896 28.736C23.191 29.4613 22.775 30.0853 22.2416 30.608C21.7083 31.1307 21.0736 31.5413 20.3376 31.84C19.6016 32.128 18.791 32.2773 17.9056 32.288C17.031 32.288 16.2256 32.1493 15.4896 31.872C14.7643 31.584 14.135 31.184 13.6016 30.672C13.079 30.1493 12.6683 29.5253 12.3696 28.8C12.071 28.0747 11.9216 27.2693 11.9216 26.384ZM14.0336 26.256C14.0336 26.864 14.1243 27.424 14.3056 27.936C14.4976 28.448 14.7643 28.8907 15.1056 29.264C15.447 29.6373 15.8523 29.9307 16.3216 30.144C16.8016 30.3573 17.335 30.464 17.9216 30.464C18.5083 30.464 19.0416 30.3573 19.5216 30.144C20.0016 29.9307 20.4123 29.6373 20.7536 29.264C21.095 28.8907 21.3563 28.448 21.5376 27.936C21.7296 27.424 21.8256 26.864 21.8256 26.256C21.8256 25.6907 21.7296 25.1627 21.5376 24.672C21.3563 24.1813 21.095 23.7547 20.7536 23.392C20.4123 23.0187 20.0016 22.7307 19.5216 22.528C19.0416 22.3147 18.5083 22.208 17.9216 22.208C17.335 22.208 16.8016 22.3147 16.3216 22.528C15.8523 22.7307 15.447 23.0187 15.1056 23.392C14.7643 23.7547 14.4976 24.1813 14.3056 24.672C14.1243 25.1627 14.0336 25.6907 14.0336 26.256ZM25.8578 20.672H28.5298L34.0178 29.088H34.0498V20.672H36.0658V32H33.5058L27.9058 23.312H27.8738V32H25.8578V20.672ZM40.9121 22.496H37.4401V20.672H46.4001V22.496H42.9281V32H40.9121V22.496ZM47.7796 20.672H51.7156C52.2596 20.672 52.7823 20.7253 53.2836 20.832C53.7956 20.928 54.249 21.0987 54.6436 21.344C55.0383 21.5893 55.353 21.92 55.5876 22.336C55.8223 22.752 55.9396 23.28 55.9396 23.92C55.9396 24.7413 55.7103 25.4293 55.2516 25.984C54.8036 26.5387 54.1583 26.8747 53.3156 26.992L56.3236 32H53.8916L51.2676 27.2H49.7956V32H47.7796V20.672ZM51.3636 25.472C51.6516 25.472 51.9396 25.4613 52.2276 25.44C52.5156 25.408 52.777 25.344 53.0116 25.248C53.257 25.1413 53.4543 24.9867 53.6036 24.784C53.753 24.5707 53.8276 24.2773 53.8276 23.904C53.8276 23.5733 53.7583 23.3067 53.6196 23.104C53.481 22.9013 53.2996 22.752 53.0756 22.656C52.8516 22.5493 52.601 22.48 52.3236 22.448C52.057 22.416 51.7956 22.4 51.5396 22.4H49.7956V25.472H51.3636ZM61.5218 20.672H63.2658L68.1458 32H65.8418L64.7858 29.408H59.8738L58.8498 32H56.5938L61.5218 20.672ZM64.0818 27.68L62.3378 23.072L60.5618 27.68H64.0818ZM77.1806 23.328C76.7646 22.88 76.3593 22.5813 75.9646 22.432C75.5806 22.2827 75.1913 22.208 74.7966 22.208C74.21 22.208 73.6766 22.3147 73.1966 22.528C72.7273 22.7307 72.322 23.0187 71.9806 23.392C71.6393 23.7547 71.3726 24.1813 71.1806 24.672C70.9993 25.1627 70.9086 25.6907 70.9086 26.256C70.9086 26.864 70.9993 27.424 71.1806 27.936C71.3726 28.448 71.6393 28.8907 71.9806 29.264C72.322 29.6373 72.7273 29.9307 73.1966 30.144C73.6766 30.3573 74.21 30.464 74.7966 30.464C75.2553 30.464 75.698 30.3573 76.1246 30.144C76.562 29.92 76.9673 29.568 77.3406 29.088L79.0046 30.272C78.4926 30.976 77.8686 31.488 77.1326 31.808C76.3966 32.128 75.6126 32.288 74.7806 32.288C73.906 32.288 73.1006 32.1493 72.3646 31.872C71.6393 31.584 71.01 31.184 70.4766 30.672C69.954 30.1493 69.5433 29.5253 69.2446 28.8C68.946 28.0747 68.7966 27.2693 68.7966 26.384C68.7966 25.4773 68.946 24.656 69.2446 23.92C69.5433 23.1733 69.954 22.5387 70.4766 22.016C71.01 21.4933 71.6393 21.0933 72.3646 20.816C73.1006 20.528 73.906 20.384 74.7806 20.384C75.5486 20.384 76.258 20.5227 76.9086 20.8C77.57 21.0667 78.1833 21.5253 78.7486 22.176L77.1806 23.328ZM82.6778 22.496H79.2058V20.672H88.1658V22.496H84.6938V32H82.6778V22.496ZM88.9373 26.384C88.9373 25.4773 89.0866 24.656 89.3853 23.92C89.6839 23.1733 90.0946 22.5387 90.6173 22.016C91.1506 21.4933 91.7799 21.0933 92.5052 20.816C93.2413 20.528 94.0466 20.384 94.9213 20.384C95.8066 20.3733 96.6173 20.5067 97.3533 20.784C98.0893 21.0507 98.7239 21.4453 99.2573 21.968C99.7906 22.4907 100.207 23.12 100.505 23.856C100.804 24.592 100.953 25.4133 100.953 26.32C100.953 27.2053 100.804 28.0107 100.505 28.736C100.207 29.4613 99.7906 30.0853 99.2573 30.608C98.7239 31.1307 98.0893 31.5413 97.3533 31.84C96.6173 32.128 95.8066 32.2773 94.9213 32.288C94.0466 32.288 93.2413 32.1493 92.5052 31.872C91.7799 31.584 91.1506 31.184 90.6173 30.672C90.0946 30.1493 89.6839 29.5253 89.3853 28.8C89.0866 28.0747 88.9373 27.2693 88.9373 26.384ZM91.0493 26.256C91.0493 26.864 91.1399 27.424 91.3213 27.936C91.5133 28.448 91.7799 28.8907 92.1213 29.264C92.4626 29.6373 92.8679 29.9307 93.3373 30.144C93.8173 30.3573 94.3506 30.464 94.9373 30.464C95.5239 30.464 96.0573 30.3573 96.5373 30.144C97.0173 29.9307 97.4279 29.6373 97.7693 29.264C98.1106 28.8907 98.3719 28.448 98.5533 27.936C98.7453 27.424 98.8413 26.864 98.8413 26.256C98.8413 25.6907 98.7453 25.1627 98.5533 24.672C98.3719 24.1813 98.1106 23.7547 97.7693 23.392C97.4279 23.0187 97.0173 22.7307 96.5373 22.528C96.0573 22.3147 95.5239 22.208 94.9373 22.208C94.3506 22.208 93.8173 22.3147 93.3373 22.528C92.8679 22.7307 92.4626 23.0187 92.1213 23.392C91.7799 23.7547 91.5133 24.1813 91.3213 24.672C91.1399 25.1627 91.0493 25.6907 91.0493 26.256ZM102.873 20.672H106.809C107.353 20.672 107.876 20.7253 108.377 20.832C108.889 20.928 109.343 21.0987 109.737 21.344C110.132 21.5893 110.447 21.92 110.681 22.336C110.916 22.752 111.033 23.28 111.033 23.92C111.033 24.7413 110.804 25.4293 110.345 25.984C109.897 26.5387 109.252 26.8747 108.409 26.992L111.417 32H108.985L106.361 27.2H104.889V32H102.873V20.672ZM106.457 25.472C106.745 25.472 107.033 25.4613 107.321 25.44C107.609 25.408 107.871 25.344 108.105 25.248C108.351 25.1413 108.548 24.9867 108.697 24.784C108.847 24.5707 108.921 24.2773 108.921 23.904C108.921 23.5733 108.852 23.3067 108.713 23.104C108.575 22.9013 108.393 22.752 108.169 22.656C107.945 22.5493 107.695 22.48 107.417 22.448C107.151 22.416 106.889 22.4 106.633 22.4H104.889V25.472H106.457Z" fill="#1D1D1B"/>
</svg>
