<svg width="29" height="16" viewBox="0 0 29 16" fill="none" xmlns="http://www.w3.org/2000/svg">
<path fill-rule="evenodd" clip-rule="evenodd" d="M28.7071 7.29284L22.3431 0.92888C21.9526 0.538355 21.3195 0.538355 20.9289 0.92888C20.5384 1.3194 20.5384 1.95257 20.9289 2.34309L25.5858 6.99995H2.00099C2.00066 6.99995 2.00033 6.99995 2 6.99995L1 6.99995C0.447715 6.99995 0 7.44766 0 7.99995C0 8.55223 0.447715 8.99995 1 8.99995H2H25.5858L20.9289 13.6568C20.5384 14.0473 20.5384 14.6805 20.9289 15.071C21.3195 15.4615 21.9526 15.4615 22.3431 15.071L28.7071 8.70705C29.0976 8.31653 29.0976 7.68336 28.7071 7.29284Z" fill="white"/>
</svg>
