<svg width="40" height="30" viewBox="0 0 40 30" fill="none" xmlns="http://www.w3.org/2000/svg">
<path d="M16.1006 23.8235C16.1006 25.6723 15.3878 27.1849 13.9623 28.3613C12.6205 29.4538 10.8176 30 8.55346 30C6.37317 30 4.40252 28.9496 2.64151 26.8487C0.880504 24.7479 0 22.0168 0 18.6555C0 15.2941 1.50943 11.8487 4.5283 8.31933C7.54717 4.78992 12.1593 2.01681 18.3648 0L19.4969 2.7731C10.4403 6.89075 5.91195 12.437 5.91195 19.4118C7.08595 18.1513 8.51153 17.521 10.1887 17.521C11.8658 17.521 13.2495 18.1092 14.3396 19.2857C15.5136 20.4622 16.1006 21.9748 16.1006 23.8235ZM36.6038 23.8235C36.6038 25.6723 35.891 27.1849 34.4654 28.3613C33.1237 29.4538 31.3208 30 29.0566 30C26.8763 30 24.9057 28.9496 23.1447 26.8487C21.3836 24.7479 20.5031 22.0168 20.5031 18.6555C20.5031 15.2941 22.0126 11.8487 25.0314 8.31933C28.0503 4.78992 32.6625 2.01681 38.8679 0L40 2.7731C30.9434 6.89075 26.4151 12.437 26.4151 19.4118C27.5891 18.1513 29.0147 17.521 30.6918 17.521C32.369 17.521 33.7526 18.1092 34.8428 19.2857C36.0168 20.4622 36.6038 21.9748 36.6038 23.8235Z" fill="#EB7700"/>
</svg>
