<svg width="1440" height="840" viewBox="0 0 1440 840" fill="none" xmlns="http://www.w3.org/2000/svg">
<g clip-path="url(#clip0)">
<circle cx="731" cy="335" r="16" fill="#D20303"/>
<mask id="mask0" mask-type="alpha" maskUnits="userSpaceOnUse" x="715" y="319" width="32" height="32">
<circle cx="731" cy="335" r="16" transform="rotate(-180 731 335)" fill="white"/>
</mask>
<g mask="url(#mask0)">
<rect x="747" y="335" width="32.6667" height="16" transform="rotate(-180 747 335)" fill="white"/>
</g>
<circle cx="689" cy="318" r="20" fill="white"/>
<path d="M689 302C682 302 676.1 306.5 673.9 312.7H704.1C701.9 306.5 696 302 689 302Z" fill="#AE1C28"/>
<path d="M705 318C705 316.1 704.7 314.3 704.1 312.7H673.9C673.3 314.3 673 316.1 673 318C673 319.9 673.3 321.7 673.9 323.3H704.1C704.7 321.7 705 319.9 705 318Z" fill="white"/>
<path d="M673.9 323.3C676.1 329.5 682 334 689 334C696 334 701.9 329.5 704.1 323.3H673.9Z" fill="#21468B"/>
<circle cx="727" cy="377" r="20" fill="white"/>
<g clip-path="url(#clip1)">
<path d="M743 377H729.497L714.538 387.035C716.034 388.895 717.928 390.397 720.08 391.429C722.233 392.462 724.59 392.998 726.977 393C731.222 393 735.295 391.315 738.299 388.315C741.303 385.315 742.994 381.246 743 377Z" fill="#D7141A"/>
<path d="M714.538 366.965L729.497 377H742.908C742.908 372.773 741.235 368.717 738.254 365.719C735.273 362.721 731.227 361.024 727 361V361C724.609 361.002 722.249 361.538 720.093 362.57C717.936 363.603 716.038 365.104 714.538 366.965Z" fill="white"/>
<path d="M729.497 377L714.538 366.965C712.243 369.806 710.994 373.348 711 377C710.994 380.651 712.243 384.194 714.538 387.035L729.497 377Z" fill="#11457E"/>
</g>
<circle cx="768" cy="385" r="20" fill="white"/>
<path d="M768 401C759.2 401 752 393.8 752 385C752 376.2 759.2 369 768 369C776.8 369 784 376.2 784 385C784 393.8 776.8 401 768 401Z" fill="#E20C17"/>
<path d="M768 401C759.2 401 752 393.8 752 385C752 376.2 759.2 369 768 369C776.8 369 784 376.2 784 385C784 393.8 776.8 401 768 401Z" fill="#E20C17"/>
<path d="M765.4 391.1C762.1 391.1 759.3 388.4 759.3 385C759.3 381.6 762 378.9 765.4 378.9C767.1 378.9 768.6 379.6 769.7 380.7C768.3 378.7 766 377.4 763.4 377.4C759.2 377.4 755.8 380.8 755.8 385C755.8 389.2 759.2 392.6 763.4 392.6C766 392.6 768.3 391.3 769.7 389.3C768.7 390.4 767.1 391.1 765.4 391.1Z" fill="white"/>
<path d="M776.3 387.2L773.7 386.4L772.1 388.6V385.8L769.5 385L772.1 384.2V381.4L773.7 383.6L776.3 382.8L774.7 385L776.3 387.2Z" fill="white"/>
<path d="M765.4 391.1C762.1 391.1 759.3 388.4 759.3 385C759.3 381.6 762 378.9 765.4 378.9C767.1 378.9 768.6 379.6 769.7 380.7C768.3 378.7 766 377.4 763.4 377.4C759.2 377.4 755.8 380.8 755.8 385C755.8 389.2 759.2 392.6 763.4 392.6C766 392.6 768.3 391.3 769.7 389.3C768.7 390.4 767.1 391.1 765.4 391.1Z" fill="white"/>
<path d="M776.3 387.2L773.7 386.4L772.1 388.6V385.8L769.5 385L772.1 384.2V381.4L773.7 383.6L776.3 382.8L774.7 385L776.3 387.2Z" fill="white"/>
<circle cx="842" cy="446" r="20" fill="white"/>
<g clip-path="url(#clip2)">
<path d="M858 446C858 449.165 857.062 452.258 855.304 454.889C853.545 457.52 851.047 459.571 848.123 460.782C845.199 461.993 841.982 462.31 838.879 461.693C835.775 461.075 832.924 459.551 830.686 457.314C828.449 455.076 826.925 452.225 826.307 449.121C825.69 446.018 826.007 442.801 827.218 439.877C828.429 436.953 830.48 434.455 833.111 432.696C835.742 430.938 838.836 430 842 430C846.243 430 850.313 431.686 853.314 434.686C856.314 437.687 858 441.757 858 446Z" fill="#006B35"/>
<path d="M850.624 452.798H850.485H848.173C848.173 452.798 848.173 452.798 848.173 452.659C848.18 452.632 848.181 452.603 848.177 452.575C848.172 452.547 848.162 452.521 848.147 452.497C848.132 452.473 848.112 452.453 848.089 452.437C848.065 452.421 848.039 452.41 848.011 452.405C848.011 452.405 847.849 452.22 847.734 452.405C847.705 452.449 847.69 452.502 847.69 452.555C847.69 452.608 847.705 452.66 847.734 452.705C847.726 452.759 847.726 452.813 847.734 452.867V453.006L833.375 452.543C833.565 452.839 833.83 453.078 834.143 453.237C834.456 453.395 834.806 453.467 835.156 453.445H847.826C847.815 453.599 847.815 453.753 847.826 453.907C847.806 453.991 847.806 454.078 847.826 454.162C847.847 454.209 847.884 454.247 847.931 454.269C847.978 454.29 848.032 454.293 848.081 454.277C848.081 454.277 848.196 454.277 848.219 454.139H850C850.105 454.174 850.218 454.174 850.323 454.139C850.485 454.139 850.693 454 850.693 453.329C850.73 453.149 850.705 452.962 850.624 452.798ZM850.092 453.746H849.537C849.537 453.746 849.537 453.584 849.306 453.584C849.257 453.589 849.209 453.603 849.165 453.627C849.121 453.651 849.083 453.683 849.052 453.722H848.335C848.306 453.678 848.291 453.625 848.291 453.572C848.291 453.519 848.306 453.467 848.335 453.422H850.069C850.069 453.422 850.185 453.676 850.092 453.746Z" fill="white"/>
<path d="M830.462 444.035C830.462 444.035 830.162 444.451 830.069 444.913C830.036 445.12 830.036 445.331 830.069 445.537C830.069 445.537 830.208 446.023 830.462 446.046C830.717 446.069 830.856 445.792 830.925 445.63C830.994 445.468 830.925 445.167 830.925 445.144C830.925 445.121 830.925 445.144 830.694 445.283H830.486C830.486 445.283 830.486 445.006 830.486 444.89C830.486 444.774 830.624 444.058 830.462 444.035Z" fill="white"/>
<path d="M832.266 442.162C832.266 442.162 832.058 441.931 831.873 441.907C831.717 441.844 831.543 441.844 831.387 441.907C830.984 442.103 830.658 442.429 830.462 442.832C830.462 442.832 830.462 442.971 830.462 442.994C830.462 443.017 831.688 442.37 832.243 442.162C832.197 442.231 832.266 442.208 832.266 442.162Z" fill="white"/>
<path d="M830.948 438.393C830.948 438.393 830.625 438.093 830.625 437.977C830.635 437.938 830.656 437.903 830.684 437.875C830.712 437.846 830.748 437.826 830.786 437.815C830.852 437.817 830.917 437.833 830.976 437.86C831.036 437.888 831.089 437.928 831.133 437.977C831.191 438.096 831.22 438.226 831.22 438.358C831.22 438.491 831.191 438.621 831.133 438.74C831.133 438.856 830.994 438.971 830.948 438.971C830.902 438.971 830.948 438.763 830.948 438.717C830.961 438.64 830.961 438.562 830.948 438.486V438.393Z" fill="white"/>
<path d="M830.208 439.11C830.17 439.363 830.17 439.62 830.208 439.873C830.208 440.335 830.208 440.312 830.208 440.659C830.208 441.006 830.37 441.168 830.555 441.237C830.606 441.259 830.661 441.27 830.717 441.27C830.772 441.27 830.828 441.259 830.879 441.237C831.11 441.237 831.156 440.775 831.179 440.613C831.202 440.451 831.179 440.243 831.179 440.012C831.179 439.78 831.318 439.688 831.387 439.688C831.457 439.688 831.387 440.173 831.387 440.936C831.387 441.26 831.387 441.399 831.595 441.491C831.804 441.584 831.919 441.491 832.058 441.653C832.074 441.722 832.074 441.793 832.058 441.861C832.105 442.292 832.105 442.726 832.058 443.156C832.058 443.734 832.058 443.78 832.058 443.78C832.058 443.78 832.312 443.619 832.405 443.503C832.666 443.251 832.85 442.93 832.937 442.578C832.961 442.278 832.961 441.976 832.937 441.676C832.937 441.422 832.937 441.214 832.937 441.098C833.004 441.073 833.077 441.073 833.145 441.098C833.306 441.098 833.353 441.214 833.515 441.26C833.688 441.306 833.872 441.295 834.038 441.229C834.205 441.162 834.346 441.043 834.439 440.89C834.529 440.668 834.529 440.419 834.439 440.197C834.403 439.974 834.341 439.757 834.254 439.549C834.238 439.521 834.23 439.489 834.23 439.457C834.23 439.424 834.238 439.392 834.254 439.364C834.254 439.364 834.254 439.364 834.254 439.225C834.248 439.073 834.191 438.926 834.093 438.809C834.093 438.809 833.792 438.555 833.63 438.624C833.468 438.694 833.445 438.948 833.445 439.04C833.45 439.333 833.529 439.62 833.676 439.873C833.792 440.081 833.931 440.197 833.885 440.382C833.902 440.434 833.902 440.491 833.885 440.543C833.885 440.543 833.653 440.543 833.561 440.543C833.433 440.464 833.329 440.353 833.26 440.22C833.26 440.012 833.26 439.942 833.26 439.549C833.264 439.348 833.198 439.153 833.075 438.994C833.075 438.994 832.96 438.855 832.844 438.994C832.728 439.133 832.59 439.387 832.613 439.595C832.602 439.711 832.602 439.827 832.613 439.942V440.104C832.613 440.289 832.752 440.451 832.613 440.543C832.613 440.543 832.497 440.405 832.474 440.266C832.454 440.066 832.454 439.865 832.474 439.665C832.486 439.449 832.486 439.233 832.474 439.017C832.474 438.717 832.335 438.231 832.127 438.185C831.919 438.139 831.919 438.301 831.873 438.416C831.827 438.532 831.873 438.74 831.873 439.04C831.873 439.341 831.873 439.272 831.873 439.734C831.873 440.197 832.081 440.543 831.873 440.751C831.665 440.96 831.873 440.751 831.734 440.751C831.595 440.751 831.595 440.474 831.595 440.335C831.575 440.105 831.575 439.872 831.595 439.642C831.595 439.341 831.595 439.225 831.595 439.133C831.595 439.04 831.457 438.971 831.318 438.994C831.179 439.017 831.11 439.156 830.994 439.341C830.866 439.56 830.787 439.805 830.763 440.058C830.763 440.358 830.763 440.543 830.763 440.613C830.734 440.637 830.697 440.651 830.659 440.651C830.621 440.651 830.584 440.637 830.555 440.613C830.624 440.405 830.624 440.197 830.624 439.873C830.643 439.688 830.643 439.502 830.624 439.318C830.624 439.318 830.624 439.11 830.463 439.087C830.301 439.064 830.463 439.087 830.463 439.087L830.208 439.11Z" fill="white"/>
<path d="M832.937 438C832.937 438 832.937 438.231 832.937 438.277C832.985 438.385 833.066 438.474 833.168 438.532C833.23 438.559 833.297 438.573 833.364 438.573C833.432 438.573 833.499 438.559 833.561 438.532C833.672 438.505 833.771 438.439 833.838 438.347C833.863 438.272 833.863 438.191 833.838 438.116C833.838 438.116 833.838 437.908 833.838 437.884C833.838 437.861 833.723 437.884 833.676 437.884C833.63 437.884 833.676 437.884 833.676 437.884C833.676 437.884 833.676 437.746 833.676 437.723C833.676 437.699 833.676 437.723 833.538 437.723C833.399 437.723 833.538 437.884 833.538 437.884C833.538 437.884 833.538 437.884 833.538 437.769C833.538 437.653 832.937 437.931 832.937 438Z" fill="white"/>
<path d="M837.561 441.399C837.561 441.399 837.422 441.399 837.33 441.399C837.304 441.388 837.277 441.382 837.249 441.382C837.221 441.382 837.194 441.388 837.168 441.399C837.168 441.399 837.168 441.399 837.168 441.607C837.168 441.815 837.168 441.607 837.168 441.607C837.168 441.607 837.168 441.607 837.168 441.422C837.121 441.388 837.064 441.37 837.006 441.37C836.948 441.37 836.891 441.388 836.844 441.422C836.844 441.422 836.844 441.422 836.636 441.723C836.428 442.023 836.636 441.838 836.497 441.861C836.461 441.889 836.416 441.905 836.37 441.905C836.324 441.905 836.279 441.889 836.243 441.861C836.243 441.861 836.243 441.699 836.243 441.561C836.216 441.507 836.175 441.462 836.124 441.431C836.073 441.399 836.014 441.383 835.954 441.383C835.894 441.383 835.835 441.399 835.784 441.431C835.733 441.462 835.692 441.507 835.665 441.561C835.665 441.561 835.665 441.561 835.503 441.561C835.341 441.561 835.503 441.168 835.364 440.659C835.226 440.15 835.364 439.965 835.226 439.803C835.087 439.642 835.11 439.48 835.226 439.41C835.341 439.341 835.503 439.41 835.573 439.41C835.642 439.41 835.573 439.202 835.388 438.809C835.327 438.566 835.217 438.337 835.064 438.139C835.038 438.128 835.011 438.122 834.983 438.122C834.955 438.122 834.928 438.128 834.902 438.139C834.842 438.118 834.777 438.118 834.717 438.139C834.677 438.151 834.639 438.172 834.607 438.2C834.575 438.228 834.55 438.262 834.532 438.301C834.495 438.397 834.495 438.504 834.532 438.601C834.588 438.813 834.627 439.03 834.648 439.249C834.648 439.503 834.648 439.387 834.786 440.266C834.786 440.497 834.786 440.682 834.902 441.029C835.018 441.376 834.902 441.838 834.902 441.908C834.902 441.977 834.717 441.908 834.671 441.908C834.625 441.908 834.463 441.561 834.301 441.561C834.139 441.561 833.908 441.561 833.769 441.561C833.574 441.659 833.418 441.823 833.33 442.023C833.258 442.142 833.221 442.278 833.221 442.416C833.221 442.555 833.258 442.691 833.33 442.809C833.404 442.893 833.498 442.956 833.603 442.992C833.708 443.029 833.821 443.037 833.931 443.017C834.093 443.017 834.231 442.809 834.278 442.856C834.324 442.902 834.278 442.856 834.278 442.856C834.263 443.035 834.207 443.209 834.116 443.364C833.974 443.564 833.783 443.723 833.561 443.827C833.214 444.035 833.006 444.173 832.752 444.104C832.577 444.078 832.415 443.997 832.289 443.873C832.289 443.619 832.289 443.41 832.151 443.087C832.012 442.763 832.151 442.971 832.035 442.971C831.919 442.971 831.85 443.341 831.804 443.549C831.717 443.82 831.717 444.111 831.804 444.382C831.888 444.615 832.052 444.811 832.266 444.936C832.511 445.1 832.808 445.166 833.099 445.121C833.405 445.095 833.696 444.974 833.931 444.775C834.261 444.559 834.512 444.243 834.648 443.873C834.648 443.503 834.648 443.179 834.879 443.017C835.11 442.856 834.879 443.017 835.018 443.017C835.156 443.017 835.018 443.41 835.018 443.549C834.97 443.897 834.843 444.229 834.648 444.52C834.472 444.815 834.226 445.062 833.931 445.237C833.65 445.402 833.331 445.489 833.006 445.491C832.821 445.515 832.634 445.496 832.457 445.435C832.281 445.375 832.121 445.276 831.989 445.145C831.891 445.022 831.82 444.88 831.781 444.728C831.804 444.431 831.74 444.134 831.596 443.873C831.596 443.873 831.411 444.428 831.411 444.474C831.354 444.749 831.354 445.032 831.411 445.306C831.489 445.586 831.66 445.831 831.896 446C832.208 446.188 832.579 446.254 832.937 446.185C833.351 446.168 833.759 446.074 834.139 445.908C834.405 445.768 834.653 445.597 834.879 445.399C835.138 445.151 835.343 444.852 835.48 444.52C835.518 444.298 835.518 444.072 835.48 443.85C835.48 443.41 835.48 442.856 835.48 442.809H835.642C835.732 442.838 835.829 442.838 835.919 442.809H836.104C836.266 442.809 836.266 442.694 836.336 442.671H836.59H837.006C837.122 442.673 837.236 442.641 837.335 442.579C837.433 442.518 837.512 442.429 837.561 442.324C837.561 442.046 837.561 441.769 837.561 441.561V441.399ZM834.093 442.462C834.093 442.462 833.908 442.462 833.815 442.462C833.8 442.447 833.788 442.429 833.779 442.41C833.771 442.39 833.767 442.368 833.767 442.347C833.767 442.325 833.771 442.304 833.779 442.284C833.788 442.264 833.8 442.246 833.815 442.231C833.85 442.208 833.89 442.196 833.931 442.196C833.972 442.196 834.012 442.208 834.047 442.231C834.066 442.283 834.066 442.341 834.047 442.393C834.047 442.393 834.139 442.416 834.093 442.462Z" fill="white"/>
<path d="M836.289 443.364C836.428 443.549 836.474 443.526 836.52 443.618C836.567 443.711 836.52 443.988 836.52 444.058H836.682C836.821 444.058 836.821 443.711 836.821 443.618C836.827 443.449 836.77 443.284 836.659 443.156C836.633 443.11 836.596 443.072 836.552 443.044C836.508 443.016 836.457 442.999 836.405 442.994C836.36 443 836.319 443.022 836.289 443.056C836.259 443.09 836.243 443.134 836.243 443.179C836.243 443.179 836.197 443.249 836.289 443.364Z" fill="white"/>
<path d="M843.433 445.121C843.433 445.121 843.433 444.867 843.433 444.821C843.433 444.775 843.272 444.821 843.179 444.821C843.087 444.821 842.855 444.983 842.879 445.121C842.902 445.26 842.879 445.121 843.064 445.26H843.202C843.202 445.26 843.202 445.399 843.202 445.514C843.212 445.55 843.23 445.583 843.254 445.611C843.278 445.639 843.308 445.661 843.341 445.676C843.341 445.676 843.526 445.676 843.665 445.676C843.803 445.676 844.243 445.676 844.289 445.468C844.317 445.432 844.332 445.387 844.332 445.341C844.332 445.295 844.317 445.25 844.289 445.214C844.289 445.214 844.012 445.214 843.78 445.214C843.549 445.214 843.549 445.214 843.503 445.214C843.457 445.214 843.41 445.26 843.433 445.121Z" fill="white"/>
<path d="M837.098 440.15C837.098 440.15 836.913 440.15 836.867 440.312C836.826 440.378 836.804 440.454 836.804 440.532C836.804 440.609 836.826 440.686 836.867 440.751C836.89 440.801 836.926 440.845 836.97 440.877C837.015 440.909 837.067 440.93 837.121 440.936C837.173 440.969 837.233 440.987 837.295 440.987C837.356 440.987 837.416 440.969 837.468 440.936C837.468 440.936 837.561 440.451 837.561 440.405H837.144C837.144 440.405 837.098 440.197 837.098 440.15Z" fill="white"/>
<path d="M840.89 441.26C840.89 441.26 840.751 441.26 840.705 441.26C840.68 441.298 840.667 441.342 840.667 441.387C840.667 441.433 840.68 441.477 840.705 441.514C840.723 441.58 840.755 441.642 840.798 441.695C840.841 441.747 840.895 441.791 840.956 441.821C841.018 441.852 841.084 441.869 841.153 441.872C841.221 441.875 841.289 441.863 841.353 441.838C841.447 441.772 841.512 441.673 841.537 441.561C841.537 441.422 841.537 441.214 841.537 441.168C841.505 441.141 841.464 441.127 841.422 441.127C841.38 441.127 841.339 441.141 841.306 441.168C841.306 441.168 841.306 441.168 841.306 441.006V441.145C841.306 441.145 840.959 441.306 840.89 441.26Z" fill="white"/>
<path d="M837.954 438.486C837.815 438.486 837.815 439.041 837.954 439.41C838.092 439.78 837.954 440.52 838.439 440.682C838.521 440.727 838.612 440.75 838.705 440.75C838.798 440.75 838.889 440.727 838.971 440.682C839.156 440.52 838.971 440.312 839.225 439.873C839.48 439.434 839.41 439.48 839.457 439.503C839.503 439.526 839.457 439.965 839.457 440.405C839.457 440.405 839.665 440.96 840.058 441.029C840.343 441.017 840.614 440.902 840.821 440.705C840.983 440.59 841.098 440.428 841.237 440.451C841.376 440.474 841.237 440.451 841.399 440.451C841.561 440.451 841.838 440.844 842.139 440.798C842.223 440.773 842.301 440.732 842.368 440.676C842.436 440.621 842.491 440.552 842.532 440.474C842.647 440.312 842.647 440.173 842.717 440.15C842.746 440.138 842.777 440.131 842.809 440.131C842.841 440.131 842.872 440.138 842.902 440.15C842.902 440.15 842.902 440.289 842.902 440.335C842.902 440.382 843.063 440.335 843.087 440.335C843.11 440.335 843.364 440.035 843.41 439.919C843.457 439.804 843.41 439.688 843.41 439.642C843.41 439.595 843.41 439.642 843.133 439.642C842.855 439.642 842.902 439.642 842.855 439.642C842.809 439.642 842.694 439.642 842.601 439.364C842.509 439.087 842.185 438.971 842.37 438.786C842.555 438.601 842.37 438.647 842.555 438.647C842.555 438.647 842.555 438.231 842.3 437.977C842.252 437.92 842.191 437.874 842.124 437.842C842.056 437.811 841.982 437.793 841.907 437.792C841.676 437.792 841.607 438.208 841.607 438.416C841.61 438.652 841.691 438.879 841.838 439.064C841.968 439.181 842.085 439.313 842.185 439.457C842.185 439.642 842.185 439.965 842.185 440.058C842.127 440.086 842.064 440.101 842 440.101C841.936 440.101 841.872 440.086 841.815 440.058C841.63 439.919 841.584 439.711 841.537 439.364C841.523 439.118 841.523 438.871 841.537 438.624C841.571 438.433 841.571 438.238 841.537 438.046C841.537 437.908 841.537 437.699 841.329 437.676C841.121 437.653 841.075 437.884 841.052 437.954C841.018 438.09 841.018 438.233 841.052 438.37C841.091 438.544 841.146 438.714 841.214 438.879C841.229 439.032 841.229 439.187 841.214 439.341C841.219 439.464 841.2 439.587 841.156 439.703C841.112 439.818 841.045 439.923 840.959 440.012C840.907 440.06 840.845 440.097 840.777 440.121C840.71 440.145 840.638 440.155 840.566 440.15C840.5 440.18 840.428 440.194 840.356 440.194C840.283 440.193 840.212 440.176 840.146 440.146C840.08 440.115 840.022 440.071 839.975 440.016C839.928 439.961 839.893 439.896 839.873 439.827C839.873 439.665 839.873 439.549 839.873 439.11C839.873 438.671 839.873 438.37 839.873 438.324C839.822 438.299 839.767 438.286 839.711 438.286C839.655 438.286 839.599 438.299 839.549 438.324C839.063 438.509 838.948 439.318 838.948 439.457V439.619C838.948 439.85 838.948 440.012 838.786 440.035C838.624 440.058 838.601 440.035 838.555 439.85C838.392 439.68 838.273 439.474 838.208 439.249C838.208 438.902 838.208 438.763 838.208 438.555C838.208 438.347 838 438.462 837.954 438.486Z" fill="white"/>
<path d="M838.717 437.653C838.555 437.653 838.462 437.954 838.439 437.977C838.413 438.091 838.413 438.21 838.439 438.324C838.423 438.36 838.414 438.4 838.414 438.439C838.414 438.479 838.423 438.519 838.439 438.555C838.439 438.555 838.647 438.555 838.717 438.555C838.786 438.555 838.717 438.416 838.717 438.37C838.717 438.324 838.717 438.37 838.555 438.37C838.393 438.37 838.555 438.208 838.555 438.185C838.555 438.162 838.555 438.046 838.694 437.931C838.694 437.931 838.74 437.653 838.717 437.653Z" fill="white"/>
<path d="M840.219 437.699C840.119 437.806 840.062 437.946 840.058 438.092C840.058 438.277 840.058 438.254 840.058 438.532C840.058 438.809 840.058 438.763 840.058 438.763H840.196C840.338 438.553 840.395 438.297 840.358 438.046C840.358 438.046 840.358 437.861 840.358 437.838C840.358 437.815 840.243 437.676 840.219 437.699Z" fill="white"/>
<path d="M846.462 443.133C846.262 442.643 846.006 442.177 845.699 441.746C845.422 441.306 845.168 440.867 844.89 440.451C844.613 440.035 844.89 439.595 844.774 439.364V439.11C844.774 439.11 844.52 438.647 844.173 438.139C844.173 438.139 844.035 437.954 843.965 437.954C843.896 437.954 843.78 438.208 843.78 438.37C843.756 438.5 843.756 438.633 843.78 438.763C843.78 438.624 843.549 438.439 843.526 438.393C843.382 438.236 843.228 438.089 843.063 437.954C842.786 437.746 842.717 437.746 842.694 437.769C842.67 437.792 842.694 437.884 842.555 438.023C842.498 438.204 842.498 438.397 842.555 438.578C842.55 438.632 842.55 438.686 842.555 438.74C843.084 439.353 843.571 440.002 844.011 440.682C844.497 442.116 844.497 444.058 844.497 444.566C844.497 445.075 844.497 445.191 844.497 445.237C844.497 445.283 844.798 444.983 844.867 444.844C845.05 444.504 845.107 444.112 845.029 443.734C845.029 443.734 845.029 442.717 844.867 441.653C845.029 441.907 845.144 442.162 845.26 442.37C845.554 443.034 845.91 443.669 846.324 444.266C846.578 444.312 846.624 443.595 846.462 443.133ZM843.803 438.855C843.803 438.855 843.988 438.855 844.035 438.855C844.04 438.94 844.04 439.025 844.035 439.11C844.05 439.24 844.05 439.372 844.035 439.503L843.803 438.855Z" fill="white"/>
<path d="M845.167 438.162C845.167 438.301 845.283 438.347 845.422 438.601C845.439 438.716 845.439 438.833 845.422 438.948C845.422 439.179 845.422 439.318 845.422 439.318C845.422 439.318 845.584 439.179 845.653 438.994C845.708 438.867 845.737 438.729 845.737 438.59C845.737 438.45 845.708 438.313 845.653 438.185C845.653 438.185 845.468 437.908 845.306 437.931C845.267 437.956 845.234 437.99 845.209 438.03C845.185 438.07 845.171 438.115 845.167 438.162Z" fill="white"/>
<path d="M845.375 439.965C845.375 439.965 845.375 439.965 845.375 439.826C845.375 439.688 845.375 439.826 845.214 439.965C845.179 440.021 845.16 440.085 845.16 440.15C845.16 440.216 845.179 440.28 845.214 440.335C845.273 440.388 845.342 440.428 845.418 440.452C845.494 440.476 845.574 440.484 845.653 440.474C845.653 440.474 845.907 440.474 846 440.266C846.092 440.058 846 439.988 846 439.896C846 439.803 846 439.896 846 439.896C846 439.896 846 440.035 846 440.058C846 440.058 845.884 440.058 845.861 440.058C845.838 440.058 845.861 440.058 845.861 440.058C845.861 440.058 845.399 439.988 845.375 439.965Z" fill="white"/>
<path d="M849.121 440.52C849.121 440.52 849.121 440.52 848.983 440.358C848.943 440.328 848.894 440.312 848.844 440.312C848.794 440.312 848.745 440.328 848.705 440.358C848.705 440.358 848.705 440.566 848.705 440.613C848.705 440.659 848.705 440.821 849.144 441.168C849.584 441.514 849.514 441.445 849.561 441.422C849.607 441.399 849.561 441.422 849.561 441.214C849.561 441.006 849.561 440.775 849.561 440.682C849.561 440.59 849.699 440.682 849.769 440.543C849.783 440.49 849.783 440.434 849.769 440.381C849.789 440.301 849.781 440.217 849.748 440.142C849.714 440.066 849.657 440.004 849.584 439.965C849.537 439.931 849.48 439.913 849.422 439.913C849.364 439.913 849.307 439.931 849.26 439.965C849.26 440.104 849.26 440.335 849.26 440.405H849.121V440.52Z" fill="white"/>
<path d="M851.688 445.445C851.688 445.445 851.688 445.445 851.688 445.26C851.688 445.075 851.526 445.075 851.364 445.075C851.202 445.075 851.133 445.075 851.133 445.237C851.133 445.399 851.341 445.237 851.364 445.468C851.376 445.522 851.376 445.577 851.364 445.63C851.364 445.815 851.11 445.815 851.11 445.931C851.11 446.046 851.11 446.069 851.11 446.093C851.11 446.116 851.295 446.093 851.595 445.884C851.896 445.676 851.827 445.884 851.85 445.746C851.866 445.718 851.875 445.686 851.875 445.653C851.875 445.621 851.866 445.589 851.85 445.561C851.85 445.561 851.642 445.561 851.595 445.561L851.688 445.445Z" fill="white"/>
<path d="M848.405 443.041C848.405 443.041 848.405 442.347 848.104 440.728C848.104 440.266 847.942 439.78 847.896 439.295H848.035C848.035 439.295 848.197 439.295 848.243 439.295C848.289 439.295 848.243 439.11 848.243 439.064C848.243 439.017 848.127 438.856 848.081 438.74L847.804 438.254C847.804 438.254 847.688 437.908 847.572 437.931C847.457 437.954 847.387 438.416 847.364 438.74C847.303 439.138 847.303 439.544 847.364 439.942C847.673 441.281 847.874 442.641 847.965 444.012C847.965 444.382 847.965 444.89 847.965 444.937C847.965 444.983 848.22 444.682 848.312 444.474C848.495 444.018 848.527 443.516 848.405 443.041Z" fill="white"/>
<path d="M846.416 437.954C846.279 438.169 846.199 438.416 846.185 438.671C846.185 439.041 846.185 439.11 846.324 439.665C846.311 439.765 846.311 439.866 846.324 439.965C846.324 441.723 846.555 442.463 846.601 443.156C846.634 443.518 846.634 443.881 846.601 444.243C846.558 444.415 846.461 444.569 846.324 444.682C845.903 445.082 845.438 445.431 844.936 445.723C844.936 445.723 844.774 445.723 844.751 445.723C844.728 445.723 844.751 445.908 844.959 445.954C845.09 446.014 845.232 446.045 845.376 446.045C845.519 446.045 845.661 446.014 845.792 445.954C846.237 445.752 846.597 445.4 846.809 444.96C846.981 444.618 847.098 444.251 847.156 443.873C847.221 442.691 847.104 441.505 846.809 440.359C846.809 440.359 846.601 439.249 846.809 439.249C846.809 439.249 846.809 439.11 846.809 439.087C846.853 438.952 846.853 438.806 846.809 438.671C846.555 438.208 846.509 437.885 846.416 437.908C846.324 437.931 846.416 437.931 846.416 437.954Z" fill="white"/>
<path d="M850.231 442.116C850.37 441.977 850.37 441.515 850.231 441.561C850.093 441.607 849.26 442.185 849.145 442.301C849.029 442.416 848.96 442.463 848.96 442.578C848.947 442.678 848.947 442.779 848.96 442.879C849.404 442.661 849.83 442.405 850.231 442.116Z" fill="white"/>
<path d="M849.907 442.462C849.907 442.462 849.907 442.902 849.907 442.994C849.927 443.225 849.927 443.457 849.907 443.688C849.907 443.688 849.907 443.965 850.046 443.873C850.181 443.715 850.269 443.523 850.3 443.318C850.244 443.025 850.159 442.738 850.046 442.462C850.046 442.462 849.977 442.416 849.907 442.462Z" fill="white"/>
<path d="M852.497 439.249C852.497 439.249 852.497 439.48 852.497 439.642C852.497 439.804 852.497 440.035 852.497 440.035C852.497 440.035 852.682 439.827 852.728 439.595C852.79 439.384 852.79 439.159 852.728 438.948C852.728 438.786 852.728 438.647 852.497 438.601C852.461 438.583 852.421 438.573 852.381 438.573C852.341 438.573 852.301 438.583 852.266 438.601C852.266 438.601 852.266 438.856 852.266 438.925C852.311 439.052 852.391 439.165 852.497 439.249Z" fill="white"/>
<path d="M852.035 444.728C852.197 444.52 852.312 444.474 852.358 444.22C852.382 443.896 852.382 443.572 852.358 443.249C852.59 443.619 852.821 443.988 852.983 444.312L853.26 444.682C853.393 444.316 853.393 443.915 853.26 443.549C853 443.082 852.706 442.634 852.382 442.208C852.367 441.626 852.305 441.046 852.197 440.474C851.965 439.457 851.942 439.318 852.197 439.318C852.451 439.318 851.965 438.301 851.827 438.046C851.803 438.017 851.773 437.994 851.739 437.978C851.705 437.962 851.668 437.953 851.63 437.953C851.593 437.953 851.555 437.962 851.521 437.978C851.488 437.994 851.458 438.017 851.434 438.046C851.377 438.087 851.335 438.145 851.314 438.212C851.294 438.279 851.295 438.35 851.318 438.416C851.318 438.971 851.503 439.549 851.572 440.127C851.642 440.705 851.688 440.913 851.734 441.306L851.087 440.428C851.087 439.803 851.087 439.364 851.087 439.341C851.087 439.318 851.249 439.341 851.249 439.202C851.189 438.966 851.078 438.745 850.925 438.555C850.624 438.254 850.694 437.954 850.578 437.977C850.463 438 850.37 438.162 850.37 438.231C850.37 438.301 850.37 438.994 850.37 439.434C850.256 439.289 850.155 439.134 850.069 438.971C850.069 438.856 850.069 438.856 850.069 438.856C850.091 438.868 850.114 438.874 850.139 438.874C850.163 438.874 850.187 438.868 850.208 438.856C850.208 438.856 849.168 437.653 849.26 438.046C849.26 438.046 849.006 438.786 849.26 439.179L850.324 440.59C850.318 440.713 850.318 440.836 850.324 440.96C850.48 442.031 850.527 443.116 850.463 444.197C850.463 444.335 850.324 444.636 850.139 444.659C849.954 444.682 849.861 444.659 849.769 444.428C849.676 444.197 849.491 443.965 849.33 443.896C849.263 443.872 849.192 443.865 849.122 443.873C849.122 443.873 848.89 444.081 848.728 444.566C848.567 445.052 848.543 445.237 848.382 445.376C848.27 445.418 848.146 445.418 848.035 445.376C847.734 445.376 847.642 444.728 847.595 444.566C847.561 444.344 847.561 444.118 847.595 443.896C847.48 444.154 847.42 444.434 847.42 444.717C847.42 445 847.48 445.279 847.595 445.538C847.804 445.884 848.22 446.185 848.451 446.093C848.682 446 848.821 445.63 848.937 444.983C848.956 444.89 849.005 444.807 849.076 444.744C849.146 444.682 849.236 444.644 849.33 444.636C849.653 444.636 849.746 445.145 850.139 445.237C850.303 445.257 850.469 445.235 850.622 445.175C850.775 445.114 850.911 445.016 851.017 444.89C851.202 444.705 851.318 444.289 851.133 442.347C851.133 442.023 851.133 441.676 851.133 441.33L851.78 442.277C851.78 443.156 851.827 444.012 851.919 444.844C851.919 444.844 851.873 444.96 852.035 444.728Z" fill="white"/>
<path d="M853.746 439.249C853.746 439.249 854.139 439.249 854.092 439.249C854.046 439.249 853.468 438 853.214 438.046C852.96 438.093 853.029 438.347 853.029 438.486C853.029 438.624 853.029 439.341 853.168 439.85C853.392 441.475 853.531 443.111 853.584 444.752C853.463 445.047 853.272 445.308 853.029 445.515C852.844 445.699 852.035 446.023 852.035 446.231C852.035 446.439 852.451 446.439 852.867 446.231C853.135 446.171 853.38 446.037 853.576 445.845C853.772 445.653 853.911 445.411 853.977 445.145C854.085 443.991 854.085 442.83 853.977 441.676C853.847 440.873 853.77 440.062 853.746 439.249Z" fill="white"/>
<path d="M844.359 443.063C844.359 443.063 844.151 443.063 844.081 443.063C843.366 443.129 842.646 443.129 841.931 443.063C841.931 443.063 842.093 443.063 842.324 443.063C842.64 443 842.934 442.856 843.18 442.647C843.3 442.561 843.402 442.451 843.477 442.324C843.553 442.196 843.601 442.055 843.619 441.907C843.637 441.75 843.607 441.59 843.533 441.45C843.458 441.31 843.343 441.195 843.203 441.121C843.085 441.059 842.954 441.026 842.821 441.026C842.688 441.026 842.557 441.059 842.44 441.121C842.33 441.209 842.239 441.317 842.172 441.44C842.104 441.563 842.062 441.699 842.047 441.838C842.047 442.162 842.047 442.208 842.047 442.347C842.047 442.485 841.399 442.347 840.844 442.624C840.573 442.755 840.348 442.965 840.197 443.225C840.197 443.087 840.197 442.925 840.197 442.74C839.873 441.561 839.734 441.26 839.549 441.075C839.365 440.89 839.318 440.821 839.18 440.844C839.041 440.867 839.041 441.26 839.041 441.352C839.057 441.701 839.152 442.04 839.318 442.347C839.441 442.634 839.519 442.938 839.549 443.248C839.547 443.652 839.427 444.046 839.203 444.381C838.97 444.741 838.642 445.03 838.255 445.214C838.151 445.268 838.036 445.297 837.919 445.297C837.803 445.297 837.687 445.268 837.584 445.214C837.528 445.178 837.481 445.13 837.445 445.075C837.409 445.019 837.385 444.956 837.376 444.89C837.653 444.721 837.909 444.519 838.139 444.289C838.5 443.992 838.739 443.572 838.81 443.11C838.874 442.759 838.809 442.397 838.625 442.092C838.625 442.092 838.625 442.092 838.625 441.954C838.625 441.815 838.763 441.954 838.81 441.954C838.856 441.954 838.81 441.676 838.671 441.514C838.627 441.428 838.565 441.353 838.489 441.293C838.413 441.233 838.325 441.19 838.232 441.168C838.155 441.164 838.078 441.177 838.006 441.205C837.935 441.233 837.87 441.275 837.815 441.329C837.677 441.561 837.815 441.884 837.815 441.931C837.815 441.977 838 442.069 838.116 442.254C838.22 442.404 838.276 442.581 838.278 442.763C838.308 442.916 838.308 443.073 838.278 443.225C838.066 443.637 837.736 443.975 837.33 444.196C837.345 443.95 837.345 443.703 837.33 443.457C837.33 443.457 837.052 443.826 836.937 444.266C836.928 444.343 836.928 444.42 836.937 444.497C836.497 444.751 836.497 444.728 836.104 444.983C835.711 445.237 834.763 445.815 834.833 445.954C834.902 446.092 836.266 445.537 836.336 445.514L836.867 445.283C836.894 445.399 836.941 445.508 837.006 445.607C837.105 445.768 837.24 445.904 837.401 446.004C837.561 446.105 837.743 446.166 837.931 446.185C838.271 446.141 838.588 445.987 838.833 445.746C839.284 445.448 839.644 445.032 839.873 444.543C839.845 444.649 839.845 444.761 839.873 444.867C839.948 445.016 840.059 445.143 840.197 445.237C840.468 445.466 840.772 445.653 841.099 445.792C841.307 445.792 841.723 446.023 841.931 445.792C842.032 445.77 842.122 445.712 842.185 445.63C842.202 445.546 842.202 445.46 842.185 445.376C842.185 445.214 841.931 445.26 841.769 445.052C841.717 445.012 841.677 444.958 841.653 444.897C841.628 444.836 841.621 444.77 841.63 444.705C841.63 444.566 841.815 444.497 842.047 444.428C842.503 444.312 842.966 444.227 843.434 444.173C843.734 444.173 843.919 444.173 843.989 443.942C844.058 443.711 843.989 443.734 843.989 443.549C844.042 443.405 844.12 443.272 844.22 443.156C844.22 443.156 844.497 443.087 844.359 443.063ZM842.532 441.561C842.532 441.561 842.671 441.561 842.763 441.561C842.856 441.561 842.763 441.561 842.902 441.792C843.041 442.023 842.902 441.792 842.902 441.792C842.902 441.792 842.763 441.792 842.694 441.792C842.625 441.792 842.486 441.746 842.532 441.561ZM841.145 444.173C841.145 444.358 841.145 444.52 841.145 444.589C841.145 444.659 841.006 444.589 840.937 444.589C840.793 444.541 840.666 444.452 840.572 444.333C840.477 444.214 840.419 444.07 840.405 443.919C840.405 443.919 840.405 443.572 840.405 443.48C840.405 443.387 840.59 443.48 840.844 443.48C841.099 443.48 841.376 443.364 841.538 443.48C841.565 443.546 841.565 443.621 841.538 443.688C841.63 444.058 841.26 444.035 841.145 444.266V444.173Z" fill="white"/>
</g>
<circle cx="799" cy="427" r="20" fill="white"/>
<g clip-path="url(#clip3)">
<path d="M814.076 432.326C812.968 435.441 810.924 438.138 808.222 440.045C805.521 441.952 802.295 442.976 798.988 442.976C795.681 442.976 792.456 441.952 789.754 440.045C787.053 438.138 785.008 435.441 783.901 432.326H814.076Z" fill="#00793D"/>
<path d="M815 426.988C815.003 428.808 814.691 430.613 814.076 432.326H783.901C783.303 430.61 782.998 428.805 783 426.988C782.999 425.169 783.311 423.364 783.924 421.651H814.076C814.689 423.364 815.001 425.169 815 426.988Z" fill="white"/>
<path d="M814.075 421.651H783.924C784.529 419.907 785.445 418.287 786.627 416.868C788.422 414.673 790.768 412.995 793.426 412.006C796.083 411.016 798.956 410.751 801.749 411.238C804.542 411.725 807.156 412.946 809.322 414.776C811.488 416.605 813.129 418.978 814.075 421.651Z" fill="black"/>
<path d="M806.867 426.988L796.216 432.325L786.627 437.131C785.446 435.7 784.524 434.074 783.901 432.325C783.303 430.61 782.998 428.805 783 426.988C782.999 425.169 783.311 423.364 783.924 421.651C784.53 419.907 785.446 418.287 786.627 416.868L796.216 421.651L806.867 426.988Z" fill="#CD1225"/>
<path d="M791.11 424.77L791.618 426.064L792.935 425.648L792.242 426.85L793.374 427.635L792.011 427.843L792.126 429.206L791.11 428.282L790.093 429.206L790.185 427.843L788.822 427.635L789.978 426.85L789.284 425.648L790.601 426.064L791.11 424.77Z" fill="white"/>
</g>
<circle cx="646" cy="369" r="20" fill="white"/>
<path d="M630 369.046C630.005 372.361 631.032 375.594 632.94 378.3C634.848 381.007 637.544 383.056 640.659 384.165V353.928C637.544 355.037 634.848 357.086 632.94 359.793C631.032 362.499 630.005 365.732 630 369.046V369.046Z" fill="#062493"/>
<path d="M662 369.046C661.995 365.732 660.968 362.499 659.06 359.793C657.152 357.086 654.455 355.037 651.341 353.928V384.073C654.441 382.968 657.126 380.934 659.033 378.245C660.94 375.557 661.976 372.345 662 369.046Z" fill="#EC2938"/>
<path d="M646 353C644.18 352.997 642.373 353.311 640.659 353.928V384.072C644.113 385.309 647.887 385.309 651.341 384.072V353.928C649.627 353.312 647.821 352.999 646 353Z" fill="white"/>
<circle cx="687" cy="362" r="20" fill="white"/>
<path d="M687 346C680.067 346 674.134 350.467 671.934 356.667H702.134C699.867 350.467 693.934 346 687 346Z" fill="black"/>
<path d="M703 362C703 360.133 702.667 358.333 702.067 356.667H671.933C671.333 358.333 671 360.133 671 362C671 363.867 671.333 365.667 671.933 367.333H702.133C702.667 365.667 703 363.867 703 362Z" fill="#DC0201"/>
<path d="M671.934 367.333C674.134 373.533 680.067 378 687 378C693.934 378 699.867 373.533 702.067 367.333H671.934Z" fill="#FECD17"/>
<path d="M672 367C674.2 373.2 680.133 377.667 687.067 377.667C694 377.667 699.933 373.2 702.133 367H672Z" fill="#FECD17"/>
</g>
<defs>
<clipPath id="clip0">
<rect width="1440" height="840" fill="white"/>
</clipPath>
<clipPath id="clip1">
<rect width="32" height="32" fill="white" transform="translate(711 361)"/>
</clipPath>
<clipPath id="clip2">
<rect width="32" height="32" fill="white" transform="translate(826 430)"/>
</clipPath>
<clipPath id="clip3">
<rect width="32" height="32" fill="white" transform="translate(783 411)"/>
</clipPath>
</defs>
</svg>
