<svg width="1440" height="448" viewBox="0 0 1440 448" fill="none" xmlns="http://www.w3.org/2000/svg">
<path d="M0 0H1440V451H0V0Z" fill="#EB7700"/>
<path d="M317.311 460.632C347.598 419.521 321.822 350.365 259.637 305.749L246.105 296.825C211.221 275.601 182.16 246.205 161.487 211.235C140.815 176.265 129.168 136.797 127.576 96.3185C125.983 55.84 134.494 15.5966 152.357 -20.8565C170.22 -57.3096 196.884 -88.8502 229.995 -112.692C245.856 -124.15 263.057 -133.673 281.225 -141.055C252.399 -129.695 225.122 -114.814 200.03 -96.7574C124.734 -42.6859 72.2286 36.9394 52.5536 126.894C32.8787 216.848 47.4148 310.819 93.3825 390.839C97.4522 398.697 102.082 406.258 107.237 413.466C107.33 414.1 107.33 414.744 107.237 415.378H108.848C120.85 430.353 134.954 443.552 150.734 454.577C212.596 498.875 287.346 501.744 317.311 460.632Z" fill="white" fill-opacity="0.1"/>
<path d="M1502.09 527.023C1537.67 478.661 1507.39 397.307 1434.34 344.821L1418.44 334.324C1377.46 309.356 1343.31 274.775 1319.03 233.637C1294.74 192.499 1281.06 146.07 1279.19 98.4522C1277.32 50.8341 1287.32 3.49265 1308.3 -39.39C1329.29 -82.2725 1360.61 -119.376 1399.51 -147.423C1418.15 -160.902 1438.35 -172.105 1459.7 -180.789C1425.83 -167.426 1393.79 -149.919 1364.31 -128.678C1275.85 -65.0696 1214.16 28.5999 1191.05 134.42C1167.93 240.24 1185.01 350.786 1239.02 444.92C1243.8 454.164 1249.24 463.059 1255.29 471.538C1255.4 472.284 1255.4 473.041 1255.29 473.787H1257.19C1271.29 491.402 1287.86 506.931 1306.39 519.9C1379.07 572.011 1466.89 575.385 1502.09 527.023Z" fill="white" fill-opacity="0.1"/>
<path d="M1576.09 357.161C1611.67 308.798 1581.39 227.445 1508.34 174.959L1492.44 164.462C1451.46 139.493 1417.31 104.912 1393.03 63.7744C1368.74 22.6365 1355.06 -23.7923 1353.19 -71.4104C1351.32 -119.028 1361.32 -166.37 1382.3 -209.253C1403.29 -252.135 1434.61 -289.239 1473.51 -317.286C1492.15 -330.764 1512.35 -341.967 1533.7 -350.652C1499.83 -337.288 1467.79 -319.782 1438.31 -298.541C1349.85 -234.932 1288.16 -141.263 1265.05 -35.4425C1241.93 70.3777 1259.01 180.923 1313.02 275.057C1317.8 284.301 1323.24 293.196 1329.29 301.675C1329.4 302.421 1329.4 303.179 1329.29 303.925H1331.19C1345.29 321.54 1361.86 337.068 1380.39 350.037C1453.07 402.149 1540.89 405.523 1576.09 357.161Z" fill="white" fill-opacity="0.1"/>
<path d="M873.542 -28.3761C848.499 26.1155 894.661 99.74 976.864 136.529L994.566 143.629C1039.77 159.883 1080.23 186.922 1112.36 222.356C1144.49 257.789 1167.31 300.528 1178.8 346.795C1190.29 393.062 1190.1 441.434 1178.24 487.637C1166.39 533.84 1143.23 576.452 1110.81 611.709C1095.3 628.641 1077.77 643.658 1058.63 656.437C1089.09 636.569 1116.93 613.009 1141.49 586.303C1215.24 506.295 1256.66 402.201 1257.84 293.925C1259.01 185.649 1219.87 80.7877 1147.88 -0.607714C1141.32 -8.70501 1134.19 -16.3291 1126.53 -23.4222C1126.28 -24.1311 1126.12 -24.8731 1126.08 -25.6255L1124.22 -25.2467C1106.84 -39.679 1087.46 -51.5722 1066.67 -60.5655C984.916 -97.0627 898.214 -82.792 873.542 -28.3761Z" fill="white" fill-opacity="0.1"/>
<path d="M340.092 278.686C375.674 230.324 345.392 148.97 272.336 96.4841L256.438 85.9869C215.456 61.0184 181.314 26.4377 157.027 -14.7002C132.741 -55.8381 119.058 -102.267 117.187 -149.885C115.316 -197.503 125.315 -244.845 146.301 -287.727C167.286 -330.61 198.612 -367.713 237.512 -395.76C256.146 -409.239 276.354 -420.442 297.697 -429.126C263.832 -415.763 231.787 -398.257 202.308 -377.015C113.848 -313.407 52.1636 -219.737 29.049 -113.917C5.93442 -8.09695 23.0118 102.449 77.0158 196.583C81.797 205.826 87.2363 214.721 93.2925 223.201C93.4012 223.946 93.4012 224.704 93.2925 225.45H95.1851C109.285 243.065 125.856 258.593 144.394 271.563C217.071 323.674 304.889 327.048 340.092 278.686Z" fill="white" fill-opacity="0.1"/>
</svg>
