<svg width="1440" height="180" viewBox="0 0 1440 180" fill="none" xmlns="http://www.w3.org/2000/svg">
<rect width="1440" height="178" fill="#EB7700"/>
<path opacity="0.1" d="M318.491 110.28C316.891 107.96 314.731 106.28 312.011 105.24C309.371 104.12 306.571 103.56 303.611 103.56C301.851 103.56 300.131 103.76 298.451 104.16C296.851 104.56 295.371 105.2 294.011 106.08C292.731 106.96 291.691 108.12 290.891 109.56C290.091 110.92 289.691 112.56 289.691 114.48C289.691 117.36 290.691 119.56 292.691 121.08C294.691 122.6 297.171 123.92 300.131 125.04C303.091 126.16 306.331 127.24 309.851 128.28C313.371 129.32 316.611 130.76 319.571 132.6C322.531 134.44 325.011 136.88 327.011 139.92C329.011 142.96 330.011 147 330.011 152.04C330.011 156.6 329.171 160.6 327.491 164.04C325.811 167.4 323.531 170.2 320.651 172.44C317.851 174.68 314.571 176.36 310.811 177.48C307.051 178.6 303.091 179.16 298.931 179.16C293.651 179.16 288.571 178.28 283.691 176.52C278.811 174.76 274.611 171.8 271.091 167.64L282.491 156.6C284.331 159.4 286.731 161.6 289.691 163.2C292.731 164.72 295.931 165.48 299.291 165.48C301.051 165.48 302.811 165.24 304.571 164.76C306.331 164.28 307.931 163.56 309.371 162.6C310.811 161.64 311.971 160.44 312.851 159C313.731 157.48 314.171 155.76 314.171 153.84C314.171 150.72 313.171 148.32 311.171 146.64C309.171 144.96 306.691 143.56 303.731 142.44C300.771 141.24 297.531 140.12 294.011 139.08C290.491 138.04 287.251 136.64 284.291 134.88C281.331 133.04 278.851 130.64 276.851 127.68C274.851 124.64 273.851 120.6 273.851 115.56C273.851 111.16 274.731 107.36 276.491 104.16C278.331 100.96 280.691 98.32 283.571 96.24C286.531 94.08 289.891 92.48 293.651 91.44C297.411 90.4 301.251 89.88 305.171 89.88C309.651 89.88 313.971 90.56 318.131 91.92C322.371 93.28 326.171 95.52 329.531 98.64L318.491 110.28ZM341.197 134.88C341.197 128.08 342.317 121.92 344.557 116.4C346.797 110.8 349.877 106.04 353.797 102.12C357.797 98.2 362.517 95.2 367.957 93.12C373.477 90.96 379.517 89.88 386.077 89.88C392.717 89.8 398.797 90.8 404.317 92.88C409.837 94.88 414.597 97.84 418.597 101.76C422.597 105.68 425.717 110.4 427.957 115.92C430.197 121.44 431.317 127.6 431.317 134.4C431.317 141.04 430.197 147.08 427.957 152.52C425.717 157.96 422.597 162.64 418.597 166.56C414.597 170.48 409.837 173.56 404.317 175.8C398.797 177.96 392.717 179.08 386.077 179.16C379.517 179.16 373.477 178.12 367.957 176.04C362.517 173.88 357.797 170.88 353.797 167.04C349.877 163.12 346.797 158.44 344.557 153C342.317 147.56 341.197 141.52 341.197 134.88ZM357.037 133.92C357.037 138.48 357.717 142.68 359.077 146.52C360.517 150.36 362.517 153.68 365.077 156.48C367.637 159.28 370.677 161.48 374.197 163.08C377.797 164.68 381.797 165.48 386.197 165.48C390.597 165.48 394.597 164.68 398.197 163.08C401.797 161.48 404.877 159.28 407.437 156.48C409.997 153.68 411.957 150.36 413.317 146.52C414.757 142.68 415.477 138.48 415.477 133.92C415.477 129.68 414.757 125.72 413.317 122.04C411.957 118.36 409.997 115.16 407.437 112.44C404.877 109.64 401.797 107.48 398.197 105.96C394.597 104.36 390.597 103.56 386.197 103.56C381.797 103.56 377.797 104.36 374.197 105.96C370.677 107.48 367.637 109.64 365.077 112.44C362.517 115.16 360.517 118.36 359.077 122.04C357.717 125.72 357.037 129.68 357.037 133.92ZM504.038 111.96C500.918 108.6 497.878 106.36 494.918 105.24C492.038 104.12 489.118 103.56 486.158 103.56C481.758 103.56 477.758 104.36 474.158 105.96C470.638 107.48 467.598 109.64 465.038 112.44C462.478 115.16 460.478 118.36 459.038 122.04C457.678 125.72 456.998 129.68 456.998 133.92C456.998 138.48 457.678 142.68 459.038 146.52C460.478 150.36 462.478 153.68 465.038 156.48C467.598 159.28 470.638 161.48 474.158 163.08C477.758 164.68 481.758 165.48 486.158 165.48C489.598 165.48 492.918 164.68 496.118 163.08C499.398 161.4 502.438 158.76 505.238 155.16L517.718 164.04C513.878 169.32 509.198 173.16 503.678 175.56C498.158 177.96 492.278 179.16 486.038 179.16C479.478 179.16 473.438 178.12 467.918 176.04C462.478 173.88 457.758 170.88 453.758 167.04C449.838 163.12 446.758 158.44 444.518 153C442.278 147.56 441.158 141.52 441.158 134.88C441.158 128.08 442.278 121.92 444.518 116.4C446.758 110.8 449.838 106.04 453.758 102.12C457.758 98.2 462.478 95.2 467.918 93.12C473.438 90.96 479.478 89.88 486.038 89.88C491.798 89.88 497.118 90.92 501.998 93C506.958 95 511.558 98.44 515.798 103.32L504.038 111.96ZM527.507 92.04H542.627V177H527.507V92.04ZM588.745 92.04H601.825L638.425 177H621.145L613.225 157.56H576.385L568.705 177H551.785L588.745 92.04ZM607.945 144.6L594.865 110.04L581.545 144.6H607.945ZM647.867 92.04H662.987V163.32H699.107V177H647.867V92.04ZM745.961 92.04H769.001L791.681 151.56L814.601 92.04H837.401V177H823.001V106.44H822.761L796.961 177H786.401L760.601 106.44H760.361V177H745.961V92.04ZM856.695 92.04H912.975V105.72H871.815V126.6H910.815V140.28H871.815V163.32H915.135V177H856.695V92.04ZM930.054 92.04H963.534C969.134 92.04 974.534 92.92 979.734 94.68C984.934 96.36 989.534 98.96 993.534 102.48C997.534 106 1000.73 110.44 1003.13 115.8C1005.53 121.08 1006.73 127.32 1006.73 134.52C1006.73 141.8 1005.33 148.12 1002.53 153.48C999.814 158.76 996.254 163.16 991.854 166.68C987.534 170.12 982.694 172.72 977.334 174.48C972.054 176.16 966.854 177 961.734 177H930.054V92.04ZM956.454 163.32C961.174 163.32 965.614 162.8 969.774 161.76C974.014 160.64 977.694 158.96 980.814 156.72C983.934 154.4 986.374 151.44 988.134 147.84C989.974 144.16 990.894 139.72 990.894 134.52C990.894 129.4 990.094 125 988.494 121.32C986.894 117.64 984.654 114.68 981.774 112.44C978.974 110.12 975.614 108.44 971.694 107.4C967.854 106.28 963.614 105.72 958.974 105.72H945.174V163.32H956.454ZM1020.75 92.04H1035.87V177H1020.75V92.04ZM1081.99 92.04H1095.07L1131.67 177H1114.39L1106.47 157.56H1069.63L1061.95 177H1045.03L1081.99 92.04ZM1101.19 144.6L1088.11 110.04L1074.79 144.6H1101.19Z" fill="white"/>
</svg>
