<svg width="1440" height="840" viewBox="0 0 1440 840" fill="none" xmlns="http://www.w3.org/2000/svg">
<g clip-path="url(#clip0)">
<rect y="9.15527e-05" width="1445" height="840" fill="#008440" fill-opacity="0.4"/>
<path d="M71.7597 -97.5958C-62.0933 -38.6382 -97.6179 170.027 -7.93824 369.658L12.7053 411.147C68.4707 513.68 98.1211 628.214 99.0372 744.629C99.9533 861.045 72.1068 975.759 17.9578 1078.64C-36.1912 1181.52 -114.976 1269.39 -211.436 1334.5C-307.896 1399.61 -419.063 1439.95 -535.115 1451.96C-590.761 1457.8 -646.942 1456.92 -702.441 1449.35C-614.889 1462.25 -526.115 1464.19 -438.185 1455.12C-174.483 1428.18 69.5543 1305.2 247.266 1109.71C424.977 914.209 523.892 659.908 525.098 395.427C526.315 370.089 525.721 344.689 523.322 319.418C524.004 317.71 524.928 316.109 526.066 314.665L522.084 312.366C513.907 258.022 497.985 205.087 474.803 155.167C385.462 -43.212 204.816 -157.013 71.7597 -97.5958Z" fill="white" fill-opacity="0.1"/>
<path d="M1633.16 800.773C1675.73 742.506 1639.5 644.492 1552.1 581.256L1533.08 568.609C1484.04 538.527 1443.2 496.864 1414.14 447.301C1385.08 397.738 1368.71 341.801 1366.47 284.43C1364.23 227.06 1376.2 170.023 1401.31 118.358C1426.41 66.6931 1463.89 21.9905 1510.43 -11.8005C1532.73 -28.0394 1556.9 -41.5367 1582.44 -52.0001C1541.92 -35.8995 1503.58 -14.8079 1468.31 10.7836C1362.48 87.4192 1288.68 200.272 1261.02 327.765C1233.37 455.257 1253.8 588.442 1318.41 701.855C1324.13 712.992 1330.64 723.709 1337.88 733.924C1338.01 734.823 1338.01 735.736 1337.88 736.635H1340.15C1357.02 757.857 1376.84 776.566 1399.02 792.191C1485.98 854.975 1591.05 859.04 1633.16 800.773Z" fill="white" fill-opacity="0.1"/>
<path d="M1711.16 555.773C1753.73 497.506 1717.5 399.491 1630.1 336.256L1611.08 323.609C1562.04 293.527 1521.2 251.864 1492.14 202.301C1463.08 152.738 1446.71 96.8003 1444.47 39.43C1442.23 -17.9403 1454.2 -74.9774 1479.31 -126.642C1504.41 -178.307 1541.89 -223.01 1588.43 -256.801C1610.73 -273.04 1634.9 -286.537 1660.44 -297C1619.92 -280.9 1581.58 -259.808 1546.31 -234.217C1440.48 -157.581 1366.68 -44.7281 1339.02 82.7642C1311.37 210.256 1331.8 343.442 1396.41 456.855C1402.13 467.992 1408.64 478.708 1415.88 488.924C1416.01 489.823 1416.01 490.735 1415.88 491.634H1418.15C1435.02 512.857 1454.84 531.565 1477.02 547.191C1563.98 609.974 1669.05 614.04 1711.16 555.773Z" fill="white" fill-opacity="0.1"/>
<path d="M417.861 826.812C470.704 754.467 425.731 632.771 317.235 554.257L293.624 538.555C232.761 501.204 182.055 449.475 145.987 387.937C109.919 326.399 89.5979 256.947 86.8196 185.715C84.0413 114.484 98.8911 43.6657 130.057 -20.4821C161.223 -84.6299 207.746 -140.133 265.516 -182.088C293.19 -202.251 323.201 -219.009 354.899 -232.001C304.605 -212.01 257.014 -185.822 213.235 -154.048C81.8614 -58.8961 -9.7477 81.2235 -44.0756 239.519C-78.4036 397.815 -53.0416 563.18 27.1608 703.994C34.2615 717.822 42.3395 731.128 51.3336 743.812C51.495 744.928 51.495 746.061 51.3336 747.177H54.1444C75.0844 773.527 99.6936 796.756 127.225 816.156C235.159 894.109 365.58 899.157 417.861 826.812Z" fill="white" fill-opacity="0.1"/>
</g>
<defs>
<clipPath id="clip0">
<rect width="1440" height="840" fill="white"/>
</clipPath>
</defs>
</svg>
