<svg width="16" height="17" viewBox="0 0 16 17" fill="none" xmlns="http://www.w3.org/2000/svg">
<path d="M7.72329 4.31816C8.94475 4.31816 10.0957 4.88258 10.9392 5.76492V5.76753C10.9392 5.34382 11.2127 5.0233 11.5907 5.0233H11.6867C12.2831 5.0233 12.4026 5.60961 12.4026 5.79463L12.4051 12.3796C12.3636 12.8111 12.8326 13.0342 13.0931 12.7569C14.1056 11.6713 15.319 7.17052 12.4626 4.56467C9.79872 2.13237 6.22334 2.53419 4.3224 3.89966C2.30196 5.35476 1.0105 8.56882 2.26496 11.5895C3.63492 14.8828 7.55129 15.8652 9.88222 14.8854C11.0622 14.3887 11.6062 16.0492 10.3797 16.5927C8.53126 17.4146 3.37993 17.3307 0.974004 12.9878C-0.651444 10.0542 -0.565447 4.89353 3.74742 2.21993C7.04381 0.173292 11.3932 0.740325 14.0151 3.59373C16.755 6.57951 16.5965 12.1659 13.9216 14.3376C12.7101 15.3253 10.9112 14.3647 10.9242 12.9258L10.9107 12.4567C10.0672 13.3276 8.94475 13.8384 7.72329 13.8384C5.30687 13.8384 3.17943 11.6203 3.17943 9.10406C3.17943 6.56075 5.30687 4.3192 7.72329 4.3192V4.31816ZM10.7627 8.92217C10.6712 7.07879 9.35874 5.9687 7.77279 5.9687H7.71279C5.88485 5.9687 4.86938 7.46967 4.86938 9.17129C4.86938 11.0793 6.09584 12.2842 7.70529 12.2842C9.50173 12.2842 10.6812 10.9141 10.7672 9.29324L10.7627 8.92217Z" fill="#EB7700"/>
</svg>
