<svg width="45" height="47" viewBox="0 0 45 47" fill="none" xmlns="http://www.w3.org/2000/svg">
<path d="M43.7981 19.2447C42.9805 18.2014 41.7788 17.626 40.4097 17.626H33.0931C34.0895 15.7273 34.6979 14.2966 34.9033 13.3607C34.9071 13.3415 34.9109 13.3223 34.9147 13.307C35.2797 11.4045 35.1352 9.34856 34.5002 7.3655C33.8613 5.37477 32.7927 3.6487 31.4085 2.38292C30.5186 1.56975 29.5603 1.00974 28.5601 0.718226C27.522 0.415206 26.4838 0.415204 25.4761 0.714389C23.8332 1.20152 22.8179 2.14127 22.4528 3.50678C22.1752 4.55393 22.3691 5.58573 22.5555 6.57918C22.8331 8.05209 23.0955 9.44445 22.0193 11.09C22.0041 11.113 21.9927 11.136 21.9775 11.159C21.966 11.182 20.7568 13.3799 19.1177 15.5816C17.1479 18.2321 15.3453 19.797 14.1665 19.8814L4.08517 19.9658H4.08137C2.20657 19.9735 0.681641 21.5116 0.681641 23.4064V43.5515C0.681641 45.4502 2.21038 46.9922 4.09277 46.9922H4.09658L8.64856 46.9768C9.19616 46.9768 9.64109 46.5242 9.64109 45.9719C9.64109 45.4195 9.19236 44.9707 8.64475 44.9707H8.64095L4.09277 44.9861C3.30939 44.9861 2.67052 44.3417 2.67052 43.5515V23.4064C2.67052 22.6163 3.30939 21.9719 4.09277 21.9719C4.09658 21.9719 4.09658 21.9719 4.10038 21.9719L14.2083 21.8875C14.2235 21.8875 14.2425 21.8875 14.2577 21.8875C15.3453 21.8261 16.4938 21.2392 17.7715 20.1039C18.6918 19.283 19.6805 18.1668 20.7073 16.786C22.3349 14.5996 23.529 12.4708 23.7001 12.164C24.3656 11.136 24.7193 10.0697 24.7763 8.90362C24.8258 7.91017 24.6584 7.00494 24.5063 6.21095C24.3466 5.3671 24.2097 4.63448 24.3694 4.03227C24.4911 3.57966 24.7877 3.01581 26.0313 2.64375C27.3432 2.25251 28.7731 2.68978 30.0661 3.87117C32.382 5.99232 33.5685 9.72062 32.9562 12.9349C32.7471 13.8824 31.8914 15.735 30.5414 18.1477C30.3665 18.4584 30.3703 18.8381 30.549 19.145C30.7278 19.4518 31.0548 19.6436 31.4085 19.6436H40.4059C41.1627 19.6436 41.794 19.9389 42.2313 20.499C42.8055 21.2316 42.9919 22.3209 42.7333 23.4103C42.6002 23.9741 42.3492 24.4612 41.9955 24.8563C41.9803 24.8563 41.9689 24.8563 41.9537 24.8563H38.8468C38.2992 24.8563 37.8504 25.3051 37.8504 25.8613C37.8504 26.4174 38.2954 26.8662 38.8468 26.8662H41.2121C41.889 27.8251 41.6875 29.1216 41.5658 29.6433C41.4061 30.3375 41.0867 30.9014 40.6227 31.3233C40.5885 31.3195 40.5543 31.3195 40.52 31.3195H37.4131C36.8655 31.3195 36.4168 31.7683 36.4168 32.3244C36.4168 32.8768 36.8617 33.3294 37.4131 33.3294H40.2386C40.6455 34.0582 40.7064 35.0439 40.3945 36.0336C40.1321 36.8621 39.6606 37.5218 39.0217 37.9629H35.9833C35.4357 37.9629 34.9869 38.4117 34.9869 38.9679C34.9869 39.5202 35.4319 39.9728 35.9833 39.9728H38.7517C38.9989 40.598 38.9989 41.3575 38.7441 42.1131C38.0596 44.1461 36.3711 44.9784 32.9068 44.9784H22.16C22.1486 44.9784 22.1334 44.9784 22.122 44.9784C19.0911 45.0935 16.8855 44.5296 15.7408 43.3482C14.8586 42.4392 14.8776 41.4419 14.8852 41.3383C14.889 41.3077 14.889 41.2961 14.889 41.2578L14.9308 27.9556C14.9308 27.4032 14.4897 26.9506 13.9383 26.9506H13.9345C13.3869 26.9506 12.9419 27.3994 12.9381 27.9517L12.8963 41.2233C12.8887 41.3844 12.8811 41.8101 13.0104 42.374C13.2081 43.2332 13.6417 44.0387 14.2653 44.6984C15.7066 46.2289 18.091 46.9998 21.3538 46.9998C21.6238 46.9998 21.8976 46.996 22.179 46.9845H32.9182C34.1997 46.9845 35.854 46.9078 37.3218 46.3094C38.9533 45.6458 40.0675 44.4491 40.6379 42.7575C41.041 41.5531 41.0296 40.3219 40.6227 39.2632C41.3947 38.5958 41.9651 37.7059 42.2997 36.6473C42.7409 35.2549 42.6724 33.8165 42.1362 32.6543C42.8055 31.9792 43.2733 31.1162 43.509 30.1112C43.665 29.4361 43.9045 27.8942 43.2581 26.4443C43.9502 25.7654 44.4331 24.8947 44.6727 23.8859C45.0758 22.1828 44.7488 20.4568 43.7981 19.2447Z" fill="#008440"/>
<path d="M8.29142 39.954C8.29142 40.1113 8.16593 40.2379 8.01001 40.2379C7.46241 40.2379 7.01367 40.6868 7.01367 41.2432C7.01367 41.7995 7.4586 42.2484 8.01001 42.2484C9.26114 42.2484 10.2803 41.2201 10.2803 39.9579C10.2803 39.4054 9.83537 38.9526 9.28396 38.9526C8.73635 38.9526 8.29142 39.4015 8.29142 39.954Z" fill="#008440"/>
</svg>
