<svg width="80" height="80" viewBox="0 0 80 80" fill="none" xmlns="http://www.w3.org/2000/svg">
<path d="M78.3305 40C78.3305 41.9601 73.8296 43.4846 73.5393 45.2994C73.2489 47.1869 77.0238 50.0181 76.4431 51.833C75.8623 53.6479 71.1436 53.7205 70.2725 55.3902C69.4013 57.0599 72.0873 60.98 70.9984 62.5045C69.9095 64.029 65.336 62.6497 64.0293 64.029C62.7226 65.3357 64.0293 69.9092 62.5048 70.9982C60.9803 72.0871 57.0601 69.4011 55.3904 70.2722C53.7207 71.1434 53.6481 75.8621 51.8333 76.4428C50.0184 77.0236 47.1872 73.2486 45.2997 73.539C43.4848 73.8294 41.8877 78.3303 40.0002 78.3303C38.0402 78.3303 36.5157 73.8294 34.7008 73.539C32.8133 73.2486 29.9821 77.0236 28.1672 76.4428C26.3523 75.8621 26.2797 71.1434 24.61 70.2722C22.9403 69.4011 19.0202 72.0871 17.4957 70.9982C15.9712 69.9092 17.3505 65.3357 15.9712 64.029C14.6645 62.7223 10.091 64.029 9.00205 62.5045C7.91312 60.98 10.5991 57.0599 9.728 55.3902C8.85685 53.7205 4.13816 53.6479 3.5574 51.833C2.97664 50.0181 6.75159 47.1869 6.46121 45.2994C6.17083 43.4846 1.66992 41.8875 1.66992 40C1.66992 38.0399 6.17083 36.5154 6.46121 34.7005C6.75159 32.8131 2.97664 29.9818 3.5574 28.167C4.13816 26.3521 8.85685 26.2795 9.728 24.6098C10.5991 22.9401 7.91312 19.02 9.00205 17.4955C10.091 15.971 14.6645 17.3503 15.9712 15.9709C17.2779 14.6642 15.9712 10.0907 17.4957 9.0018C19.0202 7.91287 22.9403 10.5989 24.61 9.72775C26.2797 8.85661 26.3523 4.13792 28.1672 3.55716C29.9821 2.97639 32.8133 6.75135 34.7008 6.46097C36.5157 6.17059 38.1128 1.66968 40.0002 1.66968C41.9603 1.66968 43.4848 6.17059 45.2997 6.46097C47.1872 6.75135 50.0184 2.97639 51.8333 3.55716C53.6481 4.13792 53.7207 8.85661 55.3904 9.72775C57.0601 10.5989 60.9803 7.91287 62.5048 9.0018C64.0293 10.0907 62.65 14.6642 64.0293 15.9709C65.336 17.2777 69.9095 15.971 70.9984 17.4955C72.0873 19.02 69.4013 22.9401 70.2725 24.6098C71.1436 26.2795 75.8623 26.3521 76.4431 28.167C77.0238 29.9818 73.2489 32.8131 73.5393 34.7005C73.9022 36.5154 78.3305 38.0399 78.3305 40Z" stroke="#008440" stroke-width="2.5" stroke-miterlimit="10" stroke-linecap="round" stroke-linejoin="round"/>
<path d="M78.3305 40C78.3305 41.9601 73.8296 43.4846 73.5393 45.2994C73.2489 47.1869 77.0238 50.0181 76.4431 51.833C75.8623 53.6479 71.1436 53.7205 70.2725 55.3902C69.4013 57.0599 72.0873 60.98 70.9984 62.5045C69.9095 64.029 65.336 62.6497 64.0293 64.029C62.7226 65.3357 64.0293 69.9092 62.5048 70.9982C60.9803 72.0871 57.0601 69.4011 55.3904 70.2722C53.7207 71.1434 53.6481 75.8621 51.8333 76.4428C50.0184 77.0236 47.1872 73.2486 45.2997 73.539C43.4848 73.8294 41.8877 78.3303 40.0002 78.3303C38.0402 78.3303 36.5157 73.8294 34.7008 73.539C32.8133 73.2486 29.9821 77.0236 28.1672 76.4428C26.3523 75.8621 26.2797 71.1434 24.61 70.2722C22.9403 69.4011 19.0202 72.0871 17.4957 70.9982C15.9712 69.9092 17.3505 65.3357 15.9712 64.029C14.6645 62.7223 10.091 64.029 9.00205 62.5045C7.91312 60.98 10.5991 57.0599 9.728 55.3902C8.85685 53.7205 4.13816 53.6479 3.5574 51.833C2.97664 50.0181 6.75159 47.1869 6.46121 45.2994C6.17083 43.4846 1.66992 41.8875 1.66992 40C1.66992 38.0399 6.17083 36.5154 6.46121 34.7005C6.75159 32.8131 2.97664 29.9818 3.5574 28.167C4.13816 26.3521 8.85685 26.2795 9.728 24.6098C10.5991 22.9401 7.91312 19.02 9.00205 17.4955C10.091 15.971 14.6645 17.3503 15.9712 15.9709C17.2779 14.6642 15.9712 10.0907 17.4957 9.0018C19.0202 7.91287 22.9403 10.5989 24.61 9.72775C26.2797 8.85661 26.3523 4.13792 28.1672 3.55716C29.9821 2.97639 32.8133 6.75135 34.7008 6.46097C36.5157 6.17059 38.1128 1.66968 40.0002 1.66968C41.9603 1.66968 43.4848 6.17059 45.2997 6.46097C47.1872 6.75135 50.0184 2.97639 51.8333 3.55716C53.6481 4.13792 53.7207 8.85661 55.3904 9.72775C57.0601 10.5989 60.9803 7.91287 62.5048 9.0018C64.0293 10.0907 62.65 14.6642 64.0293 15.9709C65.336 17.2777 69.9095 15.971 70.9984 17.4955C72.0873 19.02 69.4013 22.9401 70.2725 24.6098C71.1436 26.2795 75.8623 26.3521 76.4431 28.167C77.0238 29.9818 73.2489 32.8131 73.5393 34.7005C73.9022 36.5154 78.3305 38.0399 78.3305 40Z" stroke="#008440" stroke-width="2.5" stroke-miterlimit="10" stroke-linecap="round" stroke-linejoin="round"/>
<path d="M67.2958 39.9999C67.2958 55.0997 55.0997 67.2958 39.9999 67.2958C24.9001 67.2958 12.7041 55.0997 12.7041 39.9999C12.7041 24.9001 24.9001 12.7041 39.9999 12.7041C55.0997 12.7041 67.2958 24.9001 67.2958 39.9999Z" stroke="#008440" stroke-width="2.5" stroke-miterlimit="10" stroke-linecap="round" stroke-linejoin="round"/>
<path d="M55.0272 31.5063L37.1688 49.3648L25.9165 38.9837" stroke="#008440" stroke-width="2.5" stroke-miterlimit="10" stroke-linecap="round" stroke-linejoin="round"/>
</svg>
