<svg width="158" height="45" viewBox="0 0 158 45" fill="none" xmlns="http://www.w3.org/2000/svg">
<g clip-path="url(#clip0)">
<path d="M26.3341 33.7717C25.0461 31.9113 21.6114 32.0544 18.8923 34.0579C18.7492 34.201 18.463 34.3441 18.3199 34.4873C17.175 35.3459 16.0301 36.0615 14.599 36.6339C8.73138 38.4944 2.57758 35.3459 0.71713 29.4784C0.430907 28.6197 0.287795 27.761 0.144684 26.9023C0.287795 28.1903 0.430907 29.6215 0.860242 30.9095C3.57936 39.0668 11.8798 43.7895 20.1803 42.2153C20.6096 42.2153 20.8959 42.0722 21.3252 41.9291C21.3252 41.9291 21.3252 41.9291 21.4683 41.9291C22.1839 41.6428 23.0425 41.2135 23.7581 40.7842C26.4772 38.6375 27.6221 35.6322 26.3341 33.7717Z" fill="#008440"/>
<path d="M33.7758 21.4641C31.6291 22.1797 30.7704 25.3281 31.7722 28.6197C31.9153 28.9059 31.9153 29.049 32.0584 29.3353C32.6309 30.6233 32.9171 32.0544 32.9171 33.6286C32.9171 39.7824 27.9082 44.6482 21.8975 44.6482C21.0388 44.6482 20.1802 44.5051 19.3215 44.362C20.6095 44.6482 22.0406 44.9344 23.4717 44.9344C32.0584 44.9344 39.214 38.4944 40.0727 30.0508C40.0727 29.6215 40.2158 29.3353 40.2158 28.9059C40.2158 28.9059 40.2158 28.9059 40.2158 28.7628C40.2158 27.9042 40.0727 27.0455 39.7865 26.1868C38.6416 22.7521 35.9225 20.7486 33.7758 21.4641Z" fill="#008440"/>
<path d="M24.4736 10.3013C24.4736 12.5911 27.1928 14.4516 30.6274 14.4516C30.9137 14.4516 31.0568 14.4516 31.343 14.4516C32.7741 14.3084 34.2052 14.4516 35.6363 15.024C41.5039 16.8844 44.6524 23.1814 42.7919 28.9058C42.5057 29.7645 42.0764 30.4801 41.647 31.3387C42.3626 30.1938 42.935 28.9058 43.3644 27.6178C46.0835 19.3173 42.0764 10.5875 34.3483 7.15286C34.0621 7.00975 33.6328 6.86664 33.2034 6.72352C33.2034 6.72352 33.2034 6.72352 33.0603 6.72352C32.3448 6.4373 31.343 6.29419 30.4843 6.29419C27.1928 6.29419 24.4736 8.01153 24.4736 10.3013Z" fill="#008440"/>
<path d="M11.0211 15.8827C13.1677 16.5983 15.7437 14.5947 16.8886 11.3032C17.0317 11.0169 17.0317 10.8738 17.0317 10.5876C17.318 9.15648 17.8904 7.86847 18.8922 6.72358C22.47 1.71467 29.3393 0.71289 34.3483 4.29068C35.0638 4.86313 35.7794 5.43557 36.2087 6.00802C35.35 5.00624 34.3483 4.00446 33.2034 3.14579C26.1909 -1.86312 16.6024 -0.718226 11.0211 5.43557C10.7348 5.7218 10.4486 6.00802 10.1624 6.29424C10.1624 6.29424 10.1624 6.29424 10.1624 6.43735C9.73306 7.15291 9.30372 7.86847 9.0175 8.72714C7.87261 12.0187 8.87439 15.1672 11.0211 15.8827Z" fill="#008440"/>
<path d="M12.166 30.3372C13.454 28.4767 12.3091 25.3282 9.58996 23.3247C9.44685 23.1816 9.16062 23.0385 9.01751 22.8954C7.87262 22.1798 6.72773 21.178 5.86906 20.0331C2.14815 15.0242 3.29305 8.15486 8.30195 4.57707C9.01751 4.00462 9.73307 3.57529 10.5917 3.28906C9.30374 3.86151 8.01573 4.43396 6.87084 5.29263C0.00148028 10.3015 -2.00208 19.7469 2.14815 27.1887C2.29127 27.4749 2.57749 27.9043 2.7206 28.1905C2.7206 28.1905 2.7206 28.1905 2.7206 28.3336C3.14994 29.0492 3.86549 29.6216 4.58105 30.194C7.44329 32.0545 10.7349 32.1976 12.166 30.3372Z" fill="#008440"/>
<path d="M94.5983 29.4781V8.87002H87.0134V3.00244H109.053V8.87002H101.468V29.4781H94.5983Z" fill="#008440"/>
<path d="M110.627 29.4781V3.00244H130.519V8.87002H117.639V13.0203H130.233V19.0309H117.639V23.4674H130.519V29.4781H110.627Z" fill="#008440"/>
<path d="M131.521 16.1689C131.521 8.01153 137.818 2.43018 146.118 2.43018C152.702 2.43018 156.136 6.00797 157.997 9.44264L151.986 12.3049C151.127 10.1582 148.838 8.44086 146.118 8.44086C141.682 8.44086 138.533 11.7324 138.533 16.1689C138.533 20.4622 141.682 23.8969 146.118 23.8969C148.694 23.8969 150.984 22.1796 151.986 20.0329L157.997 22.752C156.279 26.1867 152.702 29.9076 146.118 29.9076C137.818 29.9076 131.521 24.3263 131.521 16.1689Z" fill="#008440"/>
<path d="M57.103 3.00244H50.0905V29.4781H57.103V3.00244Z" fill="#EB7700"/>
<path d="M78.713 29.4781L67.264 14.1651V29.4781H60.2516V3.00244H67.4071L78.4267 17.5998V3.00244H85.4392V29.4781H78.713Z" fill="#EB7700"/>
<path d="M49.5182 42.2152V34.2009H55.2427V35.7752H51.2355V37.3494H55.2427V38.9236H51.2355V40.7841H55.2427V42.2152H49.5182Z" fill="#EB7700"/>
<path d="M61.6826 42.2152L57.8186 37.0632V42.2152H56.1013V34.2009H57.8186L61.6826 39.2098V34.2009H63.4V42.2152H61.6826Z" fill="#EB7700"/>
<path d="M64.4016 42.2152V34.2009H70.1261V35.7752H66.119V37.3494H70.1261V38.9236H66.119V40.7841H70.1261V42.2152H64.4016Z" fill="#EB7700"/>
<path d="M75.5645 42.2152L73.9903 39.3529H72.7023V42.2152H70.9849V34.2009H74.8489C76.5663 34.2009 77.5681 35.3458 77.5681 36.7769C77.5681 38.2081 76.7094 38.9236 75.7076 39.2098L77.5681 42.2152H75.5645ZM75.7076 36.7769C75.7076 36.0614 75.1352 35.7752 74.5627 35.7752H72.7023V37.9218H74.5627C75.2783 37.9218 75.7076 37.4925 75.7076 36.7769Z" fill="#EB7700"/>
<path d="M77.8542 38.2083C77.8542 35.6323 79.8577 34.0581 82.1475 34.0581C83.8649 34.0581 84.8667 34.9168 85.4391 35.7754L84.008 36.491C83.5787 35.9186 82.8631 35.4892 82.1475 35.4892C80.7164 35.4892 79.5715 36.6341 79.5715 38.0652C79.5715 39.6395 80.7164 40.6412 82.1475 40.6412C83.2924 40.6412 84.008 39.9257 84.2942 39.067H81.7182V37.6359H86.1547C86.1547 40.4981 84.5804 42.2155 82.0044 42.2155C79.8577 42.3586 77.8542 40.7844 77.8542 38.2083Z" fill="#EB7700"/>
<path d="M88.4445 42.2152V38.9236L85.2961 34.2009H87.2996L89.3032 37.3494L91.4499 34.2009H93.3103L90.1619 38.9236V42.2152H88.4445Z" fill="#EB7700"/>
<path d="M95.457 41.0703L96.4588 39.7823C97.0312 40.3547 97.8899 40.9272 99.0348 40.9272C100.037 40.9272 100.466 40.4978 100.466 40.0685C100.466 38.6374 95.7432 39.6392 95.7432 36.6338C95.7432 35.3458 96.8881 34.2009 98.8917 34.2009C100.18 34.2009 101.325 34.6303 102.04 35.3458L101.038 36.6338C100.323 36.0614 99.4641 35.7752 98.6054 35.7752C97.8899 35.7752 97.4605 36.0614 97.4605 36.6338C97.4605 37.9218 102.183 37.0632 102.183 40.0685C102.183 41.4996 101.038 42.6445 98.8917 42.6445C97.4605 42.3583 96.3156 41.7858 95.457 41.0703Z" fill="#EB7700"/>
<path d="M102.469 38.2083C102.469 35.7754 104.33 34.0581 106.763 34.0581C109.196 34.0581 111.056 35.7754 111.056 38.2083C111.056 40.6412 109.196 42.3586 106.763 42.3586C104.187 42.3586 102.469 40.6412 102.469 38.2083ZM109.196 38.2083C109.196 36.7772 108.194 35.6323 106.763 35.6323C105.189 35.6323 104.33 36.7772 104.33 38.2083C104.33 39.6395 105.332 40.7844 106.763 40.7844C108.194 40.7844 109.196 39.6395 109.196 38.2083Z" fill="#EB7700"/>
<path d="M111.485 42.2152V34.2009H113.346V40.7841H116.781V42.2152H111.485Z" fill="#EB7700"/>
<path d="M117.067 39.0669V34.3442H118.784V39.0669C118.784 40.2118 119.5 40.9274 120.645 40.9274C121.933 40.9274 122.505 40.2118 122.505 39.0669V34.3442H124.222V39.0669C124.222 41.0705 123.077 42.3585 120.501 42.3585C118.212 42.3585 117.067 40.9274 117.067 39.0669Z" fill="#EB7700"/>
<path d="M127.228 42.2152V35.7752H124.938V34.2009H131.378V35.7752H129.088V42.2152H127.228Z" fill="#EB7700"/>
<path d="M133.668 34.2009H131.95V42.2152H133.668V34.2009Z" fill="#EB7700"/>
<path d="M134.383 38.2083C134.383 35.7754 136.244 34.0581 138.677 34.0581C141.11 34.0581 142.97 35.7754 142.97 38.2083C142.97 40.6412 141.11 42.3586 138.677 42.3586C136.101 42.3586 134.383 40.6412 134.383 38.2083ZM141.11 38.2083C141.11 36.7772 140.108 35.6323 138.677 35.6323C137.102 35.6323 136.244 36.7772 136.244 38.2083C136.244 39.6395 137.246 40.7844 138.677 40.7844C140.108 40.7844 141.11 39.6395 141.11 38.2083Z" fill="#EB7700"/>
<path d="M149.124 42.2152L145.26 37.0632V42.2152H143.542V34.2009H145.26L148.981 39.2098V34.2009H150.841V42.2152H149.124Z" fill="#EB7700"/>
<path d="M151.271 41.0703L152.272 39.7823C152.845 40.3547 153.703 40.9272 154.848 40.9272C155.85 40.9272 156.279 40.4978 156.279 40.0685C156.279 38.6374 151.557 39.6392 151.557 36.6338C151.557 35.3458 152.702 34.2009 154.705 34.2009C155.993 34.2009 157.138 34.6303 157.854 35.3458L156.852 36.6338C156.136 36.0614 155.278 35.7752 154.419 35.7752C153.703 35.7752 153.274 36.0614 153.274 36.6338C153.274 37.9218 157.997 37.0632 157.997 40.0685C157.997 41.4996 156.852 42.6445 154.705 42.6445C153.131 42.3583 151.986 41.7858 151.271 41.0703Z" fill="#EB7700"/>
</g>
<defs>
<clipPath id="clip0">
<rect width="158" height="45" fill="white"/>
</clipPath>
</defs>
</svg>
