<svg width="148" height="48" viewBox="0 0 148 48" fill="none" xmlns="http://www.w3.org/2000/svg">
<rect x="0.5" y="0.5" width="147" height="47" rx="23.5" fill="white" stroke="#008440"/>
<path d="M53.3657 26.152L56.7117 18.088H58.2517V28H57.2437V19.432H57.2157L53.6317 28H53.0997L49.5157 19.432H49.4877V28H48.4797V18.088H50.0197L53.3657 26.152ZM69.5028 23.044C69.5028 22.4747 69.4095 21.9333 69.2228 21.42C69.0362 20.8973 68.7655 20.44 68.4108 20.048C68.0655 19.656 67.6408 19.3433 67.1368 19.11C66.6328 18.8767 66.0635 18.76 65.4288 18.76C64.7942 18.76 64.2248 18.8767 63.7208 19.11C63.2168 19.3433 62.7875 19.656 62.4328 20.048C62.0875 20.44 61.8215 20.8973 61.6348 21.42C61.4482 21.9333 61.3548 22.4747 61.3548 23.044C61.3548 23.6133 61.4482 24.1593 61.6348 24.682C61.8215 25.1953 62.0875 25.648 62.4328 26.04C62.7875 26.432 63.2168 26.7447 63.7208 26.978C64.2248 27.2113 64.7942 27.328 65.4288 27.328C66.0635 27.328 66.6328 27.2113 67.1368 26.978C67.6408 26.7447 68.0655 26.432 68.4108 26.04C68.7655 25.648 69.0362 25.1953 69.2228 24.682C69.4095 24.1593 69.5028 23.6133 69.5028 23.044ZM70.5948 23.044C70.5948 23.8 70.4642 24.4953 70.2028 25.13C69.9415 25.7647 69.5775 26.3153 69.1108 26.782C68.6535 27.2393 68.1075 27.5987 67.4728 27.86C66.8475 28.1213 66.1662 28.252 65.4288 28.252C64.6915 28.252 64.0055 28.1213 63.3708 27.86C62.7455 27.5987 62.1995 27.2393 61.7328 26.782C61.2755 26.3153 60.9162 25.7647 60.6548 25.13C60.3935 24.4953 60.2628 23.8 60.2628 23.044C60.2628 22.288 60.3935 21.5927 60.6548 20.958C60.9162 20.3233 61.2755 19.7773 61.7328 19.32C62.1995 18.8533 62.7455 18.4893 63.3708 18.228C64.0055 17.9667 64.6915 17.836 65.4288 17.836C66.1662 17.836 66.8475 17.9667 67.4728 18.228C68.1075 18.4893 68.6535 18.8533 69.1108 19.32C69.5775 19.7773 69.9415 20.3233 70.2028 20.958C70.4642 21.5927 70.5948 22.288 70.5948 23.044ZM73.6186 22.47H75.4106C75.8586 22.47 76.2366 22.4233 76.5446 22.33C76.8619 22.2367 77.1139 22.1153 77.3006 21.966C77.4873 21.8073 77.6226 21.6253 77.7066 21.42C77.7906 21.2053 77.8326 20.9767 77.8326 20.734C77.8326 20.5007 77.7906 20.2813 77.7066 20.076C77.6226 19.8613 77.4873 19.6747 77.3006 19.516C77.1139 19.3573 76.8619 19.236 76.5446 19.152C76.2366 19.0587 75.8586 19.012 75.4106 19.012H73.6186V22.47ZM73.6186 28H72.6106V18.088H75.6626C76.6706 18.088 77.4639 18.3073 78.0426 18.746C78.6306 19.1847 78.9246 19.8473 78.9246 20.734C78.9246 21.4247 78.7053 22.008 78.2666 22.484C77.8373 22.9507 77.2119 23.2213 76.3906 23.296L79.2466 28H78.0146L75.2986 23.394H73.6186V28ZM81.9174 27.076H87.2234V28H80.9094V18.088H87.0554V19.012H81.9174V22.386H86.7194V23.31H81.9174V27.076Z" fill="#008440"/>
<path d="M124.354 24.3536C124.549 24.1583 124.549 23.8417 124.354 23.6464L121.172 20.4645C120.976 20.2692 120.66 20.2692 120.464 20.4645C120.269 20.6597 120.269 20.9763 120.464 21.1716L123.293 24L120.464 26.8284C120.269 27.0237 120.269 27.3403 120.464 27.5355C120.66 27.7308 120.976 27.7308 121.172 27.5355L124.354 24.3536ZM111 24.5L124 24.5L124 23.5L111 23.5L111 24.5Z" fill="#008440"/>
</svg>
