<svg width="1440" height="840" viewBox="0 0 1440 840" fill="none" xmlns="http://www.w3.org/2000/svg">
<g clip-path="url(#clip0)">
<rect width="1440" height="840" fill="#008440"/>
<path d="M1154.07 -247.34C1015.47 -189.078 976.975 24.5964 1067.71 231.13L1088.63 274.088C1145.24 380.332 1174.81 498.453 1174.72 618.018C1174.63 737.582 1144.89 854.908 1088.12 959.632C1031.35 1064.36 949.303 1153.25 849.226 1218.47C749.15 1283.69 634.124 1323.22 514.31 1333.57C456.86 1338.62 398.917 1336.76 341.738 1328.03C431.932 1342.77 523.484 1346.28 614.264 1338.46C886.511 1315.3 1139.33 1193.17 1324.37 995.448C1509.42 797.72 1613.71 538.262 1617.3 266.683C1618.78 240.684 1618.39 214.59 1616.14 188.599C1616.86 186.856 1617.83 185.228 1619.02 183.765L1614.93 181.336C1606.98 125.39 1591.02 70.7584 1567.56 19.1001C1477.16 -186.142 1291.84 -306.087 1154.07 -247.34Z" fill="white" fill-opacity="0.1"/>
<path d="M1437.69 843.179C1526.75 722.161 1450.95 518.588 1268.09 387.25L1228.3 360.983C1125.72 298.503 1040.27 211.971 979.479 109.031C918.69 6.09003 884.442 -110.09 879.759 -229.246C875.077 -348.402 900.104 -466.866 952.631 -574.172C1005.16 -681.479 1083.57 -774.324 1180.93 -844.507C1227.57 -878.235 1278.15 -906.268 1331.57 -928C1246.81 -894.56 1166.6 -850.753 1092.82 -797.601C871.403 -638.431 717.008 -404.039 659.152 -139.243C601.297 125.554 644.041 402.176 779.212 637.729C791.18 660.86 804.794 683.119 819.952 704.336C820.224 706.203 820.224 708.099 819.952 709.965H824.69C859.981 754.044 901.457 792.901 947.858 825.354C1129.77 955.754 1349.57 964.197 1437.69 843.179Z" fill="white" fill-opacity="0.1"/>
<path d="M-574.042 133.089C-636.768 269.415 -521.145 453.607 -315.248 545.644L-270.911 563.407C-157.683 604.072 -56.3512 671.717 24.1315 760.364C104.614 849.011 161.771 955.933 190.551 1071.68C219.332 1187.43 218.851 1308.45 189.152 1424.04C159.452 1539.63 101.447 1646.23 20.2613 1734.44C-18.6081 1776.8 -62.4943 1814.37 -110.446 1846.34C-34.1504 1796.63 35.5743 1737.69 97.1046 1670.88C281.815 1470.72 385.564 1210.3 388.514 939.414C391.463 668.531 293.406 406.193 113.092 202.56C96.666 182.302 78.8025 163.228 59.6369 145.483C58.9913 143.709 58.6064 141.853 58.4942 139.971L53.8508 140.918C10.3096 104.812 -38.2327 75.0578 -90.3024 52.5587C-295.08 -38.7491 -512.245 -3.04711 -574.042 133.089Z" fill="white" fill-opacity="0.1"/>
</g>
<defs>
<clipPath id="clip0">
<rect width="1440" height="840" fill="white"/>
</clipPath>
</defs>
</svg>
