<svg width="1120" height="220" viewBox="0 0 1120 220" fill="none" xmlns="http://www.w3.org/2000/svg">
<g clip-path="url(#clip0)">
<path d="M0 40C0 17.9086 17.9086 0 40 0H1080C1102.09 0 1120 17.9086 1120 40V180C1120 202.091 1102.09 220 1080 220H0V40Z" fill="#EB7700"/>
<path d="M143.077 325.11C164.699 295.585 146.297 245.92 101.902 213.878L92.2411 207.47C67.3369 192.227 46.5891 171.116 31.8306 146.002C17.0721 120.888 8.75711 92.5434 7.62027 63.4732C6.48343 34.403 12.5597 5.50166 25.3123 -20.6776C38.065 -46.8568 57.1014 -69.5081 80.7398 -86.6304C92.0636 -94.8589 104.344 -101.698 117.314 -107C96.7343 -98.8416 77.261 -88.1543 59.3474 -75.1868C5.59144 -36.3547 -31.8934 20.8293 -45.9398 85.4311C-59.9862 150.033 -49.6086 217.52 -16.7911 274.987C-13.8856 280.63 -10.5802 286.061 -6.90001 291.237C-6.83395 291.692 -6.83395 292.155 -6.90001 292.61H-5.74988C2.8184 303.364 12.8881 312.844 24.1535 320.761C68.3184 352.575 121.684 354.634 143.077 325.11Z" fill="white" fill-opacity="0.1"/>
<path d="M203.274 232.552C238.887 183.866 208.578 101.968 135.457 49.1304L119.545 38.5628C78.5261 13.4271 44.3532 -21.3851 20.045 -62.7985C-4.26313 -104.212 -17.9584 -150.952 -19.8308 -198.889C-21.7033 -246.826 -11.6953 -294.484 9.30906 -337.654C30.3134 -380.824 61.6674 -418.176 100.601 -446.41C119.252 -459.979 139.478 -471.257 160.841 -480C126.945 -466.547 94.8715 -448.923 65.3668 -427.54C-23.1724 -363.505 -84.9122 -269.209 -108.047 -162.68C-131.183 -56.1511 -114.09 55.1349 -60.0378 149.899C-55.2523 159.205 -49.8081 168.159 -43.7466 176.695C-43.6378 177.446 -43.6378 178.209 -43.7466 178.96H-41.8522C-27.7398 196.693 -11.1544 212.325 7.40031 225.381C80.1426 277.841 168.039 281.238 203.274 232.552Z" fill="white" fill-opacity="0.1"/>
<path d="M1168.15 210.877C1187.01 185.263 1170.96 142.176 1132.22 114.378L1123.79 108.818C1102.06 95.5942 1083.96 77.2793 1071.08 55.4915C1058.2 33.7038 1050.95 9.11379 1049.95 -16.106C1048.96 -41.3259 1054.26 -66.3992 1065.39 -89.111C1076.52 -111.823 1093.13 -131.474 1113.75 -146.328C1123.63 -153.467 1134.35 -159.4 1145.67 -164C1127.71 -156.922 1110.72 -147.65 1095.09 -136.4C1048.18 -102.712 1015.48 -53.1017 1003.22 2.94354C990.963 58.9888 1000.02 117.537 1028.65 167.393C1031.19 172.288 1034.07 177 1037.28 181.49C1037.34 181.885 1037.34 182.287 1037.28 182.682H1038.29C1045.76 192.011 1054.55 200.235 1064.38 207.104C1102.92 234.704 1149.48 236.491 1168.15 210.877Z" fill="white" fill-opacity="0.1"/>
<path d="M1177.15 103.831C1196.02 78.1516 1179.96 34.9549 1141.23 7.08614L1132.8 1.51237C1111.07 -11.7453 1092.96 -30.1068 1080.09 -51.95C1067.21 -73.7932 1059.95 -98.4457 1058.96 -123.73C1057.97 -149.014 1063.27 -174.151 1074.4 -196.92C1085.53 -219.69 1102.14 -239.391 1122.76 -254.283C1132.64 -261.44 1143.36 -267.389 1154.67 -272C1136.72 -264.904 1119.73 -255.609 1104.1 -244.33C1057.19 -210.556 1024.48 -160.82 1012.23 -104.632C999.971 -48.4438 1009.03 10.2532 1037.66 60.2359C1040.2 65.1441 1043.08 69.8672 1046.29 74.3694C1046.35 74.7654 1046.35 75.1677 1046.29 75.5638H1047.3C1054.77 84.9171 1063.56 93.1621 1073.39 100.049C1111.92 127.718 1158.49 129.51 1177.15 103.831Z" fill="white" fill-opacity="0.1"/>
<path d="M942.924 58.5502C995.284 -12.7516 950.723 -132.694 843.217 -210.076L819.822 -225.552C759.515 -262.364 709.273 -313.347 673.534 -373.998C637.795 -434.649 617.66 -503.101 614.907 -573.305C612.154 -643.51 626.868 -713.307 657.75 -776.53C688.631 -839.754 734.729 -894.457 791.971 -935.807C819.392 -955.679 849.129 -972.196 880.538 -985C830.703 -965.297 783.547 -939.487 740.168 -908.171C609.994 -814.391 519.222 -676.291 485.208 -520.277C451.193 -364.263 476.324 -201.282 555.793 -62.4972C562.829 -48.8688 570.833 -35.7545 579.745 -23.2536C579.905 -22.1538 579.905 -21.0369 579.745 -19.9371H582.53C603.279 6.03372 627.664 28.9272 654.943 48.0484C761.892 124.878 891.121 129.852 942.924 58.5502Z" fill="white" fill-opacity="0.1"/>
</g>
<defs>
<clipPath id="clip0">
<path d="M0 40C0 17.9086 17.9086 0 40 0H1080C1102.09 0 1120 17.9086 1120 40V180C1120 202.091 1102.09 220 1080 220H0V40Z" fill="white"/>
</clipPath>
</defs>
</svg>
