<svg width="134" height="142" viewBox="0 0 134 142" fill="none" xmlns="http://www.w3.org/2000/svg">
<path d="M3.98008 16.5307H25.3802H26.2179V41.0253M11.9766 108.946C6.95021 100.56 3.82777 91.2599 2.60926 81.13C2.22847 77.8087 2 74.4874 2 71C2 54.0614 6.79789 39.1986 16.3175 26.4946M67.7235 43.8484L54.2437 71.083H79.6801L66.2765 98.1516M122.023 33.0542C127.05 41.4404 130.172 50.7401 131.391 60.87C131.772 64.1083 132 67.5126 132 70.917C132 87.8556 127.202 102.718 117.682 115.422C116.388 117.083 115.093 118.744 113.646 120.321C113.418 120.57 113.189 120.819 112.961 121.069C111.59 122.646 110.143 124.058 108.62 125.469M108.62 125.469H130.02M108.62 125.469H107.782V100.975M88.9713 2C83.9449 21.0144 78.9186 40.0289 73.8922 59.0433H107.554C87.7528 86.0289 67.952 113.014 48.2273 140H45.0287C50.0551 120.986 55.0814 101.971 60.1078 82.9567H26.3702C46.1711 55.9711 65.9719 28.9856 85.7727 2H88.9713ZM113.342 21.3466C114.56 22.6751 115.702 24.0036 116.769 25.4152L113.342 21.3466ZM20.6585 120.736C19.44 119.408 18.2976 118.079 17.2314 116.668L20.6585 120.736Z" stroke="#008440" stroke-opacity="0.2" stroke-width="4" stroke-miterlimit="3" stroke-linecap="round" stroke-linejoin="round"/>
</svg>
