<svg width="46" height="45" viewBox="0 0 46 45" fill="none" xmlns="http://www.w3.org/2000/svg">
<path d="M10.3903 36.2093C14.7383 35.0899 18.7726 33.0613 22.4661 30.1506C23.6439 29.2173 24.827 28.181 25.9367 27.0713C31.4583 21.5497 34.7622 15.1639 35.8459 7.96531C35.9714 7.00817 36.0969 6.05103 36.1464 5.07204C36.1542 4.91746 36.162 4.76288 36.1699 4.6083C36.2439 3.65377 36.2393 2.72891 36.2102 1.77959M36.2102 1.77959L43.0833 8.65276M36.2102 1.77959L35.9411 1.51053L27.9566 9.49509M3.78555 37.2372C4.60997 37.1955 5.40993 37.1293 6.21249 37.0117L3.78555 37.2372Z" stroke="#008440" stroke-width="2" stroke-miterlimit="3" stroke-linecap="round" stroke-linejoin="round"/>
</svg>
