<svg width="43" height="39" viewBox="0 0 43 39" fill="none" xmlns="http://www.w3.org/2000/svg">
<path class='xxxxx' d="M8.57091 2.1766C13.0035 3.2936 17.1104 5.34076 20.8641 8.29063C22.0611 9.2365 23.2629 10.2876 24.3893 11.414C29.9939 17.0185 33.3292 23.5187 34.3928 30.862C34.5152 31.8385 34.6377 32.8149 34.6824 33.8142C34.6895 33.972 34.6966 34.1297 34.7036 34.2875C34.7735 35.2616 34.7633 36.2059 34.728 37.1754M34.728 37.1754L41.7862 30.1171M34.728 37.1754L34.4517 37.4517L26.347 29.347M1.83365 1.16635C2.67512 1.20403 3.49147 1.26683 4.31018 1.38222L1.83365 1.16635Z" stroke="#CCE6D9" stroke-width="2" stroke-miterlimit="3" stroke-linecap="round" stroke-linejoin="round"/>
</svg>