<svg width="43" height="39" viewBox="0 0 43 39" fill="none" xmlns="http://www.w3.org/2000/svg">
<path d="M34.8684 36.2751C30.4358 35.1581 26.3289 33.1109 22.5753 30.161C21.3782 29.2152 20.1764 28.1641 19.05 27.0377C13.4455 21.4331 10.1102 14.9329 9.04655 7.58967C8.9241 6.61319 8.80164 5.63672 8.7569 4.63747C8.74983 4.47969 8.74278 4.32192 8.73571 4.16414C8.66585 3.19002 8.67604 2.24572 8.71136 1.2763M8.71136 1.2763L1.65308 8.33458M8.71136 1.2763L8.98767 0.999996L17.0923 9.10465M41.6057 37.2853C40.7642 37.2476 39.9479 37.1848 39.1292 37.0694L41.6057 37.2853Z" stroke="#CCE6D9" stroke-width="2" stroke-miterlimit="3" stroke-linecap="round" stroke-linejoin="round"/>
</svg>
