<svg width="106" height="61" viewBox="0 0 106 61" fill="none" xmlns="http://www.w3.org/2000/svg">
<path d="M37.139 0.672H44.643V2.496H39.155V5.28H44.355V7.104H39.155V10.176H44.931V12H37.139V0.672ZM46.9203 0.672H50.7283C51.2723 0.672 51.7949 0.725333 52.2963 0.832C52.8083 0.938666 53.2563 1.12 53.6403 1.376C54.0243 1.62133 54.3283 1.95733 54.5523 2.384C54.7869 2.8 54.9043 3.32267 54.9043 3.952C54.9043 4.66667 54.7816 5.24267 54.5363 5.68C54.2909 6.11733 53.9603 6.45867 53.5443 6.704C53.1283 6.93867 52.6429 7.09867 52.0883 7.184C51.5443 7.26933 50.9736 7.312 50.3763 7.312H48.9363V12H46.9203V0.672ZM50.1523 5.584C50.4403 5.584 50.7389 5.57333 51.0483 5.552C51.3576 5.53067 51.6403 5.46667 51.8963 5.36C52.1629 5.25333 52.3763 5.09333 52.5363 4.88C52.7069 4.66667 52.7923 4.368 52.7923 3.984C52.7923 3.632 52.7176 3.35467 52.5683 3.152C52.4189 2.93867 52.2269 2.77867 51.9923 2.672C51.7576 2.55467 51.4963 2.48 51.2083 2.448C50.9203 2.416 50.6429 2.4 50.3763 2.4H48.9363V5.584H50.1523ZM64.4775 3.328C64.0615 2.88 63.6562 2.58133 63.2615 2.432C62.8775 2.28267 62.4882 2.208 62.0935 2.208C61.5068 2.208 60.9735 2.31467 60.4935 2.528C60.0242 2.73067 59.6188 3.01867 59.2775 3.392C58.9362 3.75467 58.6695 4.18133 58.4775 4.672C58.2962 5.16267 58.2055 5.69067 58.2055 6.256C58.2055 6.864 58.2962 7.424 58.4775 7.936C58.6695 8.448 58.9362 8.89067 59.2775 9.264C59.6188 9.63733 60.0242 9.93067 60.4935 10.144C60.9735 10.3573 61.5068 10.464 62.0935 10.464C62.5522 10.464 62.9948 10.3573 63.4215 10.144C63.8588 9.92 64.2642 9.568 64.6375 9.088L66.3015 10.272C65.7895 10.976 65.1655 11.488 64.4295 11.808C63.6935 12.128 62.9095 12.288 62.0775 12.288C61.2028 12.288 60.3975 12.1493 59.6615 11.872C58.9362 11.584 58.3068 11.184 57.7735 10.672C57.2508 10.1493 56.8402 9.52533 56.5415 8.8C56.2428 8.07467 56.0935 7.26933 56.0935 6.384C56.0935 5.47733 56.2428 4.656 56.5415 3.92C56.8402 3.17333 57.2508 2.53867 57.7735 2.016C58.3068 1.49333 58.9362 1.09333 59.6615 0.815999C60.3975 0.528 61.2028 0.384 62.0775 0.384C62.8455 0.384 63.5548 0.522666 64.2055 0.799999C64.8668 1.06667 65.4802 1.52533 66.0455 2.176L64.4775 3.328ZM12.0814 19.504H17.4214V20.44H13.0894V23.104H17.1334V24.04H13.0894V27.064H17.6374V28H12.0814V19.504ZM19.1947 19.504H20.4667L25.3867 26.56H25.4107V19.504H26.4187V28H25.1467L20.2267 20.944H20.2027V28H19.1947V19.504ZM35.7585 27.424C35.2705 27.696 34.7545 27.896 34.2105 28.024C33.6745 28.152 33.1305 28.216 32.5785 28.216C31.9145 28.216 31.3065 28.108 30.7545 27.892C30.2025 27.676 29.7225 27.372 29.3145 26.98C28.9145 26.588 28.6025 26.12 28.3785 25.576C28.1545 25.024 28.0425 24.416 28.0425 23.752C28.0425 23.08 28.1585 22.472 28.3905 21.928C28.6305 21.376 28.9585 20.908 29.3745 20.524C29.7905 20.132 30.2745 19.828 30.8265 19.612C31.3785 19.396 31.9745 19.288 32.6145 19.288C33.1745 19.288 33.7105 19.372 34.2225 19.54C34.7425 19.708 35.2065 19.996 35.6145 20.404L34.8585 21.196C34.5705 20.884 34.2185 20.644 33.8025 20.476C33.3945 20.308 32.9745 20.224 32.5425 20.224C32.0545 20.224 31.6025 20.312 31.1865 20.488C30.7705 20.664 30.4065 20.908 30.0945 21.22C29.7905 21.532 29.5505 21.904 29.3745 22.336C29.2065 22.768 29.1225 23.24 29.1225 23.752C29.1225 24.256 29.2065 24.724 29.3745 25.156C29.5505 25.588 29.7905 25.964 30.0945 26.284C30.4065 26.596 30.7785 26.84 31.2105 27.016C31.6425 27.192 32.1185 27.28 32.6385 27.28C32.9825 27.28 33.3425 27.24 33.7185 27.16C34.0945 27.072 34.4385 26.948 34.7505 26.788V24.184H32.7945V23.248H35.7585V27.424ZM37.8744 19.504H38.8824V28H37.8744V19.504ZM40.9915 19.504H42.2635L47.1835 26.56H47.2075V19.504H48.2155V28H46.9435L42.0235 20.944H41.9995V28H40.9915V19.504ZM50.3314 19.504H55.6714V20.44H51.3394V23.104H55.3834V24.04H51.3394V27.064H55.8874V28H50.3314V19.504ZM57.4447 19.504H62.7847V20.44H58.4527V23.104H62.4967V24.04H58.4527V27.064H63.0007V28H57.4447V19.504ZM64.558 19.504H66.73C67.138 19.504 67.542 19.528 67.942 19.576C68.35 19.624 68.714 19.728 69.034 19.888C69.354 20.048 69.614 20.284 69.814 20.596C70.014 20.9 70.114 21.316 70.114 21.844C70.114 22.468 69.926 22.972 69.55 23.356C69.174 23.74 68.654 23.984 67.99 24.088L70.402 28H69.166L66.862 24.184H65.566V28H64.558V19.504ZM65.566 23.248H66.466C66.746 23.248 67.034 23.24 67.33 23.224C67.634 23.208 67.91 23.156 68.158 23.068C68.414 22.98 68.622 22.844 68.782 22.66C68.95 22.468 69.034 22.196 69.034 21.844C69.034 21.54 68.974 21.296 68.854 21.112C68.734 20.928 68.574 20.788 68.374 20.692C68.182 20.588 67.962 20.52 67.714 20.488C67.474 20.456 67.23 20.44 66.982 20.44H65.566V23.248ZM71.8939 19.504H72.9019V28H71.8939V19.504ZM75.0111 19.504H76.2831L81.2031 26.56H81.2271V19.504H82.2351V28H80.9631L76.0431 20.944H76.0191V28H75.0111V19.504ZM91.5749 27.424C91.0869 27.696 90.5709 27.896 90.0269 28.024C89.4909 28.152 88.9469 28.216 88.3949 28.216C87.7309 28.216 87.1229 28.108 86.5709 27.892C86.0189 27.676 85.5389 27.372 85.1309 26.98C84.7309 26.588 84.4189 26.12 84.1949 25.576C83.9709 25.024 83.8589 24.416 83.8589 23.752C83.8589 23.08 83.9749 22.472 84.2069 21.928C84.4469 21.376 84.7749 20.908 85.1909 20.524C85.6069 20.132 86.0909 19.828 86.6429 19.612C87.1949 19.396 87.7909 19.288 88.4309 19.288C88.9909 19.288 89.5269 19.372 90.0389 19.54C90.5589 19.708 91.0229 19.996 91.4309 20.404L90.6749 21.196C90.3869 20.884 90.0349 20.644 89.6189 20.476C89.2109 20.308 88.7909 20.224 88.3589 20.224C87.8709 20.224 87.4189 20.312 87.0029 20.488C86.5869 20.664 86.2229 20.908 85.9109 21.22C85.6069 21.532 85.3669 21.904 85.1909 22.336C85.0229 22.768 84.9389 23.24 84.9389 23.752C84.9389 24.256 85.0229 24.724 85.1909 25.156C85.3669 25.588 85.6069 25.964 85.9109 26.284C86.2229 26.596 86.5949 26.84 87.0269 27.016C87.4589 27.192 87.9349 27.28 88.4549 27.28C88.7989 27.28 89.1589 27.24 89.5349 27.16C89.9109 27.072 90.2549 26.948 90.5669 26.788V24.184H88.6109V23.248H91.5749V27.424ZM94.1828 29.656H93.2588L94.0748 26.776H95.1668L94.1828 29.656ZM9.53842 35.504H12.0584C12.4504 35.504 12.8224 35.544 13.1744 35.624C13.5344 35.696 13.8504 35.824 14.1224 36.008C14.4024 36.184 14.6224 36.424 14.7824 36.728C14.9504 37.024 15.0344 37.392 15.0344 37.832C15.0344 38.296 14.9464 38.68 14.7704 38.984C14.5944 39.288 14.3664 39.528 14.0864 39.704C13.8144 39.88 13.5144 40.004 13.1864 40.076C12.8584 40.148 12.5464 40.184 12.2504 40.184H10.5464V44H9.53842V35.504ZM10.5464 39.248H12.2504C12.7544 39.248 13.1624 39.136 13.4744 38.912C13.7944 38.68 13.9544 38.324 13.9544 37.844C13.9544 37.364 13.7944 37.012 13.4744 36.788C13.1624 36.556 12.7544 36.44 12.2504 36.44H10.5464V39.248ZM16.6517 35.504H18.8237C19.2317 35.504 19.6357 35.528 20.0357 35.576C20.4437 35.624 20.8077 35.728 21.1277 35.888C21.4477 36.048 21.7077 36.284 21.9077 36.596C22.1077 36.9 22.2077 37.316 22.2077 37.844C22.2077 38.468 22.0197 38.972 21.6437 39.356C21.2677 39.74 20.7477 39.984 20.0837 40.088L22.4957 44H21.2597L18.9557 40.184H17.6597V44H16.6517V35.504ZM17.6597 39.248H18.5597C18.8397 39.248 19.1277 39.24 19.4237 39.224C19.7277 39.208 20.0037 39.156 20.2517 39.068C20.5077 38.98 20.7157 38.844 20.8757 38.66C21.0437 38.468 21.1277 38.196 21.1277 37.844C21.1277 37.54 21.0677 37.296 20.9477 37.112C20.8277 36.928 20.6677 36.788 20.4677 36.692C20.2757 36.588 20.0557 36.52 19.8077 36.488C19.5677 36.456 19.3237 36.44 19.0757 36.44H17.6597V39.248ZM27.9356 44.216C27.2876 44.216 26.6916 44.104 26.1476 43.88C25.6116 43.656 25.1436 43.348 24.7436 42.956C24.3516 42.556 24.0436 42.084 23.8196 41.54C23.6036 40.988 23.4956 40.392 23.4956 39.752C23.4956 39.112 23.6036 38.52 23.8196 37.976C24.0436 37.424 24.3516 36.952 24.7436 36.56C25.1436 36.16 25.6116 35.848 26.1476 35.624C26.6916 35.4 27.2876 35.288 27.9356 35.288C28.5836 35.288 29.1756 35.4 29.7116 35.624C30.2556 35.848 30.7236 36.16 31.1156 36.56C31.5156 36.952 31.8236 37.424 32.0396 37.976C32.2636 38.52 32.3756 39.112 32.3756 39.752C32.3756 40.392 32.2636 40.988 32.0396 41.54C31.8236 42.084 31.5156 42.556 31.1156 42.956C30.7236 43.348 30.2556 43.656 29.7116 43.88C29.1756 44.104 28.5836 44.216 27.9356 44.216ZM27.9356 43.28C28.4316 43.28 28.8836 43.188 29.2916 43.004C29.7076 42.82 30.0636 42.568 30.3596 42.248C30.6556 41.928 30.8836 41.556 31.0436 41.132C31.2116 40.7 31.2956 40.24 31.2956 39.752C31.2956 39.264 31.2116 38.808 31.0436 38.384C30.8836 37.952 30.6556 37.576 30.3596 37.256C30.0636 36.936 29.7076 36.684 29.2916 36.5C28.8836 36.316 28.4316 36.224 27.9356 36.224C27.4396 36.224 26.9836 36.316 26.5676 36.5C26.1596 36.684 25.8076 36.936 25.5116 37.256C25.2156 37.576 24.9836 37.952 24.8156 38.384C24.6556 38.808 24.5756 39.264 24.5756 39.752C24.5756 40.24 24.6556 40.7 24.8156 41.132C24.9836 41.556 25.2156 41.928 25.5116 42.248C25.8076 42.568 26.1596 42.82 26.5676 43.004C26.9836 43.188 27.4396 43.28 27.9356 43.28ZM39.9475 37.256C39.6915 36.912 39.3755 36.656 38.9995 36.488C38.6235 36.312 38.2315 36.224 37.8235 36.224C37.3515 36.224 36.9155 36.32 36.5155 36.512C36.1235 36.704 35.7835 36.964 35.4955 37.292C35.2075 37.612 34.9835 37.988 34.8235 38.42C34.6635 38.844 34.5835 39.288 34.5835 39.752C34.5835 40.248 34.6635 40.712 34.8235 41.144C34.9835 41.568 35.2035 41.94 35.4835 42.26C35.7715 42.572 36.1115 42.82 36.5035 43.004C36.9035 43.188 37.3435 43.28 37.8235 43.28C38.3435 43.28 38.8075 43.18 39.2155 42.98C39.6235 42.772 39.9795 42.476 40.2835 42.092L41.0395 42.728C40.6555 43.24 40.1915 43.616 39.6475 43.856C39.1115 44.096 38.5035 44.216 37.8235 44.216C37.2155 44.216 36.6475 44.104 36.1195 43.88C35.5915 43.656 35.1315 43.348 34.7395 42.956C34.3555 42.556 34.0515 42.084 33.8275 41.54C33.6115 40.996 33.5035 40.4 33.5035 39.752C33.5035 39.128 33.6075 38.544 33.8155 38C34.0315 37.456 34.3315 36.984 34.7155 36.584C35.0995 36.184 35.5555 35.868 36.0835 35.636C36.6115 35.404 37.1915 35.288 37.8235 35.288C38.3995 35.288 38.9515 35.392 39.4795 35.6C40.0155 35.808 40.4635 36.148 40.8235 36.62L39.9475 37.256ZM48.8167 40.76C48.8167 41.224 48.7567 41.664 48.6367 42.08C48.5247 42.496 48.3407 42.864 48.0847 43.184C47.8367 43.496 47.5087 43.748 47.1007 43.94C46.6927 44.124 46.1967 44.216 45.6127 44.216C45.0287 44.216 44.5327 44.124 44.1247 43.94C43.7167 43.748 43.3847 43.496 43.1287 43.184C42.8807 42.864 42.6967 42.496 42.5767 42.08C42.4647 41.664 42.4087 41.224 42.4087 40.76V35.504H43.4167V40.616C43.4167 40.96 43.4527 41.292 43.5247 41.612C43.5967 41.932 43.7167 42.216 43.8847 42.464C44.0527 42.712 44.2767 42.912 44.5567 43.064C44.8367 43.208 45.1887 43.28 45.6127 43.28C46.0367 43.28 46.3887 43.208 46.6687 43.064C46.9487 42.912 47.1727 42.712 47.3407 42.464C47.5087 42.216 47.6287 41.932 47.7007 41.612C47.7727 41.292 47.8087 40.96 47.8087 40.616V35.504H48.8167V40.76ZM50.8939 35.504H53.0659C53.4739 35.504 53.8779 35.528 54.2779 35.576C54.6859 35.624 55.0499 35.728 55.3699 35.888C55.6899 36.048 55.9499 36.284 56.1499 36.596C56.3499 36.9 56.4499 37.316 56.4499 37.844C56.4499 38.468 56.2619 38.972 55.8859 39.356C55.5099 39.74 54.9899 39.984 54.3259 40.088L56.7379 44H55.5019L53.1979 40.184H51.9019V44H50.8939V35.504ZM51.9019 39.248H52.8019C53.0819 39.248 53.3699 39.24 53.6659 39.224C53.9699 39.208 54.2459 39.156 54.4939 39.068C54.7499 38.98 54.9579 38.844 55.1179 38.66C55.2859 38.468 55.3699 38.196 55.3699 37.844C55.3699 37.54 55.3099 37.296 55.1899 37.112C55.0699 36.928 54.9099 36.788 54.7099 36.692C54.5179 36.588 54.2979 36.52 54.0499 36.488C53.8099 36.456 53.5659 36.44 53.3179 36.44H51.9019V39.248ZM58.2298 35.504H63.5698V36.44H59.2378V39.104H63.2818V40.04H59.2378V43.064H63.7858V44H58.2298V35.504ZM65.3431 35.504H66.8431L69.7231 42.164H69.7471L72.6511 35.504H74.1151V44H73.1071V36.872H73.0831L70.0351 44H69.4231L66.3751 36.872H66.3511V44H65.3431V35.504ZM76.2298 35.504H81.5698V36.44H77.2378V39.104H81.2818V40.04H77.2378V43.064H81.7858V44H76.2298V35.504ZM83.3431 35.504H84.6151L89.5351 42.56H89.5591V35.504H90.5671V44H89.2951L84.3751 36.944H84.3511V44H83.3431V35.504ZM98.383 36.44H95.575V44H94.567V36.44H91.759V35.504H98.383V36.44ZM5.99134 58.776C5.64734 59.208 5.27934 59.544 4.88734 59.784C4.49534 60.024 4.01534 60.144 3.44734 60.144C3.08734 60.144 2.74334 60.092 2.41534 59.988C2.08734 59.876 1.79934 59.716 1.55134 59.508C1.31134 59.3 1.11534 59.048 0.963344 58.752C0.819344 58.448 0.747344 58.104 0.747344 57.72C0.747344 57.424 0.795344 57.152 0.891344 56.904C0.995344 56.648 1.13134 56.42 1.29934 56.22C1.47534 56.012 1.67534 55.832 1.89934 55.68C2.13134 55.52 2.37534 55.38 2.63134 55.26C2.35134 54.98 2.11134 54.684 1.91134 54.372C1.71134 54.06 1.61134 53.7 1.61134 53.292C1.61134 52.98 1.67134 52.704 1.79134 52.464C1.91134 52.216 2.07134 52.012 2.27134 51.852C2.47134 51.684 2.70334 51.56 2.96734 51.48C3.23134 51.392 3.51134 51.348 3.80734 51.348C4.09534 51.348 4.36734 51.388 4.62334 51.468C4.87934 51.548 5.10334 51.668 5.29534 51.828C5.49534 51.98 5.65134 52.176 5.76334 52.416C5.87534 52.648 5.93134 52.92 5.93134 53.232C5.93134 53.496 5.87534 53.74 5.76334 53.964C5.65934 54.18 5.51934 54.376 5.34334 54.552C5.17534 54.72 4.98334 54.876 4.76734 55.02C4.55934 55.156 4.34734 55.28 4.13134 55.392L5.93134 57.3L7.07134 55.392H8.21134L6.57934 58.008L8.52334 60H7.14334L5.99134 58.776ZM3.50734 54.78C3.66734 54.692 3.83134 54.6 3.99934 54.504C4.16734 54.408 4.31934 54.3 4.45534 54.18C4.59134 54.06 4.70334 53.92 4.79134 53.76C4.87934 53.6 4.92334 53.416 4.92334 53.208C4.92334 52.896 4.81534 52.652 4.59934 52.476C4.39134 52.3 4.13934 52.212 3.84334 52.212C3.50734 52.212 3.21934 52.316 2.97934 52.524C2.73934 52.724 2.61934 53 2.61934 53.352C2.61934 53.584 2.67934 53.792 2.79934 53.976C2.92734 54.152 3.06334 54.316 3.20734 54.468L3.50734 54.78ZM3.25534 55.872C3.07134 55.968 2.89134 56.076 2.71534 56.196C2.53934 56.308 2.37934 56.436 2.23534 56.58C2.09134 56.724 1.97534 56.888 1.88734 57.072C1.79934 57.256 1.75534 57.46 1.75534 57.684C1.75534 57.916 1.79934 58.128 1.88734 58.32C1.97534 58.512 2.09534 58.68 2.24734 58.824C2.39934 58.968 2.57534 59.08 2.77534 59.16C2.97534 59.24 3.18734 59.28 3.41134 59.28C3.62734 59.28 3.82734 59.248 4.01134 59.184C4.19534 59.12 4.36334 59.036 4.51534 58.932C4.67534 58.82 4.82334 58.696 4.95934 58.56C5.10334 58.416 5.24334 58.264 5.37934 58.104L3.25534 55.872ZM19.0353 53.256C18.7793 52.912 18.4633 52.656 18.0873 52.488C17.7113 52.312 17.3193 52.224 16.9113 52.224C16.4393 52.224 16.0033 52.32 15.6033 52.512C15.2113 52.704 14.8713 52.964 14.5833 53.292C14.2953 53.612 14.0713 53.988 13.9113 54.42C13.7513 54.844 13.6713 55.288 13.6713 55.752C13.6713 56.248 13.7513 56.712 13.9113 57.144C14.0713 57.568 14.2913 57.94 14.5713 58.26C14.8593 58.572 15.1993 58.82 15.5913 59.004C15.9913 59.188 16.4313 59.28 16.9113 59.28C17.4313 59.28 17.8953 59.18 18.3033 58.98C18.7113 58.772 19.0673 58.476 19.3713 58.092L20.1273 58.728C19.7433 59.24 19.2793 59.616 18.7353 59.856C18.1993 60.096 17.5913 60.216 16.9113 60.216C16.3033 60.216 15.7353 60.104 15.2073 59.88C14.6793 59.656 14.2193 59.348 13.8273 58.956C13.4433 58.556 13.1393 58.084 12.9153 57.54C12.6993 56.996 12.5913 56.4 12.5913 55.752C12.5913 55.128 12.6953 54.544 12.9033 54C13.1193 53.456 13.4193 52.984 13.8033 52.584C14.1873 52.184 14.6433 51.868 15.1713 51.636C15.6993 51.404 16.2793 51.288 16.9113 51.288C17.4873 51.288 18.0393 51.392 18.5673 51.6C19.1033 51.808 19.5513 52.148 19.9113 52.62L19.0353 53.256ZM25.4806 60.216C24.8326 60.216 24.2366 60.104 23.6926 59.88C23.1566 59.656 22.6886 59.348 22.2886 58.956C21.8966 58.556 21.5886 58.084 21.3646 57.54C21.1486 56.988 21.0406 56.392 21.0406 55.752C21.0406 55.112 21.1486 54.52 21.3646 53.976C21.5886 53.424 21.8966 52.952 22.2886 52.56C22.6886 52.16 23.1566 51.848 23.6926 51.624C24.2366 51.4 24.8326 51.288 25.4806 51.288C26.1286 51.288 26.7206 51.4 27.2566 51.624C27.8006 51.848 28.2686 52.16 28.6606 52.56C29.0606 52.952 29.3686 53.424 29.5846 53.976C29.8086 54.52 29.9206 55.112 29.9206 55.752C29.9206 56.392 29.8086 56.988 29.5846 57.54C29.3686 58.084 29.0606 58.556 28.6606 58.956C28.2686 59.348 27.8006 59.656 27.2566 59.88C26.7206 60.104 26.1286 60.216 25.4806 60.216ZM25.4806 59.28C25.9766 59.28 26.4286 59.188 26.8366 59.004C27.2526 58.82 27.6086 58.568 27.9046 58.248C28.2006 57.928 28.4286 57.556 28.5886 57.132C28.7566 56.7 28.8406 56.24 28.8406 55.752C28.8406 55.264 28.7566 54.808 28.5886 54.384C28.4286 53.952 28.2006 53.576 27.9046 53.256C27.6086 52.936 27.2526 52.684 26.8366 52.5C26.4286 52.316 25.9766 52.224 25.4806 52.224C24.9846 52.224 24.5286 52.316 24.1126 52.5C23.7046 52.684 23.3526 52.936 23.0566 53.256C22.7606 53.576 22.5286 53.952 22.3606 54.384C22.2006 54.808 22.1206 55.264 22.1206 55.752C22.1206 56.24 22.2006 56.7 22.3606 57.132C22.5286 57.556 22.7606 57.928 23.0566 58.248C23.3526 58.568 23.7046 58.82 24.1126 59.004C24.5286 59.188 24.9846 59.28 25.4806 59.28ZM31.5404 51.504H32.8124L37.7324 58.56H37.7564V51.504H38.7644V60H37.4924L32.5724 52.944H32.5484V60H31.5404V51.504ZM44.9122 53.004C44.7442 52.732 44.5202 52.536 44.2402 52.416C43.9602 52.288 43.6682 52.224 43.3642 52.224C43.1402 52.224 42.9202 52.252 42.7042 52.308C42.4882 52.364 42.2922 52.448 42.1162 52.56C41.9482 52.672 41.8122 52.82 41.7082 53.004C41.6042 53.188 41.5522 53.404 41.5522 53.652C41.5522 53.844 41.5802 54.016 41.6362 54.168C41.7002 54.312 41.8002 54.444 41.9362 54.564C42.0722 54.684 42.2562 54.796 42.4882 54.9C42.7202 55.004 43.0042 55.108 43.3402 55.212C43.6682 55.316 43.9842 55.428 44.2882 55.548C44.6002 55.668 44.8722 55.82 45.1042 56.004C45.3442 56.188 45.5322 56.42 45.6682 56.7C45.8122 56.972 45.8842 57.316 45.8842 57.732C45.8842 58.156 45.8002 58.524 45.6322 58.836C45.4642 59.148 45.2402 59.408 44.9602 59.616C44.6882 59.816 44.3722 59.964 44.0122 60.06C43.6522 60.164 43.2802 60.216 42.8962 60.216C42.6482 60.216 42.4002 60.192 42.1522 60.144C41.9042 60.104 41.6642 60.04 41.4322 59.952C41.2082 59.856 40.9962 59.736 40.7962 59.592C40.5962 59.44 40.4242 59.256 40.2802 59.04L41.1442 58.332C41.3282 58.644 41.5842 58.88 41.9122 59.04C42.2402 59.2 42.5882 59.28 42.9562 59.28C43.1722 59.28 43.3882 59.248 43.6042 59.184C43.8282 59.12 44.0282 59.028 44.2042 58.908C44.3802 58.78 44.5242 58.624 44.6362 58.44C44.7482 58.256 44.8042 58.044 44.8042 57.804C44.8042 57.54 44.7602 57.328 44.6722 57.168C44.5842 57 44.4482 56.856 44.2642 56.736C44.0802 56.616 43.8482 56.508 43.5682 56.412C43.2882 56.316 42.9602 56.204 42.5842 56.076C42.2802 55.98 42.0002 55.872 41.7442 55.752C41.4882 55.624 41.2642 55.472 41.0722 55.296C40.8882 55.112 40.7402 54.896 40.6282 54.648C40.5242 54.392 40.4722 54.088 40.4722 53.736C40.4722 53.328 40.5522 52.972 40.7122 52.668C40.8722 52.364 41.0882 52.112 41.3602 51.912C41.6322 51.704 41.9402 51.548 42.2842 51.444C42.6282 51.34 42.9882 51.288 43.3642 51.288C43.8442 51.288 44.2802 51.364 44.6722 51.516C45.0722 51.66 45.4282 51.916 45.7402 52.284L44.9122 53.004ZM53.2482 52.44H50.4402V60H49.4322V52.44H46.6242V51.504H53.2482V52.44ZM54.4388 51.504H56.6108C57.0188 51.504 57.4228 51.528 57.8228 51.576C58.2308 51.624 58.5948 51.728 58.9148 51.888C59.2348 52.048 59.4948 52.284 59.6948 52.596C59.8948 52.9 59.9948 53.316 59.9948 53.844C59.9948 54.468 59.8068 54.972 59.4308 55.356C59.0548 55.74 58.5348 55.984 57.8708 56.088L60.2828 60H59.0468L56.7428 56.184H55.4468V60H54.4388V51.504ZM55.4468 55.248H56.3468C56.6268 55.248 56.9148 55.24 57.2108 55.224C57.5148 55.208 57.7908 55.156 58.0388 55.068C58.2948 54.98 58.5028 54.844 58.6628 54.66C58.8308 54.468 58.9148 54.196 58.9148 53.844C58.9148 53.54 58.8548 53.296 58.7348 53.112C58.6148 52.928 58.4548 52.788 58.2548 52.692C58.0628 52.588 57.8428 52.52 57.5948 52.488C57.3548 52.456 57.1108 52.44 56.8628 52.44H55.4468V55.248ZM68.1468 56.76C68.1468 57.224 68.0868 57.664 67.9668 58.08C67.8548 58.496 67.6708 58.864 67.4148 59.184C67.1668 59.496 66.8388 59.748 66.4308 59.94C66.0228 60.124 65.5268 60.216 64.9428 60.216C64.3588 60.216 63.8628 60.124 63.4548 59.94C63.0468 59.748 62.7148 59.496 62.4588 59.184C62.2108 58.864 62.0268 58.496 61.9068 58.08C61.7948 57.664 61.7388 57.224 61.7388 56.76V51.504H62.7468V56.616C62.7468 56.96 62.7828 57.292 62.8548 57.612C62.9268 57.932 63.0468 58.216 63.2148 58.464C63.3828 58.712 63.6068 58.912 63.8867 59.064C64.1668 59.208 64.5188 59.28 64.9428 59.28C65.3668 59.28 65.7188 59.208 65.9988 59.064C66.2788 58.912 66.5028 58.712 66.6708 58.464C66.8388 58.216 66.9588 57.932 67.0308 57.612C67.1028 57.292 67.1388 56.96 67.1388 56.616V51.504H68.1468V56.76ZM76.176 53.256C75.92 52.912 75.604 52.656 75.228 52.488C74.852 52.312 74.46 52.224 74.052 52.224C73.58 52.224 73.144 52.32 72.744 52.512C72.352 52.704 72.012 52.964 71.724 53.292C71.436 53.612 71.212 53.988 71.052 54.42C70.892 54.844 70.812 55.288 70.812 55.752C70.812 56.248 70.892 56.712 71.052 57.144C71.212 57.568 71.432 57.94 71.712 58.26C72 58.572 72.34 58.82 72.732 59.004C73.132 59.188 73.572 59.28 74.052 59.28C74.572 59.28 75.036 59.18 75.444 58.98C75.852 58.772 76.208 58.476 76.512 58.092L77.268 58.728C76.884 59.24 76.42 59.616 75.876 59.856C75.34 60.096 74.732 60.216 74.052 60.216C73.444 60.216 72.876 60.104 72.348 59.88C71.82 59.656 71.36 59.348 70.968 58.956C70.584 58.556 70.28 58.084 70.056 57.54C69.84 56.996 69.732 56.4 69.732 55.752C69.732 55.128 69.836 54.544 70.044 54C70.26 53.456 70.56 52.984 70.944 52.584C71.328 52.184 71.784 51.868 72.312 51.636C72.84 51.404 73.42 51.288 74.052 51.288C74.628 51.288 75.18 51.392 75.708 51.6C76.244 51.808 76.692 52.148 77.052 52.62L76.176 53.256ZM84.3732 52.44H81.5652V60H80.5572V52.44H77.7492V51.504H84.3732V52.44ZM85.5638 51.504H86.5718V60H85.5638V51.504ZM92.629 60.216C91.981 60.216 91.385 60.104 90.841 59.88C90.305 59.656 89.837 59.348 89.437 58.956C89.045 58.556 88.737 58.084 88.513 57.54C88.297 56.988 88.189 56.392 88.189 55.752C88.189 55.112 88.297 54.52 88.513 53.976C88.737 53.424 89.045 52.952 89.437 52.56C89.837 52.16 90.305 51.848 90.841 51.624C91.385 51.4 91.981 51.288 92.629 51.288C93.277 51.288 93.869 51.4 94.405 51.624C94.949 51.848 95.417 52.16 95.809 52.56C96.209 52.952 96.517 53.424 96.733 53.976C96.957 54.52 97.069 55.112 97.069 55.752C97.069 56.392 96.957 56.988 96.733 57.54C96.517 58.084 96.209 58.556 95.809 58.956C95.417 59.348 94.949 59.656 94.405 59.88C93.869 60.104 93.277 60.216 92.629 60.216ZM92.629 59.28C93.125 59.28 93.577 59.188 93.985 59.004C94.401 58.82 94.757 58.568 95.053 58.248C95.349 57.928 95.577 57.556 95.737 57.132C95.905 56.7 95.989 56.24 95.989 55.752C95.989 55.264 95.905 54.808 95.737 54.384C95.577 53.952 95.349 53.576 95.053 53.256C94.757 52.936 94.401 52.684 93.985 52.5C93.577 52.316 93.125 52.224 92.629 52.224C92.133 52.224 91.677 52.316 91.261 52.5C90.853 52.684 90.501 52.936 90.205 53.256C89.909 53.576 89.677 53.952 89.509 54.384C89.349 54.808 89.269 55.264 89.269 55.752C89.269 56.24 89.349 56.7 89.509 57.132C89.677 57.556 89.909 57.928 90.205 58.248C90.501 58.568 90.853 58.82 91.261 59.004C91.677 59.188 92.133 59.28 92.629 59.28ZM98.6888 51.504H99.9608L104.881 58.56H104.905V51.504H105.913V60H104.641L99.7208 52.944H99.6968V60H98.6888V51.504Z" fill="#1D1D1B"/>
</svg>
