<svg width="136" height="33" viewBox="0 0 136 33" fill="none" xmlns="http://www.w3.org/2000/svg">
<path d="M17.6873 6.384C17.6873 5.47733 17.8366 4.656 18.1353 3.92C18.4339 3.17333 18.8446 2.53867 19.3673 2.016C19.9006 1.49333 20.5299 1.09333 21.2552 0.815999C21.9913 0.528 22.7966 0.384 23.6713 0.384C24.5566 0.373333 25.3673 0.506666 26.1033 0.783999C26.8393 1.05067 27.4739 1.44533 28.0073 1.968C28.5406 2.49067 28.9566 3.12 29.2553 3.856C29.5539 4.592 29.7033 5.41333 29.7033 6.32C29.7033 7.20533 29.5539 8.01067 29.2553 8.736C28.9566 9.46133 28.5406 10.0853 28.0073 10.608C27.4739 11.1307 26.8393 11.5413 26.1033 11.84C25.3673 12.128 24.5566 12.2773 23.6713 12.288C22.7966 12.288 21.9913 12.1493 21.2552 11.872C20.5299 11.584 19.9006 11.184 19.3673 10.672C18.8446 10.1493 18.4339 9.52533 18.1353 8.8C17.8366 8.07467 17.6873 7.26933 17.6873 6.384ZM19.7993 6.256C19.7993 6.864 19.8899 7.424 20.0713 7.936C20.2633 8.448 20.5299 8.89067 20.8713 9.264C21.2126 9.63733 21.6179 9.93067 22.0873 10.144C22.5673 10.3573 23.1006 10.464 23.6873 10.464C24.2739 10.464 24.8073 10.3573 25.2873 10.144C25.7673 9.93067 26.1779 9.63733 26.5193 9.264C26.8606 8.89067 27.1219 8.448 27.3033 7.936C27.4953 7.424 27.5913 6.864 27.5913 6.256C27.5913 5.69067 27.4953 5.16267 27.3033 4.672C27.1219 4.18133 26.8606 3.75467 26.5193 3.392C26.1779 3.01867 25.7673 2.73067 25.2873 2.528C24.8073 2.31467 24.2739 2.208 23.6873 2.208C23.1006 2.208 22.5673 2.31467 22.0873 2.528C21.6179 2.73067 21.2126 3.01867 20.8713 3.392C20.5299 3.75467 20.2633 4.18133 20.0713 4.672C19.8899 5.16267 19.7993 5.69067 19.7993 6.256ZM31.6234 0.672H35.4314C35.9754 0.672 36.498 0.725333 36.9994 0.832C37.5114 0.938666 37.9594 1.12 38.3434 1.376C38.7274 1.62133 39.0314 1.95733 39.2554 2.384C39.49 2.8 39.6074 3.32267 39.6074 3.952C39.6074 4.66667 39.4847 5.24267 39.2394 5.68C38.994 6.11733 38.6634 6.45867 38.2474 6.704C37.8314 6.93867 37.346 7.09867 36.7914 7.184C36.2474 7.26933 35.6767 7.312 35.0794 7.312H33.6394V12H31.6234V0.672ZM34.8554 5.584C35.1434 5.584 35.442 5.57333 35.7514 5.552C36.0607 5.53067 36.3434 5.46667 36.5994 5.36C36.866 5.25333 37.0794 5.09333 37.2394 4.88C37.41 4.66667 37.4954 4.368 37.4954 3.984C37.4954 3.632 37.4207 3.35467 37.2714 3.152C37.122 2.93867 36.93 2.77867 36.6954 2.672C36.4607 2.55467 36.1994 2.48 35.9114 2.448C35.6234 2.416 35.346 2.4 35.0794 2.4H33.6394V5.584H34.8554ZM41.4046 0.672H48.9086V2.496H43.4206V5.28H48.6206V7.104H43.4206V10.176H49.1966V12H41.4046V0.672ZM51.1859 0.672H55.1219C55.6659 0.672 56.1885 0.725333 56.6899 0.832C57.2019 0.928 57.6552 1.09867 58.0499 1.344C58.4445 1.58933 58.7592 1.92 58.9939 2.336C59.2285 2.752 59.3459 3.28 59.3459 3.92C59.3459 4.74133 59.1165 5.42933 58.6579 5.984C58.2099 6.53867 57.5645 6.87467 56.7219 6.992L59.7299 12H57.2979L54.6739 7.2H53.2019V12H51.1859V0.672ZM54.7699 5.472C55.0579 5.472 55.3459 5.46133 55.6339 5.44C55.9219 5.408 56.1832 5.344 56.4179 5.248C56.6632 5.14133 56.8605 4.98667 57.0099 4.784C57.1592 4.57067 57.2339 4.27733 57.2339 3.904C57.2339 3.57333 57.1645 3.30667 57.0259 3.104C56.8872 2.90133 56.7059 2.752 56.4819 2.656C56.2579 2.54933 56.0072 2.48 55.7299 2.448C55.4632 2.416 55.2019 2.4 54.9459 2.4H53.2019V5.472H54.7699ZM64.928 0.672H66.672L71.552 12H69.248L68.192 9.408H63.28L62.256 12H60L64.928 0.672ZM67.488 7.68L65.744 3.072L63.968 7.68H67.488ZM73.6621 2.496H70.1901V0.672H79.1501V2.496H75.6781V12H73.6621V2.496ZM80.4816 0.672H82.4976V12H80.4816V0.672ZM84.3748 6.384C84.3748 5.47733 84.5241 4.656 84.8228 3.92C85.1214 3.17333 85.5321 2.53867 86.0548 2.016C86.5881 1.49333 87.2174 1.09333 87.9427 0.815999C88.6788 0.528 89.4841 0.384 90.3588 0.384C91.2441 0.373333 92.0548 0.506666 92.7908 0.783999C93.5268 1.05067 94.1614 1.44533 94.6948 1.968C95.2281 2.49067 95.6441 3.12 95.9428 3.856C96.2414 4.592 96.3908 5.41333 96.3908 6.32C96.3908 7.20533 96.2414 8.01067 95.9428 8.736C95.6441 9.46133 95.2281 10.0853 94.6948 10.608C94.1614 11.1307 93.5268 11.5413 92.7908 11.84C92.0548 12.128 91.2441 12.2773 90.3588 12.288C89.4841 12.288 88.6788 12.1493 87.9427 11.872C87.2174 11.584 86.5881 11.184 86.0548 10.672C85.5321 10.1493 85.1214 9.52533 84.8228 8.8C84.5241 8.07467 84.3748 7.26933 84.3748 6.384ZM86.4868 6.256C86.4868 6.864 86.5774 7.424 86.7588 7.936C86.9508 8.448 87.2174 8.89067 87.5588 9.264C87.9001 9.63733 88.3054 9.93067 88.7748 10.144C89.2548 10.3573 89.7881 10.464 90.3748 10.464C90.9614 10.464 91.4948 10.3573 91.9748 10.144C92.4548 9.93067 92.8654 9.63733 93.2068 9.264C93.5481 8.89067 93.8094 8.448 93.9908 7.936C94.1828 7.424 94.2788 6.864 94.2788 6.256C94.2788 5.69067 94.1828 5.16267 93.9908 4.672C93.8094 4.18133 93.5481 3.75467 93.2068 3.392C92.8654 3.01867 92.4548 2.73067 91.9748 2.528C91.4948 2.31467 90.9614 2.208 90.3748 2.208C89.7881 2.208 89.2548 2.31467 88.7748 2.528C88.3054 2.73067 87.9001 3.01867 87.5588 3.392C87.2174 3.75467 86.9508 4.18133 86.7588 4.672C86.5774 5.16267 86.4868 5.69067 86.4868 6.256ZM98.3109 0.672H100.983L106.471 9.088H106.503V0.672H108.519V12H105.959L100.359 3.312H100.327V12H98.3109V0.672ZM116.597 3.104C116.384 2.79467 116.096 2.57067 115.733 2.432C115.381 2.28267 115.008 2.208 114.613 2.208C114.379 2.208 114.149 2.23467 113.925 2.288C113.712 2.34133 113.515 2.42667 113.333 2.544C113.163 2.66133 113.024 2.816 112.917 3.008C112.811 3.18933 112.757 3.408 112.757 3.664C112.757 4.048 112.891 4.34133 113.157 4.544C113.424 4.74667 113.755 4.92267 114.149 5.072C114.544 5.22133 114.976 5.36533 115.445 5.504C115.915 5.64267 116.347 5.83467 116.741 6.08C117.136 6.32533 117.467 6.65067 117.733 7.056C118 7.46133 118.133 8 118.133 8.672C118.133 9.28 118.021 9.81333 117.797 10.272C117.573 10.72 117.269 11.0933 116.885 11.392C116.512 11.6907 116.075 11.9147 115.573 12.064C115.072 12.2133 114.544 12.288 113.989 12.288C113.285 12.288 112.608 12.1707 111.957 11.936C111.307 11.7013 110.747 11.3067 110.277 10.752L111.797 9.28C112.043 9.65333 112.363 9.94667 112.757 10.16C113.163 10.3627 113.589 10.464 114.037 10.464C114.272 10.464 114.507 10.432 114.741 10.368C114.976 10.304 115.189 10.208 115.381 10.08C115.573 9.952 115.728 9.792 115.845 9.6C115.963 9.39733 116.021 9.168 116.021 8.912C116.021 8.496 115.888 8.176 115.621 7.952C115.355 7.728 115.024 7.54133 114.629 7.392C114.235 7.232 113.803 7.08267 113.333 6.944C112.864 6.80533 112.432 6.61867 112.037 6.384C111.643 6.13867 111.312 5.81867 111.045 5.424C110.779 5.01867 110.645 4.48 110.645 3.808C110.645 3.22133 110.763 2.71467 110.997 2.288C111.243 1.86133 111.557 1.50933 111.941 1.232C112.336 0.943999 112.784 0.730666 113.285 0.591999C113.787 0.453333 114.299 0.384 114.821 0.384C115.419 0.384 115.995 0.474666 116.549 0.655999C117.115 0.837333 117.621 1.136 118.069 1.552L116.597 3.104ZM8.75431 29.328L11.2023 32H8.72231L7.52231 30.704C7.06365 31.248 6.57298 31.648 6.05031 31.904C5.52765 32.16 4.90365 32.288 4.17831 32.288C3.67698 32.288 3.19165 32.2133 2.72231 32.064C2.26365 31.9253 1.85831 31.7173 1.50631 31.44C1.15431 31.152 0.871646 30.8053 0.658313 30.4C0.444979 29.984 0.338313 29.504 0.338313 28.96C0.338313 28.576 0.402313 28.224 0.530313 27.904C0.658313 27.5733 0.828979 27.2747 1.04231 27.008C1.26631 26.7307 1.52765 26.4907 1.82631 26.288C2.12498 26.0747 2.44498 25.904 2.78631 25.776C2.60498 25.5733 2.43431 25.376 2.27431 25.184C2.12498 24.992 1.99165 24.7947 1.87431 24.592C1.75698 24.3893 1.66098 24.1707 1.58631 23.936C1.52231 23.7013 1.49031 23.4453 1.49031 23.168C1.49031 22.7093 1.57565 22.304 1.74631 21.952C1.92765 21.6 2.16765 21.312 2.46631 21.088C2.76498 20.8533 3.11165 20.6773 3.50631 20.56C3.90098 20.4427 4.31165 20.384 4.73831 20.384C5.16498 20.384 5.57031 20.4373 5.95431 20.544C6.33831 20.6507 6.67431 20.816 6.96231 21.04C7.26098 21.2533 7.49565 21.5307 7.66631 21.872C7.84765 22.2133 7.93831 22.6133 7.93831 23.072C7.93831 23.424 7.87431 23.7493 7.74631 24.048C7.61831 24.336 7.44765 24.6027 7.23431 24.848C7.02098 25.0827 6.77565 25.3013 6.49831 25.504C6.23165 25.696 5.95965 25.8613 5.68231 26L7.50631 27.968L8.77031 26.048H11.0263L8.75431 29.328ZM4.77031 22.112C4.39698 22.112 4.07698 22.2187 3.81031 22.432C3.54365 22.6347 3.41031 22.9067 3.41031 23.248C3.41031 23.3973 3.44231 23.5467 3.50631 23.696C3.57031 23.8347 3.65565 23.9787 3.76231 24.128C3.86898 24.2667 3.98098 24.4 4.09831 24.528C4.22631 24.656 4.35431 24.7787 4.48231 24.896C4.64231 24.8107 4.81298 24.7147 4.99431 24.608C5.17565 24.4907 5.34098 24.3627 5.49031 24.224C5.65031 24.0747 5.77831 23.9147 5.87431 23.744C5.97031 23.5733 6.01831 23.3813 6.01831 23.168C6.01831 22.8587 5.89565 22.608 5.65031 22.416C5.40498 22.2133 5.11165 22.112 4.77031 22.112ZM4.00231 26.912C3.81031 27.0293 3.62365 27.152 3.44231 27.28C3.26098 27.3973 3.09565 27.5307 2.94631 27.68C2.79698 27.8293 2.67431 28 2.57831 28.192C2.49298 28.384 2.45031 28.6027 2.45031 28.848C2.45031 29.0933 2.49831 29.3227 2.59431 29.536C2.69031 29.7493 2.81831 29.9307 2.97831 30.08C3.14898 30.2293 3.34098 30.3467 3.55431 30.432C3.76765 30.5173 3.99698 30.56 4.24231 30.56C4.67965 30.56 5.06365 30.4427 5.39431 30.208C5.72498 29.9733 6.03431 29.7173 6.32231 29.44L4.00231 26.912ZM17.4761 20.672H20.5481L23.5721 28.608L26.6281 20.672H29.6681V32H27.7481V22.592H27.7161L24.2761 32H22.8681L19.4281 22.592H19.3961V32H17.4761V20.672ZM35.9046 20.672H37.6486L42.5286 32H40.2246L39.1686 29.408H34.2566L33.2326 32H30.9766L35.9046 20.672ZM38.4646 27.68L36.7206 23.072L34.9446 27.68H38.4646ZM43.7394 20.672H45.7554V32H43.7394V20.672ZM48.2406 20.672H50.9126L56.4006 29.088H56.4326V20.672H58.4486V32H55.8886L50.2886 23.312H50.2566V32H48.2406V20.672ZM63.2949 22.496H59.8229V20.672H68.7829V22.496H65.3109V32H63.2949V22.496ZM70.1624 20.672H77.6664V22.496H72.1784V25.28H77.3784V27.104H72.1784V30.176H77.9544V32H70.1624V20.672ZM79.9437 20.672H82.6157L88.1037 29.088H88.1357V20.672H90.1517V32H87.5917L81.9917 23.312H81.9597V32H79.9437V20.672ZM96.3421 20.672H98.0861L102.966 32H100.662L99.6061 29.408H94.6941L93.6701 32H91.4141L96.3421 20.672ZM98.9021 27.68L97.1581 23.072L95.3821 27.68H98.9021ZM104.225 20.672H106.897L112.385 29.088H112.417V20.672H114.433V32H111.873L106.273 23.312H106.241V32H104.225V20.672ZM124.735 23.328C124.319 22.88 123.914 22.5813 123.519 22.432C123.135 22.2827 122.746 22.208 122.351 22.208C121.765 22.208 121.231 22.3147 120.751 22.528C120.282 22.7307 119.877 23.0187 119.535 23.392C119.194 23.7547 118.927 24.1813 118.735 24.672C118.554 25.1627 118.463 25.6907 118.463 26.256C118.463 26.864 118.554 27.424 118.735 27.936C118.927 28.448 119.194 28.8907 119.535 29.264C119.877 29.6373 120.282 29.9307 120.751 30.144C121.231 30.3573 121.765 30.464 122.351 30.464C122.81 30.464 123.253 30.3573 123.679 30.144C124.117 29.92 124.522 29.568 124.895 29.088L126.559 30.272C126.047 30.976 125.423 31.488 124.687 31.808C123.951 32.128 123.167 32.288 122.335 32.288C121.461 32.288 120.655 32.1493 119.919 31.872C119.194 31.584 118.565 31.184 118.031 30.672C117.509 30.1493 117.098 29.5253 116.799 28.8C116.501 28.0747 116.351 27.2693 116.351 26.384C116.351 25.4773 116.501 24.656 116.799 23.92C117.098 23.1733 117.509 22.5387 118.031 22.016C118.565 21.4933 119.194 21.0933 119.919 20.816C120.655 20.528 121.461 20.384 122.335 20.384C123.103 20.384 123.813 20.5227 124.463 20.8C125.125 21.0667 125.738 21.5253 126.303 22.176L124.735 23.328ZM127.912 20.672H135.416V22.496H129.928V25.28H135.128V27.104H129.928V30.176H135.704V32H127.912V20.672Z" fill="#1D1D1B"/>
</svg>
