<svg width="64" height="64" viewBox="0 0 64 64" fill="none" xmlns="http://www.w3.org/2000/svg">
<path d="M3.29995 29.2H3.99995C4.29995 29.2 4.59995 28.9 4.59995 28.6V27.7C4.59995 26.9 5.19995 26.3 5.99995 26.3H10.3C10.6 26.3 10.8 26.1 10.9 25.8L11 25.6C11.5 23.7 12.3 21.8 13.3 20.1L13.4 19.9C13.5 19.7 13.5 19.3 13.3 19.1L10.3 16.1C9.79995 15.6 9.79995 14.7 10.3 14.2L14.9 9.6C15.4 9.1 16.3 9.1 16.8 9.6L19.7999 12.6C19.9999 12.8 20.3 12.8 20.6 12.7L20.7999 12.6C22.4999 11.6 24.3999 10.8 26.2999 10.3L26.5 10.2C26.8 10.1 27 9.8 27 9.5V5.3C27 4.5 27.6 3.9 28.4 3.9H34.9C35.7 3.9 36.2999 4.5 36.2999 5.3V9.6C36.2999 9.9 36.4999 10.1 36.7999 10.2H37C38.9 10.7 40.8 11.5 42.5 12.5L42.7 12.6C42.9 12.7 43.3 12.7 43.5 12.5L46.5 9.5C46.8 9.2 47.1 9.1 47.5 9.1C47.9 9.1 48.2 9.2 48.5 9.5L53.0999 14.1C53.5999 14.6 53.5999 15.5 53.0999 16L50.0999 19C49.8999 19.2 49.9 19.5 50 19.8L50.0999 20C51.0999 21.7 51.9 23.6 52.4 25.5L52.5 25.7C52.6 26 52.7999 26.2 53.0999 26.2H57.4C58.2 26.2 58.7999 26.8 58.7999 27.6V28.5C58.7999 28.8 59.1 29.1 59.4 29.1H60.0999C60.3999 29.1 60.7 28.8 60.7 28.5V25C60.7 24.7 60.3999 24.4 60.0999 24.4H55C54.4 24.4 53.9 24 53.7 23.4C53.4 22.4 53 21.5 52.5 20.6C52.2 20.1 52.2999 19.4 52.7999 19L56.2999 15.5C56.4999 15.3 56.4999 14.9 56.2999 14.6L47.9 6.2C47.6 6 47.2 6 47 6.3L43.5 9.8C43.1 10.2 42.4 10.3 41.9 10.1C41 9.7 40.0999 9.3 39.0999 8.9C38.4999 8.7 38.0999 8.2 38.0999 7.6V2.6C38.0999 2.3 37.8 2 37.5 2H25.7C25.4 2 25.1 2.3 25.1 2.6V7.5C25.1 8.1 24.7 8.6 24.1 8.8C23.1 9.1 22.1999 9.5 21.2999 10C20.7999 10.3 20.1 10.2 19.7 9.7L16.2 6.2C16 6 15.6 6 15.3 6.3L6.89995 14.7C6.69995 14.9 6.69995 15.3 6.89995 15.6L10.4 19.1C10.8 19.5 10.9 20.2 10.7 20.7C10.3 21.6 9.89995 22.5 9.49995 23.5C9.29995 24.1 8.79995 24.5 8.19995 24.5H3.29995C2.99995 24.5 2.69995 24.8 2.69995 25.1V28.7C2.69995 29 2.89995 29.2 3.29995 29.2Z" fill="#008440"/>
<path d="M1.0001 33.3H25.0001C25.5001 33.3 25.9001 32.9 25.9001 32.4C25.9001 31.9 25.5001 31.5 25.0001 31.5H1.0001C0.500098 31.5 0.100098 31.9 0.100098 32.4C0.100098 32.9 0.400098 33.3 1.0001 33.3Z" fill="#008440"/>
<path d="M37.3999 32.3C37.3999 32.8 37.7999 33.2 38.2999 33.2H62.2999C62.7999 33.2 63.1999 32.8 63.1999 32.3C63.1999 31.8 62.7999 31.4 62.2999 31.4H38.2999C37.7999 31.4 37.3999 31.8 37.3999 32.3Z" fill="#008440"/>
<path d="M34.1 36.3C33.2 35.8 32.2 35.6 31.2 35.7C30.1 35.8 29 36.3 28.1 37.1C27.3 37.9 26.8 39 26.7 40.2C26.6 41.2 26.8 42.2 27.3 43.1C27.8 44 28.6 44.7 29.5 45.1C30.4 45.5 31.5 45.7 32.5 45.5C33.5 45.3 34.4 44.8 35.1 44.1C35.8 43.4 36.3 42.5 36.5 41.4C36.7 40.4 36.5 39.4 36.1 38.4C35.7 37.4 35 36.8 34.1 36.3ZM34.2 42.2C33.9 42.7 33.4 43.2 32.9 43.4C32.5 43.6 32.1 43.7 31.6 43.7C31.4 43.7 31.2 43.7 31.1 43.7C30.5 43.6 29.9 43.3 29.5 42.9C29.1 42.5 28.8 41.9 28.7 41.3C28.6 40.7 28.7 40.1 28.9 39.5C29.2 38.9 29.6 38.5 30.1 38.1C30.6 37.8 31.3 37.6 31.9 37.7C32.6 37.8 33.3 38.1 33.8 38.6C34.3 39.1 34.6 39.8 34.7 40.5C34.7 41 34.5 41.6 34.2 42.2Z" fill="#008440"/>
<path d="M55.1 53.8C54.3 53 53.2 52.5 52.1 52.4C51.9 52.4 51.8 52.4 51.6 52.4C50.7 52.4 49.9 52.6 49.1 53.1C48.2 53.6 47.5 54.4 47.1 55.3C46.7 56.2 46.5 57.3 46.7 58.3C46.9 59.3 47.4 60.2 48.1 61C48.8 61.8 49.7 62.2 50.7 62.4C51.7 62.6 52.7 62.4 53.7 62C54.6 61.6 55.4 60.9 55.9 60C56.4 59.1 56.6 58.1 56.5 57.1C56.4 55.7 55.9 54.6 55.1 53.8ZM54.6 57.5C54.5 58.2 54.2 58.9 53.7 59.4C53.2 59.9 52.5 60.2 51.8 60.3C51.7 60.3 51.6 60.3 51.6 60.3C51.1 60.3 50.5 60.2 50.1 59.9C49.6 59.6 49.1 59.1 48.9 58.5C48.6 57.9 48.6 57.3 48.7 56.7C48.8 56.1 49.1 55.5 49.5 55.1C49.9 54.7 50.5 54.4 51.1 54.3C51.7 54.2 52.3 54.3 52.9 54.5C53.5 54.8 53.9 55.2 54.2 55.7C54.5 56.3 54.7 56.9 54.6 57.5Z" fill="#008440"/>
<path d="M14.0999 44.7C13.1999 44.2 12.1999 44 11.1999 44.1C9.9999 44.2 8.9999 44.7 8.1999 45.5C7.3999 46.3 6.8999 47.4 6.7999 48.6C6.6999 49.6 6.8999 50.6 7.3999 51.5C7.8999 52.4 8.6999 53.1 9.5999 53.5C10.4999 53.9 11.5999 54.1 12.5999 53.9C13.5999 53.7 14.4999 53.2 15.1999 52.5C15.8999 51.8 16.3999 50.9 16.5999 49.8C16.7999 48.7 16.5999 47.8 16.1999 46.8C15.7999 45.8 14.9999 45.2 14.0999 44.7ZM14.1999 50.5C13.8999 51 13.3999 51.5 12.8999 51.7C12.4999 51.9 12.0999 52 11.5999 52C11.3999 52 11.1999 52 11.0999 52C10.4999 51.9 9.8999 51.6 9.4999 51.2C9.0999 50.8 8.7999 50.2 8.6999 49.6C8.5999 49 8.6999 48.4 8.8999 47.8C9.1999 47.2 9.5999 46.8 10.0999 46.4C10.5999 46.1 11.2999 45.9 11.8999 46C12.5999 46.1 13.2999 46.4 13.7999 46.9C14.2999 47.4 14.5999 48.1 14.6999 48.8C14.6999 49.3 14.5999 49.9 14.1999 50.5Z" fill="#008440"/>
<path d="M62.2001 39.7H39.6001C39.1001 39.7 38.6001 40.1 38.6001 40.7C38.6001 41.3 39.0001 41.7 39.6001 41.7H62.2001C62.7001 41.7 63.2001 41.3 63.2001 40.7C63.2001 40.1 62.8001 39.7 62.2001 39.7Z" fill="#008440"/>
<path d="M1 41.6H23.7C24.2 41.6 24.7 41.2 24.7 40.6C24.7 40 24.3 39.6 23.7 39.6H1C0.5 39.6 0 40 0 40.6C0 41.2 0.4 41.6 1 41.6Z" fill="#008440"/>
<path d="M62.2 56.3H59.5C59 56.3 58.5 56.7 58.5 57.3C58.5 57.9 58.9 58.3 59.5 58.3H62.2C62.7 58.3 63.2 57.9 63.2 57.3C63.2 56.7 62.8 56.3 62.2 56.3Z" fill="#008440"/>
<path d="M43.6 56.3H1C0.5 56.3 0 56.7 0 57.3C0 57.9 0.4 58.3 1 58.3H43.6C44.1 58.3 44.6 57.9 44.6 57.3C44.6 56.7 44.1 56.3 43.6 56.3Z" fill="#008440"/>
<path d="M1 49.9H3.7C4.2 49.9 4.7 49.5 4.7 48.9C4.7 48.3 4.3 47.9 3.7 47.9H1C0.5 47.9 0 48.3 0 48.9C0 49.5 0.4 49.9 1 49.9Z" fill="#008440"/>
<path d="M62.2001 48H19.6001C19.1001 48 18.6001 48.4 18.6001 49C18.6001 49.6 19.0001 50 19.6001 50H62.2001C62.7001 50 63.2001 49.6 63.2001 49C63.2001 48.4 62.8001 48 62.2001 48Z" fill="#008440"/>
<path d="M41.2 28.2C41.3 28.8 41.6999 29.2 42.2999 29.2C42.5999 29.2 42.8 29.1 43 28.9C43.2 28.7 43.2 28.5 43.2 28.3C42.9 25.7 41.7 23.2 39.9 21.4C37.7 19.2 34.8 18 31.7 18C28.6 18 25.7 19.2 23.5 21.4C21.6 23.3 20.5 25.7 20.2 28.3C20.2 28.5 20.2 28.7 20.4 28.9C20.6 29.1 20.8 29.2 21.1 29.2C21.6 29.2 22.1 28.8 22.2 28.2C22.5 26.1 23.5 24.2 24.9 22.7C26.6999 20.9 29.1999 19.9 31.7999 19.9C34.3999 19.9 36.8 20.9 38.7 22.7C39.9 24.2 40.9 26.2 41.2 28.2Z" fill="#008440"/>
</svg>
