<svg width="66" height="64" viewBox="0 0 66 64" fill="none" xmlns="http://www.w3.org/2000/svg">
<path d="M42.2812 60C42.2812 62.2091 40.4904 64 38.2813 64H27.7187C25.5096 64 23.7188 62.2091 23.7188 60V59.7419C23.7188 57.5328 25.5096 55.7419 27.7187 55.7419H38.2813C40.4904 55.7419 42.2812 57.5328 42.2812 59.7419V60ZM25.7812 59.871C25.7812 61.0112 26.7056 61.9355 27.8458 61.9355H38.1542C39.2944 61.9355 40.2188 61.0112 40.2188 59.871V59.871C40.2188 58.7308 39.2944 57.8065 38.1542 57.8065H27.8458C26.7056 57.8065 25.7812 58.7308 25.7812 59.871V59.871Z" fill="#008440"/>
<path d="M34.0312 55.743V51.6119C34.0312 51.0424 33.5695 50.5807 33 50.5807C32.4305 50.5807 31.9688 51.0424 31.9688 51.6119V55.743C31.9688 56.3125 32.4305 56.7742 33 56.7742C33.5695 56.7742 34.0312 56.3125 34.0312 55.743Z" fill="#008440"/>
<path d="M23.7177 58.8387H1.03226C0.462157 58.8387 0 59.3009 0 59.871C0 60.4411 0.462157 60.9033 1.03226 60.9033H23.7177C24.2878 60.9033 24.75 60.4411 24.75 59.871C24.75 59.3009 24.2878 58.8387 23.7177 58.8387Z" fill="#008440"/>
<path d="M64.9677 58.8387H42.2823C41.7122 58.8387 41.25 59.3009 41.25 59.871C41.25 60.4411 41.7122 60.9033 42.2823 60.9033H64.9677C65.5378 60.9033 66 60.4411 66 59.871C66 59.3009 65.5378 58.8387 64.9677 58.8387Z" fill="#008440"/>
<path d="M56.7188 44.6129C56.7188 48.4789 53.5847 51.6129 49.7188 51.6129H16.2812C12.4153 51.6129 9.28125 48.4789 9.28125 44.6129V7C9.28125 3.134 12.4153 0 16.2812 0H49.7188C53.5847 0 56.7188 3.13401 56.7188 7V44.6129ZM11.3438 43.5484C11.3438 46.8621 14.03 49.5484 17.3437 49.5484H48.6563C51.97 49.5484 54.6562 46.8621 54.6562 43.5484V8.06451C54.6562 4.7508 51.97 2.06452 48.6563 2.06452H17.3437C14.03 2.06452 11.3438 4.75081 11.3438 8.06452V43.5484Z" fill="#008440"/>
<path d="M54.6552 16.5161H11.3448C10.7747 16.5161 10.3125 16.9783 10.3125 17.5484C10.3125 18.1185 10.7747 18.5806 11.3448 18.5806H54.6552C55.2253 18.5806 55.6875 18.1185 55.6875 17.5484C55.6875 16.9783 55.2253 16.5161 54.6552 16.5161Z" fill="#008440"/>
<path d="M54.6552 33.0322H11.3448C10.7747 33.0322 10.3125 33.4944 10.3125 34.0645C10.3125 34.6346 10.7747 35.0967 11.3448 35.0967H54.6552C55.2253 35.0967 55.6875 34.6346 55.6875 34.0645C55.6875 33.4944 55.2253 33.0322 54.6552 33.0322Z" fill="#008440"/>
<path d="M26.8125 9.29038C26.8125 11.0007 25.426 12.3872 23.7157 12.3872H17.5343C15.824 12.3872 14.4375 11.0007 14.4375 9.29038V9.29038C14.4375 7.58008 15.824 6.1936 17.5343 6.1936H23.7157C25.426 6.1936 26.8125 7.58008 26.8125 9.29038V9.29038ZM16.5 9.29038C16.5 9.86048 16.9622 10.3226 17.5323 10.3226H23.7177C24.2878 10.3226 24.75 9.86048 24.75 9.29038V9.29038C24.75 8.72028 24.2878 8.25812 23.7177 8.25812H17.5323C16.9622 8.25812 16.5 8.72028 16.5 9.29038V9.29038Z" fill="#008440"/>
<path d="M47.4375 13.4193C46.6217 13.4193 45.8241 13.1772 45.1458 12.7235C44.4674 12.2697 43.9387 11.6249 43.6265 10.8704C43.3143 10.1159 43.2326 9.28571 43.3918 8.48475C43.5509 7.6838 43.9438 6.94808 44.5207 6.37062C45.0976 5.79317 45.8326 5.39991 46.6328 5.24059C47.4329 5.08128 48.2623 5.16304 49.0161 5.47556C49.7698 5.78808 50.414 6.31731 50.8673 6.99632C51.3206 7.67534 51.5625 8.47364 51.5625 9.29029C51.5625 10.3854 51.1279 11.4356 50.3543 12.21C49.5807 12.9843 48.5315 13.4193 47.4375 13.4193ZM47.4375 7.22577C47.0296 7.22577 46.6308 7.34685 46.2916 7.57371C45.9525 7.80056 45.6881 8.12299 45.532 8.50023C45.3759 8.87747 45.3351 9.29258 45.4146 9.69306C45.4942 10.0935 45.6906 10.4614 45.9791 10.7501C46.2675 11.0389 46.635 11.2355 47.0351 11.3151C47.4352 11.3948 47.8499 11.3539 48.2268 11.1977C48.6037 11.0414 48.9258 10.7768 49.1524 10.4373C49.379 10.0978 49.5 9.69861 49.5 9.29029C49.5 8.74275 49.2827 8.21763 48.8959 7.83046C48.5091 7.44328 47.9845 7.22577 47.4375 7.22577Z" fill="#008440"/>
<path d="M38.1562 9.29031C38.1562 9.85986 38.618 10.3226 39.1875 10.3226C39.757 10.3226 40.2188 9.85986 40.2188 9.29031C40.2188 8.72077 39.757 8.25806 39.1875 8.25806C38.618 8.25806 38.1562 8.72077 38.1562 9.29031Z" fill="#008440"/>
<path d="M34.0312 9.29031C34.0312 9.85986 34.493 10.3226 35.0625 10.3226C35.632 10.3226 36.0938 9.85986 36.0938 9.29031C36.0938 8.72077 35.632 8.25806 35.0625 8.25806C34.493 8.25806 34.0312 8.72077 34.0312 9.29031Z" fill="#008440"/>
<path d="M29.9062 9.29031C29.9062 9.85986 30.368 10.3226 30.9375 10.3226C31.507 10.3226 31.9688 9.85986 31.9688 9.29031C31.9688 8.72077 31.507 8.25806 30.9375 8.25806C30.368 8.25806 29.9062 8.72077 29.9062 9.29031Z" fill="#008440"/>
<path d="M26.8125 25.8065C26.8125 27.5168 25.426 28.9033 23.7157 28.9033H17.5343C15.824 28.9033 14.4375 27.5168 14.4375 25.8065V25.8065C14.4375 24.0962 15.824 22.7097 17.5343 22.7097H23.7157C25.426 22.7097 26.8125 24.0962 26.8125 25.8065V25.8065ZM16.5 25.8065C16.5 26.3766 16.9622 26.8387 17.5323 26.8387H23.7177C24.2878 26.8387 24.75 26.3766 24.75 25.8065V25.8065C24.75 25.2364 24.2878 24.7742 23.7177 24.7742H17.5323C16.9622 24.7742 16.5 25.2364 16.5 25.8065V25.8065Z" fill="#008440"/>
<path d="M47.4375 29.9354C46.6217 29.9354 45.8241 29.6933 45.1458 29.2396C44.4674 28.7859 43.9387 28.141 43.6265 27.3865C43.3143 26.632 43.2326 25.8018 43.3918 25.0009C43.5509 24.1999 43.9438 23.4642 44.5207 22.8867C45.0976 22.3093 45.8326 21.916 46.6328 21.7567C47.4329 21.5974 48.2623 21.6792 49.0161 21.9917C49.7698 22.3042 50.414 22.8334 50.8673 23.5124C51.3206 24.1915 51.5625 24.9898 51.5625 25.8064C51.5625 26.9015 51.1279 27.9517 50.3543 28.7261C49.5807 29.5004 48.5315 29.9354 47.4375 29.9354ZM47.4375 23.7419C47.0296 23.7419 46.6308 23.863 46.2916 24.0898C45.9525 24.3167 45.6881 24.6391 45.532 25.0163C45.3759 25.3936 45.3351 25.8087 45.4146 26.2092C45.4942 26.6096 45.6906 26.9775 45.9791 27.2662C46.2675 27.555 46.635 27.7516 47.0351 27.8312C47.4352 27.9109 47.8499 27.87 48.2268 27.7138C48.6037 27.5575 48.9258 27.2929 49.1524 26.9534C49.379 26.6139 49.5 26.2147 49.5 25.8064C49.5 25.2589 49.2827 24.7337 48.8959 24.3466C48.5091 23.9594 47.9845 23.7419 47.4375 23.7419Z" fill="#008440"/>
<path d="M38.1562 25.8064C38.1562 26.376 38.618 26.8387 39.1875 26.8387C39.757 26.8387 40.2188 26.376 40.2188 25.8064C40.2188 25.2369 39.757 24.7742 39.1875 24.7742C38.618 24.7742 38.1562 25.2369 38.1562 25.8064Z" fill="#008440"/>
<path d="M34.0312 25.8064C34.0312 26.376 34.493 26.8387 35.0625 26.8387C35.632 26.8387 36.0938 26.376 36.0938 25.8064C36.0938 25.2369 35.632 24.7742 35.0625 24.7742C34.493 24.7742 34.0312 25.2369 34.0312 25.8064Z" fill="#008440"/>
<path d="M29.9062 25.8064C29.9062 26.376 30.368 26.8387 30.9375 26.8387C31.507 26.8387 31.9688 26.376 31.9688 25.8064C31.9688 25.2369 31.507 24.7742 30.9375 24.7742C30.368 24.7742 29.9062 25.2369 29.9062 25.8064Z" fill="#008440"/>
<path d="M26.8125 42.3226C26.8125 44.0329 25.426 45.4194 23.7157 45.4194H17.5343C15.824 45.4194 14.4375 44.0329 14.4375 42.3226V42.3226C14.4375 40.6123 15.824 39.2258 17.5343 39.2258H23.7157C25.426 39.2258 26.8125 40.6123 26.8125 42.3226V42.3226ZM16.5 42.3226C16.5 42.8927 16.9622 43.3549 17.5323 43.3549H23.7177C24.2878 43.3549 24.75 42.8927 24.75 42.3226V42.3226C24.75 41.7525 24.2878 41.2903 23.7177 41.2903H17.5323C16.9622 41.2903 16.5 41.7525 16.5 42.3226V42.3226Z" fill="#008440"/>
<path d="M47.4375 46.4517C46.6217 46.4517 45.8241 46.2095 45.1458 45.7558C44.4674 45.3021 43.9387 44.6572 43.6265 43.9027C43.3143 43.1483 43.2326 42.3181 43.3918 41.5171C43.5509 40.7161 43.9438 39.9804 44.5207 39.403C45.0976 38.8255 45.8326 38.4323 46.6328 38.2729C47.4329 38.1136 48.2623 38.1954 49.0161 38.5079C49.7698 38.8204 50.414 39.3497 50.8673 40.0287C51.3206 40.7077 51.5625 41.506 51.5625 42.3226C51.5625 43.4177 51.1279 44.468 50.3543 45.2423C49.5807 46.0166 48.5315 46.4517 47.4375 46.4517ZM47.4375 40.2581C47.0296 40.2581 46.6308 40.3792 46.2916 40.6061C45.9525 40.8329 45.6881 41.1553 45.532 41.5326C45.3759 41.9098 45.3351 42.3249 45.4146 42.7254C45.4942 43.1259 45.6906 43.4937 45.9791 43.7825C46.2675 44.0712 46.635 44.2678 47.0351 44.3475C47.4352 44.4271 47.8499 44.3863 48.2268 44.23C48.6037 44.0737 48.9258 43.8091 49.1524 43.4696C49.379 43.1301 49.5 42.731 49.5 42.3226C49.5 41.7751 49.2827 41.25 48.8959 40.8628C48.5091 40.4756 47.9845 40.2581 47.4375 40.2581Z" fill="#008440"/>
<path d="M38.1562 42.3225C38.1562 42.8921 38.618 43.3548 39.1875 43.3548C39.757 43.3548 40.2188 42.8921 40.2188 42.3225C40.2188 41.753 39.757 41.2903 39.1875 41.2903C38.618 41.2903 38.1562 41.753 38.1562 42.3225Z" fill="#008440"/>
<path d="M34.0312 42.3225C34.0312 42.8921 34.493 43.3548 35.0625 43.3548C35.632 43.3548 36.0938 42.8921 36.0938 42.3225C36.0938 41.753 35.632 41.2903 35.0625 41.2903C34.493 41.2903 34.0312 41.753 34.0312 42.3225Z" fill="#008440"/>
<path d="M29.9062 42.3225C29.9062 42.8921 30.368 43.3548 30.9375 43.3548C31.507 43.3548 31.9688 42.8921 31.9688 42.3225C31.9688 41.753 31.507 41.2903 30.9375 41.2903C30.368 41.2903 29.9062 41.753 29.9062 42.3225Z" fill="#008440"/>
</svg>
