<svg width="40" height="40" viewBox="0 0 40 40" fill="none" xmlns="http://www.w3.org/2000/svg">
<path d="M27.6389 21.7264V27.3746H24.3648V22.1038C24.3648 20.7807 23.8912 19.8778 22.7057 19.8778C21.8012 19.8778 21.2619 20.4858 21.0251 21.0756C20.9396 21.2864 20.9166 21.5797 20.9166 21.8731V27.3746H17.6411C17.6411 27.3746 17.6854 18.4493 17.6411 17.525H20.9166V18.9199L20.8952 18.952H20.9166V18.9214C21.3521 18.2492 22.1282 17.2928 23.8683 17.2928C26.0225 17.2928 27.6389 18.7014 27.6389 21.7264V21.7264ZM14.2143 12.7751C13.0944 12.7751 12.3611 13.5115 12.3611 14.4771C12.3611 15.4243 13.073 16.1806 14.1715 16.1806H14.1929C15.3357 16.1806 16.0461 15.4228 16.0461 14.4771C16.0247 13.5115 15.3357 12.7751 14.2143 12.7751ZM12.5551 27.3746H15.8307V17.525H12.5551V27.3746V27.3746Z" fill="white"/>
<path d="M19.7223 31.7222C22.9049 31.7222 25.9571 30.4579 28.2076 28.2075C30.458 25.957 31.7223 22.9048 31.7223 19.7222C31.7223 16.5396 30.458 13.4873 28.2076 11.2369C25.9571 8.98645 22.9049 7.72217 19.7223 7.72217C16.5397 7.72217 13.4874 8.98645 11.237 11.2369C8.98657 13.4873 7.72229 16.5396 7.72229 19.7222C7.72229 22.9048 8.98657 25.957 11.237 28.2075C13.4874 30.4579 16.5397 31.7222 19.7223 31.7222V31.7222ZM19.7223 34.7222C11.4378 34.7222 4.72229 28.0067 4.72229 19.7222C4.72229 11.4377 11.4378 4.72217 19.7223 4.72217C28.0068 4.72217 34.7223 11.4377 34.7223 19.7222C34.7223 28.0067 28.0068 34.7222 19.7223 34.7222Z" fill="white"/>
</svg>
