<svg width="192" height="184" viewBox="0 0 192 184" fill="none" xmlns="http://www.w3.org/2000/svg">
<g opacity="0.1" clip-path="url(#clip0)">
<path d="M92.7706 129.012L87.188 111.86H66.5755L73.0169 92.3176L56.2692 80.1999L72.931 68.2529L66.4896 48.711H87.1021L93.4577 29.2544L110.205 41.2868L126.867 29.2544L133.223 48.711H153.835L147.394 68.2529L163.97 80.1999L147.394 92.1469L153.835 111.689H133.223L126.867 131.145M70.8697 123.721L55.1527 140.874L65.1154 149.919V181.579H112.095V143.348L102.132 134.218M102.132 134.218L86.415 151.37M102.132 134.218L117.935 117.15M30.3317 181.494H65.1154M55.1527 140.788L39.4356 157.941M164.914 123.721L149.197 140.874L159.16 149.919V181.579H190.079M112.095 181.494H159.16M149.197 140.788L133.394 157.941M110.205 57.7566C116.475 57.7566 121.8 59.9753 126.266 64.3274C130.732 68.7649 132.879 74.0557 132.879 80.2853C132.879 86.5148 130.646 91.8056 126.266 96.2431C121.8 100.681 116.475 102.814 110.205 102.814C103.936 102.814 98.6108 100.595 94.1447 96.2431C89.6787 91.8056 87.4457 86.5148 87.4457 80.2853C87.4457 74.0557 89.6787 68.7649 94.1447 64.3274C98.6108 59.9753 103.936 57.7566 110.205 57.7566Z" stroke="white" stroke-width="4" stroke-miterlimit="3" stroke-linecap="round" stroke-linejoin="round"/>
</g>
<defs>
<clipPath id="clip0">
<rect width="192" height="184" fill="white"/>
</clipPath>
</defs>
</svg>
