<svg width="22" height="8" viewBox="0 0 22 8" fill="none" xmlns="http://www.w3.org/2000/svg">
<path fill-rule="evenodd" clip-rule="evenodd" d="M18.3795 0.159097L21.8407 3.61591C22.0531 3.82804 22.0531 4.17196 21.8407 4.38409L18.3795 7.84091C18.1671 8.05303 17.8227 8.05303 17.6103 7.84091C17.3979 7.62878 17.3979 7.28485 17.6103 7.07272L20.1431 4.54319L0.543882 4.54319C0.243504 4.54319 -3.62481e-07 4.29999 -3.37193e-07 4C-3.11904e-07 3.70001 0.243505 3.45681 0.543883 3.45681L20.1431 3.45682L17.6103 0.927278C17.3979 0.715151 17.3979 0.371224 17.6103 0.159097C17.8227 -0.0530302 18.1671 -0.0530302 18.3795 0.159097Z" fill="#EB7700"/>
</svg>
