<svg width="64" height="64" viewBox="0 0 64 64" fill="none" xmlns="http://www.w3.org/2000/svg">
<g filter="url(#filter0_d)">
<circle cx="32" cy="27" r="24" fill="#EB7700"/>
</g>
<path fill-rule="evenodd" clip-rule="evenodd" d="M45.7071 27.2928L39.3431 20.9289C38.9526 20.5384 38.3195 20.5384 37.9289 20.9289C37.5384 21.3194 37.5384 21.9526 37.9289 22.3431L42.5858 26.9999H19.001C19.0007 26.9999 19.0003 26.9999 19 26.9999L18 26.9999C17.4477 26.9999 17 27.4477 17 27.9999C17 28.5522 17.4477 28.9999 18 28.9999H19H42.5858L37.9289 33.6568C37.5384 34.0473 37.5384 34.6805 37.9289 35.071C38.3195 35.4615 38.9526 35.4615 39.3431 35.071L45.7071 28.7071C46.0976 28.3165 46.0976 27.6834 45.7071 27.2928Z" fill="white"/>
<defs>
<filter id="filter0_d" x="0" y="0" width="64" height="64" filterUnits="userSpaceOnUse" color-interpolation-filters="sRGB">
<feFlood flood-opacity="0" result="BackgroundImageFix"/>
<feColorMatrix in="SourceAlpha" type="matrix" values="0 0 0 0 0 0 0 0 0 0 0 0 0 0 0 0 0 0 127 0"/>
<feOffset dy="5"/>
<feGaussianBlur stdDeviation="4"/>
<feColorMatrix type="matrix" values="0 0 0 0 0 0 0 0 0 0 0 0 0 0 0 0 0 0 0.14 0"/>
<feBlend mode="normal" in2="BackgroundImageFix" result="effect1_dropShadow"/>
<feBlend mode="normal" in="SourceGraphic" in2="effect1_dropShadow" result="shape"/>
</filter>
</defs>
</svg>
