<svg width="64" height="64" viewBox="0 0 64 64" fill="none" xmlns="http://www.w3.org/2000/svg">
<g filter="url(#filter0_d)">
<circle cx="32" cy="27" r="24" fill="white"/>
</g>
<path fill-rule="evenodd" clip-rule="evenodd" d="M40.7071 28.7074C41.0976 28.3168 41.0976 27.6837 40.7071 27.2932L34.3432 20.9291C33.9527 20.5386 33.3195 20.5386 32.929 20.9291C32.5385 21.3196 32.5385 21.9528 32.929 22.3433L37.5858 27.0002L28.0093 27.0001C28.0062 27.0001 28.0031 27.0001 28 27.0001L23.5046 27.0001L23 27.0001L23 27.0001C22.4477 27.0001 22 27.4478 22 28.0001C22 28.5524 22.4477 29.0001 23 29.0001H23.4995L37.5858 29.0002L32.9289 33.657C32.5384 34.0476 32.5383 34.6807 32.9289 35.0713C33.3194 35.4618 33.9526 35.4618 34.3431 35.0713L40.7071 28.7074Z" fill="#EB7700"/>
<defs>
<filter id="filter0_d" x="0" y="0" width="64" height="64" filterUnits="userSpaceOnUse" color-interpolation-filters="sRGB">
<feFlood flood-opacity="0" result="BackgroundImageFix"/>
<feColorMatrix in="SourceAlpha" type="matrix" values="0 0 0 0 0 0 0 0 0 0 0 0 0 0 0 0 0 0 127 0"/>
<feOffset dy="5"/>
<feGaussianBlur stdDeviation="4"/>
<feColorMatrix type="matrix" values="0 0 0 0 0 0 0 0 0 0 0 0 0 0 0 0 0 0 0.14 0"/>
<feBlend mode="normal" in2="BackgroundImageFix" result="effect1_dropShadow"/>
<feBlend mode="normal" in="SourceGraphic" in2="effect1_dropShadow" result="shape"/>
</filter>
</defs>
</svg>
