<svg width="71" height="24" viewBox="0 0 71 24" fill="none" xmlns="http://www.w3.org/2000/svg">
<path d="M6.36574 14.152L9.71174 6.088H11.2517V16H10.2437V7.432H10.2157L6.63174 16H6.09974L2.51574 7.432H2.48774V16H1.47974V6.088H3.01974L6.36574 14.152ZM22.5028 11.044C22.5028 10.4747 22.4095 9.93333 22.2228 9.42C22.0362 8.89733 21.7655 8.44 21.4108 8.048C21.0655 7.656 20.6408 7.34333 20.1368 7.11C19.6328 6.87667 19.0635 6.76 18.4288 6.76C17.7942 6.76 17.2248 6.87667 16.7208 7.11C16.2168 7.34333 15.7875 7.656 15.4328 8.048C15.0875 8.44 14.8215 8.89733 14.6348 9.42C14.4482 9.93333 14.3548 10.4747 14.3548 11.044C14.3548 11.6133 14.4482 12.1593 14.6348 12.682C14.8215 13.1953 15.0875 13.648 15.4328 14.04C15.7875 14.432 16.2168 14.7447 16.7208 14.978C17.2248 15.2113 17.7942 15.328 18.4288 15.328C19.0635 15.328 19.6328 15.2113 20.1368 14.978C20.6408 14.7447 21.0655 14.432 21.4108 14.04C21.7655 13.648 22.0362 13.1953 22.2228 12.682C22.4095 12.1593 22.5028 11.6133 22.5028 11.044ZM23.5948 11.044C23.5948 11.8 23.4642 12.4953 23.2028 13.13C22.9415 13.7647 22.5775 14.3153 22.1108 14.782C21.6535 15.2393 21.1075 15.5987 20.4728 15.86C19.8475 16.1213 19.1662 16.252 18.4288 16.252C17.6915 16.252 17.0055 16.1213 16.3708 15.86C15.7455 15.5987 15.1995 15.2393 14.7328 14.782C14.2755 14.3153 13.9162 13.7647 13.6548 13.13C13.3935 12.4953 13.2628 11.8 13.2628 11.044C13.2628 10.288 13.3935 9.59267 13.6548 8.958C13.9162 8.32333 14.2755 7.77733 14.7328 7.32C15.1995 6.85333 15.7455 6.48933 16.3708 6.228C17.0055 5.96667 17.6915 5.836 18.4288 5.836C19.1662 5.836 19.8475 5.96667 20.4728 6.228C21.1075 6.48933 21.6535 6.85333 22.1108 7.32C22.5775 7.77733 22.9415 8.32333 23.2028 8.958C23.4642 9.59267 23.5948 10.288 23.5948 11.044ZM26.6186 10.47H28.4106C28.8586 10.47 29.2366 10.4233 29.5446 10.33C29.8619 10.2367 30.1139 10.1153 30.3006 9.966C30.4873 9.80733 30.6226 9.62533 30.7066 9.42C30.7906 9.20533 30.8326 8.97667 30.8326 8.734C30.8326 8.50067 30.7906 8.28133 30.7066 8.076C30.6226 7.86133 30.4873 7.67467 30.3006 7.516C30.1139 7.35733 29.8619 7.236 29.5446 7.152C29.2366 7.05867 28.8586 7.012 28.4106 7.012H26.6186V10.47ZM26.6186 16H25.6106V6.088H28.6626C29.6706 6.088 30.4639 6.30733 31.0426 6.746C31.6306 7.18467 31.9246 7.84733 31.9246 8.734C31.9246 9.42467 31.7053 10.008 31.2666 10.484C30.8373 10.9507 30.2119 11.2213 29.3906 11.296L32.2466 16H31.0146L28.2986 11.394H26.6186V16ZM34.9174 15.076H40.2234V16H33.9094V6.088H40.0554V7.012H34.9174V10.386H39.7194V11.31H34.9174V15.076Z" fill="#A69B9B"/>
<path fill-rule="evenodd" clip-rule="evenodd" d="M67.3795 7.1591L70.8407 10.6159C71.0531 10.828 71.0531 11.172 70.8407 11.3841L67.3795 14.8409C67.1671 15.053 66.8227 15.053 66.6103 14.8409C66.3979 14.6288 66.3979 14.2849 66.6103 14.0727L69.1431 11.5432L49.5439 11.5432C49.2435 11.5432 49 11.3 49 11C49 10.7 49.2435 10.4568 49.5439 10.4568L69.1431 10.4568L66.6103 7.92728C66.3979 7.71515 66.3979 7.37122 66.6103 7.1591C66.8227 6.94697 67.1671 6.94697 67.3795 7.1591Z" fill="#A69B9B"/>
</svg>
