<svg width="31" height="31" viewBox="0 0 31 31" fill="none" xmlns="http://www.w3.org/2000/svg">
<g clip-path="url(#clip0)">
<path d="M29.6233 14.2867C29.8185 13.4485 29.3973 12.5695 28.5858 12.2118C28.5037 12.1709 28.4215 12.1504 28.329 12.1198L23.5524 7.36678C23.2032 7.01925 22.7512 6.83526 22.2581 6.83526C21.7651 6.83526 21.3131 7.02947 20.9638 7.36678C20.9638 7.36678 20.9638 7.36678 20.9536 7.377L16.7009 11.6087L15.5093 7.08058H15.6942C15.951 7.08058 16.1564 6.87615 16.1564 6.62061C16.1564 6.36507 15.951 6.16064 15.6942 6.16064H10.5375C9.42812 6.16064 8.53443 7.04991 8.53443 8.15383V10.8114H2.63817C2.51491 10.8114 2.40191 10.8625 2.30946 10.9443L0.861078 12.3855C0.7789 12.4673 0.727539 12.5899 0.727539 12.7126V16.4332C0.727539 16.5559 0.7789 16.6683 0.861078 16.7603L2.30946 18.2015C2.39164 18.2833 2.51491 18.3344 2.63817 18.3344H4.56935C3.91193 18.9477 3.50104 19.8267 3.50104 20.7876C3.50104 22.6479 5.02133 24.1606 6.89088 24.1606H18.5909C20.4605 24.1606 21.9808 22.6479 21.9808 20.7876C21.9808 18.9273 20.4605 17.4145 18.5909 17.4145H17.6562L21.2823 13.8063C21.3645 13.7245 21.4055 13.6325 21.4158 13.5201L21.5494 11.9562L22.5971 10.9136L26.0794 14.3787C26.0999 14.44 26.1102 14.4911 26.1308 14.5525C26.254 14.8591 26.4492 15.1146 26.6957 15.3191L25.4425 18.1402L25.0214 17.9562C24.7851 17.854 24.518 17.9562 24.4153 18.1913C24.3126 18.4264 24.4153 18.6922 24.6516 18.7944L26.3259 19.5303C26.7266 19.7041 27.158 19.7961 27.5997 19.7961C28.8426 19.7961 29.9623 19.0704 30.4656 17.9358C31.0306 16.6376 30.6505 15.1658 29.6233 14.2867ZM27.4764 14.7058C27.2607 14.6036 27.0861 14.4298 27.0039 14.2049C26.9217 13.9801 26.9217 13.7348 27.0245 13.5201C27.1683 13.193 27.497 12.9886 27.8565 12.9886C27.9798 12.9886 28.103 13.0192 28.2263 13.0704C28.6783 13.2748 28.894 13.8063 28.6886 14.256C28.5447 14.5831 28.216 14.7876 27.8565 14.7876C27.7127 14.7876 27.5894 14.7569 27.4764 14.7058ZM15.8894 12.0891H14.215L13.2494 10.975C13.1569 10.8727 13.0337 10.8114 12.9001 10.8114H11.8935V7.08058H14.5642L15.8894 12.0891ZM9.45894 8.15383C9.45894 7.56099 9.94173 7.08058 10.5375 7.08058H10.9587V10.8114H9.45894V8.15383ZM1.65204 16.239V12.9068L2.83335 11.7313H12.6844L13.65 12.8455C13.7425 12.9477 13.8657 13.009 13.9993 13.009H16.0332V15.2577H11.0819C10.8251 15.2577 10.6197 15.4622 10.6197 15.7177C10.6197 15.9733 10.8251 16.1777 11.0819 16.1777H16.0332V17.4043H2.84362L1.65204 16.239ZM21.0563 20.7876C21.0563 22.1368 19.9469 23.2407 18.5909 23.2407H6.89088C5.53494 23.2407 4.42554 22.1368 4.42554 20.7876C4.42554 19.4383 5.53494 18.3344 6.89088 18.3344H18.5909C19.9469 18.3344 21.0563 19.4383 21.0563 20.7876ZM20.7789 11.4145C20.6968 11.4962 20.6557 11.5882 20.6454 11.7007L20.5119 13.2646L16.9474 16.8114V12.6819L21.6213 8.03117C21.7959 7.86763 22.0219 7.77564 22.2581 7.77564C22.5047 7.77564 22.7307 7.86763 22.895 8.04139C23.0696 8.21516 23.1621 8.44003 23.1621 8.67512C23.1621 8.92044 23.0696 9.14531 22.895 9.30886L20.7789 11.4145ZM23.5627 9.95281C23.7887 9.72794 23.9531 9.45196 24.0352 9.14531L27.1169 12.2118C26.706 12.3957 26.367 12.7126 26.1719 13.1419V13.1521L23.2648 10.2492L23.5627 9.95281ZM29.6131 17.5576C29.2535 18.3549 28.4626 18.8659 27.5894 18.8659C27.2813 18.8659 26.9834 18.8046 26.6957 18.6717L26.2951 18.4877L27.5483 15.6666C27.6511 15.687 27.7435 15.6973 27.8462 15.6973C28.3598 15.6973 28.8426 15.4826 29.1816 15.1249C29.7877 15.7586 29.9931 16.7092 29.6131 17.5576Z" fill="#008440"/>
<path d="M3.81967 12.9375C3.56287 12.9375 3.35742 13.1419 3.35742 13.3975V14.4912C3.35742 14.7467 3.56287 14.9511 3.81967 14.9511C4.07648 14.9511 4.28192 14.7467 4.28192 14.4912V13.3975C4.28192 13.1419 4.07648 12.9375 3.81967 12.9375Z" fill="#008440"/>
<path d="M5.6683 12.9375C5.4115 12.9375 5.20605 13.1419 5.20605 13.3975V14.4912C5.20605 14.7467 5.4115 14.9511 5.6683 14.9511C5.92511 14.9511 6.13055 14.7467 6.13055 14.4912V13.3975C6.13055 13.1419 5.92511 12.9375 5.6683 12.9375Z" fill="#008440"/>
<path d="M7.51743 12.9375C7.26062 12.9375 7.05518 13.1419 7.05518 13.3975V14.4912C7.05518 14.7467 7.26062 14.9511 7.51743 14.9511C7.77423 14.9511 7.97968 14.7467 7.97968 14.4912V13.3975C7.97968 13.1419 7.77423 12.9375 7.51743 12.9375Z" fill="#008440"/>
<path d="M6.89114 19.6836C6.27481 19.6836 5.78174 20.1844 5.78174 20.7875C5.78174 21.4008 6.28508 21.8914 6.89114 21.8914C7.34312 21.8914 7.72319 21.6257 7.89782 21.2475H17.5743C17.7489 21.6257 18.1392 21.8914 18.5809 21.8914C19.1973 21.8914 19.6903 21.3906 19.6903 20.7875C19.6903 20.1742 19.187 19.6836 18.5809 19.6836C18.129 19.6836 17.7489 19.9494 17.5743 20.3275H7.89782C7.72319 19.9494 7.33284 19.6836 6.89114 19.6836Z" fill="#008440"/>
</g>
<defs>
<clipPath id="clip0">
<rect width="30" height="30" fill="white" transform="translate(0.727539 0.160645)"/>
</clipPath>
</defs>
</svg>
