<svg width="31" height="31" viewBox="0 0 31 31" fill="none" xmlns="http://www.w3.org/2000/svg">
<g clip-path="url(#clip0)">
<path fill-rule="evenodd" clip-rule="evenodd" d="M27.539 13.6848C27.2827 13.6848 27.0749 13.8926 27.0749 14.1489C27.0749 14.1591 27.0666 14.1674 27.0563 14.1674H26.3602C26.232 14.1674 26.1281 14.0636 26.1281 13.9354C26.1281 13.8072 26.0242 13.7033 25.896 13.7033H22.6287C22.5006 13.7033 22.3967 13.8072 22.3967 13.9354C22.3967 14.0636 22.2928 14.1674 22.1646 14.1674H21.7005C21.5723 14.1674 21.4684 14.0636 21.4684 13.9354C21.4684 13.8072 21.3629 13.7004 21.2388 13.7323C20.8384 13.8352 20.5402 14.2002 20.5402 14.6316V16.7572L21.06 17.6668C21.3942 18.2516 21.3942 18.9478 21.06 19.5325C20.9301 19.7646 20.7444 19.9595 20.5402 20.108V23.9601C20.7965 23.9601 21.0043 24.1679 21.0043 24.4243C21.0043 24.6806 20.7965 24.8884 20.5402 24.8884C20.5402 25.3197 20.8384 25.6848 21.2388 25.7876C21.3629 25.8195 21.4684 25.7127 21.4684 25.5845C21.4684 25.4564 21.5723 25.3525 21.7005 25.3525H22.1646C22.2928 25.3525 22.3967 25.4564 22.3967 25.5845C22.3967 25.7127 22.5006 25.8166 22.6287 25.8166H25.896C26.0242 25.8166 26.1281 25.7127 26.1281 25.5845C26.1281 25.4564 26.232 25.3525 26.3602 25.3525H26.8243C26.9524 25.3525 27.0563 25.4564 27.0563 25.5845C27.0563 25.7127 27.1602 25.8166 27.2884 25.8166H29.8595C30.1159 25.8166 30.3236 26.0244 30.3236 26.2807C30.3236 26.537 30.1159 26.7448 29.8595 26.7448H27.2884C27.1602 26.7448 27.0563 26.8487 27.0563 26.9769C27.0563 27.105 26.9524 27.2089 26.8243 27.2089H26.3602C26.232 27.2089 26.1281 27.105 26.1281 26.9769C26.1281 26.8487 26.0242 26.7448 25.896 26.7448H22.6287C22.5006 26.7448 22.3967 26.8487 22.3967 26.9769C22.3967 27.105 22.2928 27.2089 22.1646 27.2089H21.7005C21.5723 27.2089 21.4684 27.105 21.4684 26.9769C21.4684 26.8487 21.364 26.7463 21.2368 26.7306C20.3158 26.6165 19.6027 25.831 19.6027 24.8791H18.6745V27.7844L17.6951 29.7433C17.5798 29.9738 17.2995 30.0672 17.069 29.952C16.8383 29.8366 16.745 29.5558 16.8607 29.3252L17.7463 27.5616V24.8791H16.8181V27.7844L15.8407 29.7391C15.7243 29.9719 15.4412 30.0663 15.2084 29.9499C14.9786 29.835 14.8831 29.5572 14.9937 29.3254L15.8527 27.5245V24.842H14.9245V27.7473L13.9451 29.7062C13.8298 29.9367 13.5495 30.0301 13.319 29.9148C13.0883 29.7995 12.995 29.5187 13.1107 29.2881L13.9963 27.5245V24.842H13.0681V27.7473L12.0886 29.7062C11.9734 29.9367 11.6931 30.0301 11.4626 29.9148C11.2318 29.7995 11.1385 29.5187 11.2543 29.2881L12.1399 27.5245V24.842H11.2116V27.7473L10.2322 29.7062C10.1169 29.9367 9.83666 30.0301 9.60617 29.9148C9.3754 29.7995 9.28208 29.5187 9.39786 29.2881L10.2834 27.5245V24.842C10.0271 24.842 9.81931 24.6342 9.81931 24.3778C9.81931 24.1215 10.0271 23.9137 10.2834 23.9137V20.0616C10.0792 19.9131 9.90285 19.7182 9.76361 19.4861C9.42946 18.9014 9.42946 18.2052 9.76361 17.6204L10.2834 16.7108V6.19406C10.0271 6.19406 9.81931 5.98627 9.81931 5.72995C9.81931 5.47363 10.0271 5.26584 10.2834 5.26584C10.2834 4.83451 9.98525 4.46944 9.58486 4.36656C9.46073 4.33467 9.3552 4.44152 9.3552 4.56968C9.3552 4.69784 9.2513 4.80173 9.12314 4.80173H8.65904C8.53088 4.80173 8.42698 4.69784 8.42698 4.56968C8.42698 4.44152 8.32309 4.33762 8.19493 4.33762H4.9276C4.79944 4.33762 4.69554 4.44152 4.69554 4.56968C4.69554 4.69784 4.59165 4.80173 4.46349 4.80173H3.99938C3.87122 4.80173 3.76733 4.69784 3.76733 4.56968C3.76733 4.44152 3.66343 4.33762 3.53527 4.33762H0.964109C0.707789 4.33762 0.5 4.12984 0.5 3.87352C0.5 3.6172 0.707789 3.40941 0.964109 3.40941H3.30322C3.55954 3.40941 3.76733 3.20162 3.76733 2.9453C3.76733 2.68898 3.55954 2.48119 3.30322 2.48119H0.964109C0.707789 2.48119 0.5 2.2734 0.5 2.01708C0.5 1.76076 0.707789 1.55297 0.964109 1.55297H3.53527C3.66343 1.55297 3.76733 1.44908 3.76733 1.32092C3.76733 1.19276 3.87122 1.08886 3.99938 1.08886H4.46349C4.59165 1.08886 4.69554 1.19276 4.69554 1.32092C4.69554 1.44908 4.79944 1.55297 4.9276 1.55297H8.23206C8.36022 1.55297 8.46411 1.44908 8.46411 1.32092C8.46411 1.19276 8.568 1.08886 8.69616 1.08886H9.16027C9.28843 1.08886 9.39233 1.19276 9.39233 1.32092C9.39233 1.44908 9.49622 1.55297 9.62438 1.55297H9.85644C11.6572 1.55297 13.1238 3.01956 13.1238 4.8203V5.28441H14.052V0.624754C14.052 0.368433 14.2598 0.160645 14.5161 0.160645C14.7724 0.160645 14.9802 0.368433 14.9802 0.624753V5.28441H15.9084V0.624753C15.9084 0.368433 16.1162 0.160645 16.3725 0.160645C16.6288 0.160645 16.8366 0.368433 16.8366 0.624753V5.28441H17.7649V0.624753C17.7649 0.368433 17.9726 0.160645 18.229 0.160645C18.4853 0.160645 18.6931 0.368433 18.6931 0.624753V5.29369C18.9494 5.29369 19.1572 5.50148 19.1572 5.7578C19.1572 6.01412 18.9494 6.22191 18.6931 6.22191V13.5177L19.6213 15.1328V14.6223C19.6213 13.6704 20.3344 12.8849 21.2554 12.7708C21.3826 12.755 21.487 12.6527 21.487 12.5245C21.487 12.3963 21.5909 12.2925 21.7191 12.2925H22.1832C22.3113 12.2925 22.4152 12.3963 22.4152 12.5245C22.4152 12.6527 22.5191 12.7566 22.6473 12.7566H25.9146C26.0428 12.7566 26.1467 12.6527 26.1467 12.5245C26.1467 12.3963 26.2506 12.2925 26.3787 12.2925H26.8428C26.971 12.2925 27.0749 12.3963 27.0749 12.5245C27.0749 12.6527 27.1788 12.7566 27.3069 12.7566H29.8781C30.1344 12.7566 30.3422 12.9643 30.3422 13.2207C30.3422 13.477 30.1344 13.6848 29.8781 13.6848H27.539ZM14.9524 10.7702C14.8131 10.8537 14.6925 10.9651 14.6089 11.1136L14.0334 12.1347L13.1052 13.7498L12.177 15.3649L11.2488 16.9799L10.599 18.1031C10.4319 18.3908 10.4319 18.7436 10.599 19.0313C10.7382 19.2819 10.9796 19.4397 11.2488 19.4861C11.2558 19.4873 11.2627 19.4885 11.2696 19.4897C11.3164 19.4976 11.3579 19.5047 11.4066 19.5047H12.177H13.1052H14.0334H14.9616H15.8899H16.8181H17.7463H18.6745H19.4449C19.4936 19.5047 19.5351 19.4976 19.5819 19.4897C19.5887 19.4885 19.5957 19.4873 19.6027 19.4861C19.8719 19.4397 20.1132 19.2726 20.2525 19.0313C20.4196 18.7436 20.4196 18.3908 20.2525 18.1031L19.6027 16.9799L18.6745 15.3649L17.7463 13.7498L16.8181 12.1347L16.224 11.1136C16.1405 10.9651 16.0198 10.8537 15.8806 10.7702C15.7413 10.6959 15.5835 10.6495 15.4165 10.6495C15.2494 10.6495 15.0916 10.6866 14.9524 10.7702ZM17.7463 11.8933V6.22191H16.8181V10.3525C16.8923 10.4453 16.9666 10.5381 17.0316 10.6495L17.7463 11.8933ZM15.8806 9.77698V6.22191H14.9524V9.77698C15.1009 9.73985 15.2587 9.72129 15.4165 9.72129C15.5743 9.72129 15.7321 9.73985 15.8806 9.77698ZM14.0241 10.3525V6.22191H13.0959V11.8933L13.8106 10.6495C13.8663 10.5381 13.9406 10.4453 14.0241 10.3525ZM4.69554 2.96386C4.69554 3.22018 4.90333 3.42797 5.15965 3.42797H7.96287C8.21919 3.42797 8.42698 3.22018 8.42698 2.96386C8.42698 2.70754 8.21919 2.49975 7.96287 2.49975H5.15965C4.90333 2.49975 4.69554 2.70754 4.69554 2.96386ZM9.3552 2.96386C9.3552 3.22018 9.56619 3.42205 9.81466 3.48498C10.6228 3.68969 11.2209 4.42192 11.2209 5.29369H12.1491V4.82958C12.1491 3.54864 11.1002 2.49975 9.81931 2.49975C9.56299 2.49975 9.3552 2.70754 9.3552 2.96386ZM12.1491 6.22191H11.2209V15.1235L12.1491 13.5084V6.22191ZM11.2209 20.4236V23.9323H12.1491V20.4329H11.3787C11.3509 20.4329 11.3253 20.4306 11.2998 20.4283C11.2743 20.426 11.2488 20.4236 11.2209 20.4236ZM13.0866 20.4329V23.9323H14.0149V20.4329H13.0866ZM14.9524 20.4329V23.9323H15.8806V20.4329H14.9524ZM16.8181 20.4329V23.9323H17.7463V20.4329H16.8181ZM18.6838 23.9323H19.612V20.4236C19.5842 20.4236 19.5586 20.426 19.5331 20.4283C19.5076 20.4306 19.4821 20.4329 19.4542 20.4329H18.6838V23.9323ZM16.4366 13.404C16.571 13.1627 16.4844 12.8582 16.2432 12.7238C16.002 12.5894 15.6975 12.676 15.5631 12.9173L14.0631 15.6096C13.9768 15.7644 13.979 15.9534 14.0688 16.1062C14.1586 16.2591 14.3226 16.3529 14.4999 16.3529H15.5785L14.5806 17.8881C14.4301 18.1197 14.4958 18.4293 14.7274 18.5798C14.9589 18.7303 15.2686 18.6646 15.4191 18.4331L16.9191 16.1254C17.019 15.9717 17.0268 15.7756 16.9393 15.6144C16.8519 15.4533 16.6832 15.3529 16.4999 15.3529H15.3508L16.4366 13.404Z" fill="#008440"/>
</g>
<defs>
<clipPath id="clip0">
<rect width="30" height="30" fill="white" transform="translate(0.5 0.160645)"/>
</clipPath>
</defs>
</svg>
