<svg width="31" height="31" viewBox="0 0 31 31" fill="none" xmlns="http://www.w3.org/2000/svg">
<g clip-path="url(#clip0)">
<path d="M28.4767 21.8611C28.0121 20.789 27.2417 19.8784 26.2655 19.2328C25.2951 18.5873 24.1189 18.2126 22.8545 18.2126C22.0135 18.2126 21.2078 18.3798 20.4785 18.6853C19.3847 19.1406 18.4555 19.8956 17.7968 20.8524C17.1381 21.8034 16.7559 22.9562 16.7559 24.1954C16.7559 25.0196 16.9264 25.8092 17.2381 26.5239C17.7027 27.5959 18.4731 28.5066 19.4494 29.1521C20.4197 29.7977 21.5959 30.1723 22.8604 30.1723C23.7013 30.1723 24.507 30.0051 25.2363 29.6997C26.3302 29.2443 27.2594 28.4893 27.918 27.5325C28.5767 26.5815 28.959 25.4288 28.959 24.1896C28.9531 23.3596 28.7825 22.5758 28.4767 21.8611ZM27.4005 26.0686C27.0241 26.9331 26.4007 27.6766 25.6127 28.1954C24.8246 28.7141 23.8778 29.0196 22.8545 29.0196C22.1723 29.0196 21.5254 28.887 20.9373 28.6392C20.0551 28.2703 19.2965 27.6593 18.7672 26.887C18.2379 26.1147 17.9262 25.1867 17.9262 24.1838C17.9262 23.5152 18.0614 22.8812 18.3143 22.3049C18.6907 21.4403 19.3141 20.6968 20.1022 20.1781C20.8902 19.6593 21.8371 19.3539 22.8604 19.3539C23.5426 19.3539 24.1895 19.4864 24.7776 19.7343C25.6597 20.1031 26.4184 20.7141 26.9477 21.4864C27.477 22.2588 27.7887 23.1867 27.7887 24.1896C27.7887 24.8524 27.6475 25.4864 27.4005 26.0686Z" fill="#008440"/>
<path d="M25.9886 21.8148C25.7416 21.6131 25.3711 21.6477 25.1653 21.8955L22.2424 25.3941L21.1838 23.4402C21.0309 23.1635 20.6781 23.054 20.3958 23.2039C20.1135 23.3538 20.0018 23.6996 20.1547 23.9762L21.6249 26.6852C21.719 26.8523 21.8896 26.9676 22.0836 26.9849C22.2777 27.0022 22.4718 26.9272 22.5953 26.7774L26.0768 22.616C26.2768 22.3739 26.2415 22.0108 25.9886 21.8148Z" fill="#008440"/>
<path d="M18.1262 26.4834H4.55864C4.49395 26.4834 4.44102 26.4719 4.38809 26.4489C4.31164 26.4143 4.24107 26.3624 4.19402 26.2932C4.14697 26.2241 4.11757 26.1434 4.11757 26.0569V4.66211C4.11757 4.59871 4.12933 4.54684 4.15285 4.49496C4.18814 4.42003 4.24107 4.35087 4.31164 4.30476C4.38221 4.25865 4.46455 4.22983 4.55276 4.22983H6.99339C7.31684 4.22983 7.57561 3.97623 7.57561 3.65923C7.57561 3.34223 7.31684 3.08862 6.99339 3.08862H4.55864C4.34105 3.08862 4.12933 3.13473 3.93526 3.20966C3.64709 3.3307 3.40596 3.52666 3.22953 3.78027C3.0531 4.03387 2.95312 4.33934 2.95312 4.66211V26.0569C2.95312 26.2702 3.00017 26.4777 3.07663 26.6679C3.20013 26.9503 3.40008 27.1866 3.65885 27.3595C3.91173 27.5267 4.22343 27.6304 4.55864 27.6304H18.1262C18.4496 27.6304 18.7084 27.3768 18.7084 27.0598C18.7084 26.737 18.4496 26.4834 18.1262 26.4834Z" fill="#008440"/>
<path d="M24.0247 4.66211C24.0247 4.44885 23.9776 4.24136 23.9012 4.05116C23.7777 3.76874 23.5777 3.53243 23.319 3.35952C23.0661 3.19237 22.7544 3.08862 22.4192 3.08862H19.6257C19.3022 3.08862 19.0435 3.34223 19.0435 3.65923C19.0435 3.97623 19.3022 4.22983 19.6257 4.22983H22.4192C22.4839 4.22983 22.5368 4.24136 22.5897 4.26442C22.6662 4.299 22.7367 4.35087 22.7838 4.42004C22.8308 4.4892 22.8602 4.56989 22.8602 4.65635V18.7601C22.8602 19.0771 23.119 19.3307 23.4425 19.3307C23.7659 19.3307 24.0247 19.0771 24.0247 18.7601V4.66211Z" fill="#008440"/>
<path d="M8.68143 5.65344C8.89903 5.79753 9.16955 5.88399 9.45184 5.88399H17.2207C17.4089 5.88399 17.5912 5.84364 17.7558 5.78024C18.0029 5.6765 18.2146 5.50935 18.3616 5.29033C18.5086 5.07707 18.5968 4.81194 18.5968 4.53528V2.97909C18.5968 2.79465 18.5557 2.61598 18.491 2.45459C18.3851 2.21252 18.2146 2.00503 17.9911 1.86093C17.7735 1.71684 17.503 1.63039 17.2207 1.63039H15.2564C15.2329 1.55546 15.2094 1.48053 15.1741 1.4056C15.0153 1.03673 14.7506 0.725486 14.4213 0.506466C14.092 0.287446 13.6862 0.160645 13.2569 0.160645C12.9687 0.160645 12.6923 0.218281 12.4453 0.322028C12.0689 0.477647 11.7513 0.737013 11.5278 1.05978C11.4102 1.23269 11.3161 1.42289 11.2573 1.63039H9.45184C9.26365 1.63039 9.08134 1.67073 8.91667 1.73413C8.66967 1.83788 8.45795 2.00503 8.31092 2.22405C8.1639 2.4373 8.07568 2.70243 8.07568 2.97909V4.53528C8.07568 4.71972 8.11685 4.8984 8.18154 5.05978C8.2874 5.30186 8.45795 5.50935 8.68143 5.65344ZM12.41 1.85517C12.4806 1.69379 12.5982 1.55546 12.7452 1.45747C12.8922 1.35949 13.0628 1.30185 13.2569 1.30185C13.3862 1.30185 13.5039 1.32491 13.6156 1.37102C13.7803 1.44018 13.9214 1.55546 14.0214 1.69955C14.1214 1.84364 14.1802 2.01079 14.1802 2.20099C14.1802 2.32779 14.1567 2.44307 14.1096 2.55258C14.039 2.71396 13.9214 2.85229 13.7744 2.95027C13.6274 3.04825 13.4568 3.10589 13.2627 3.10589C13.1334 3.10589 13.0157 3.08283 12.904 3.03673C12.7393 2.96756 12.5982 2.85229 12.4982 2.7082C12.3982 2.5641 12.3394 2.39696 12.3394 2.20675C12.3394 2.07995 12.3629 1.95892 12.41 1.85517ZM9.24013 2.97909C9.24013 2.95027 9.24601 2.92145 9.25777 2.8984C9.27541 2.86381 9.29894 2.82923 9.33422 2.80618C9.36951 2.78312 9.40479 2.7716 9.45184 2.7716H11.2573C11.2808 2.84652 11.3044 2.92145 11.3397 2.99638C11.4984 3.36526 11.7631 3.6765 12.0924 3.89552C12.4218 4.11454 12.8275 4.2471 13.2569 4.2471C13.545 4.2471 13.8214 4.18946 14.0684 4.08572C14.4448 3.9301 14.7624 3.67073 14.9859 3.34796C15.1035 3.17505 15.1976 2.98485 15.2564 2.77736H17.2207C17.2501 2.77736 17.2795 2.78312 17.303 2.79465C17.3383 2.81194 17.3736 2.835 17.3971 2.86958C17.4206 2.90416 17.4324 2.93874 17.4324 2.98485V4.54105C17.4324 4.56987 17.4265 4.59869 17.4147 4.62174C17.3971 4.65632 17.3736 4.6909 17.3383 4.71396C17.303 4.73701 17.2677 4.74854 17.2207 4.74854H9.45184C9.42244 4.74854 9.39303 4.74278 9.36951 4.73125C9.33422 4.71396 9.29894 4.6909 9.27541 4.65632C9.25189 4.62174 9.24013 4.58716 9.24013 4.54105V2.97909Z" fill="#008440"/>
<path d="M15.0917 15.2097H6.81708C6.49363 15.2097 6.23486 15.4633 6.23486 15.7803C6.23486 16.0973 6.49363 16.3509 6.81708 16.3509H15.0917C15.4151 16.3509 15.6739 16.0973 15.6739 15.7803C15.6739 15.4691 15.4151 15.2097 15.0917 15.2097Z" fill="#008440"/>
<path d="M15.0917 17.959H6.81708C6.49363 17.959 6.23486 18.2126 6.23486 18.5296C6.23486 18.8466 6.49363 19.1002 6.81708 19.1002H15.0917C15.4151 19.1002 15.6739 18.8466 15.6739 18.5296C15.6739 18.2126 15.4151 17.959 15.0917 17.959Z" fill="#008440"/>
<path d="M15.0917 20.7024H6.81708C6.49363 20.7024 6.23486 20.956 6.23486 21.273C6.23486 21.59 6.49363 21.8436 6.81708 21.8436H15.0917C15.4151 21.8436 15.6739 21.59 15.6739 21.273C15.6739 20.9618 15.4151 20.7024 15.0917 20.7024Z" fill="#008440"/>
<path d="M15.0917 23.4517H6.81708C6.49363 23.4517 6.23486 23.7053 6.23486 24.0223C6.23486 24.3393 6.49363 24.5929 6.81708 24.5929H15.0917C15.4151 24.5929 15.6739 24.3393 15.6739 24.0223C15.6739 23.7053 15.4151 23.4517 15.0917 23.4517Z" fill="#008440"/>
<path d="M16.6441 10.276C16.6441 9.95899 16.3853 9.70539 16.0619 9.70539H14.4681V7.9417C14.4681 7.6247 14.2094 7.37109 13.8859 7.37109C13.5625 7.37109 13.3037 7.6247 13.3037 7.9417V9.70539H11.5041C11.1806 9.70539 10.9219 9.95899 10.9219 10.276C10.9219 10.593 11.1806 10.8466 11.5041 10.8466H13.3037V12.6103C13.3037 12.9273 13.5625 13.1809 13.8859 13.1809C14.2094 13.1809 14.4681 12.9273 14.4681 12.6103V10.8466H16.0619C16.3853 10.8466 16.6441 10.593 16.6441 10.276Z" fill="#008440"/>
</g>
<defs>
<clipPath id="clip0">
<rect width="30" height="30" fill="white" transform="translate(0.953125 0.160645)"/>
</clipPath>
</defs>
</svg>
