<svg width="31" height="31" viewBox="0 0 31 31" fill="none" xmlns="http://www.w3.org/2000/svg">
<g clip-path="url(#clip0)">
<path d="M11.5823 3.49135C11.5823 2.84568 11.8028 2.2945 12.2595 1.83781C12.7162 1.38112 13.2673 1.16064 13.913 1.16064H15.724V2.40474M11.5823 3.49135V3.5071C11.5823 4.15277 11.8028 4.70395 12.2595 5.16064C12.7162 5.61734 13.2673 5.85356 13.913 5.85356H15.724V4.60946V2.40474M11.5823 3.49135H7.07837C5.40908 3.49135 3.99176 4.07403 2.81065 5.25513C2.25947 5.82206 1.83428 6.43624 1.53506 7.09765C1.20436 7.83781 1.04688 8.65671 1.04688 9.52285C1.04688 11.1921 1.62955 12.6095 2.81065 13.7906C3.66105 14.641 4.68467 15.1921 5.91302 15.4756M15.724 2.40474H18.039M5.91302 15.4756L6.60593 12.8614L7.62955 9.01891H12.0233H12.8264M5.91302 15.4756L5.2516 17.948M18.039 4.59372H15.724M5.2516 17.948H11.2201L10.7477 23.2866H3.83428L5.2516 17.948ZM19.8185 17.2709C19.1414 17.1134 18.5429 16.7669 18.0075 16.2315C17.2359 15.4599 16.8579 14.5307 16.8579 13.4441C16.8579 12.3575 17.2359 11.4284 18.0075 10.6567C18.7792 9.88505 19.7083 9.5071 20.8107 9.5071C21.1571 9.5071 21.4721 9.55435 21.787 9.61734M19.8185 17.2866C20.1335 17.3654 20.4642 17.3969 20.8107 17.3969C21.913 17.3969 22.8422 17.0189 23.6138 16.2473C24.3855 15.4756 24.7634 14.5465 24.7634 13.4599C24.7634 12.3732 24.3855 11.4441 23.6138 10.6725C23.0941 10.137 22.4799 9.79057 21.8028 9.63309M18.102 22.4835L18.165 23.2709H25.0784L24.6059 21.4914M6.60593 12.8457H11.6768L12.0233 9.00316M11.6925 12.8457L11.2359 17.9323H12.7949M10.7634 23.2866H18.1807M20.8107 10.9904L19.5469 13.4441H21.5469L20.5469 15.6606M18.4642 6.24726L17.5823 9.00316H14.6847L15.5823 11.7591L13.2201 13.4756L15.5666 15.1764L14.6689 17.9323H17.5666L18.4642 20.6882L20.8107 18.9874L23.1571 20.6882L24.0548 17.9323H26.9524L26.0548 15.1764L28.3855 13.4756L26.0548 11.7748L26.9524 9.00316H24.0548L23.1571 6.24726L20.8107 7.96379L18.4642 6.24726ZM18.3382 25.1449L18.5114 27.1921L22.7162 28.0268L22.9209 29.1606H6.00751L6.21223 28.0268L10.417 27.1921L10.5902 25.1449H18.3382Z" stroke="#008440" stroke-miterlimit="3" stroke-linecap="round" stroke-linejoin="round"/>
</g>
<defs>
<clipPath id="clip0">
<rect width="30" height="30" fill="white" transform="translate(0.046875 0.160645)"/>
</clipPath>
</defs>
</svg>
