<svg width="31" height="31" viewBox="0 0 31 31" fill="none" xmlns="http://www.w3.org/2000/svg">
<g clip-path="url(#clip0)">
<path d="M11.8847 6.46709C12.3015 7.34698 13.1645 7.89427 14.137 7.89427C14.1791 7.89427 14.2254 7.89427 14.2675 7.89006C14.9958 7.85217 15.6694 7.50274 16.1115 6.92598L16.2251 6.77863L17.1008 7.30067C17.1808 7.34698 17.2692 7.37224 17.3576 7.37224C17.5387 7.37224 17.6986 7.27962 17.7913 7.12385C17.8586 7.00597 17.8797 6.87125 17.846 6.74074C17.8123 6.61023 17.7323 6.50077 17.6144 6.42921L17.265 6.22292L17.3113 6.06715C17.686 4.77048 17.1555 3.36015 16.0231 2.64024C15.3705 2.22346 14.5917 2.0719 13.8297 2.21083C13.0719 2.34976 12.3983 2.76654 11.9394 3.3812L11.9352 3.38962C11.8258 3.53275 11.7837 3.72641 11.8173 3.89902C11.83 3.96638 11.8552 4.02953 11.8889 4.09268L11.9436 4.18951L11.8931 4.29055C11.5647 4.97677 11.5563 5.76824 11.8847 6.46709ZM13.2992 3.49487C13.9686 3.06966 14.8274 3.06966 15.4926 3.49487C16.1199 3.89481 16.482 4.6105 16.4272 5.36409L16.402 5.70509L13.0087 3.6801L13.2992 3.49487ZM12.7141 4.98519L12.7898 4.72417L15.3747 6.26923L15.1811 6.45867C14.9243 6.71127 14.5791 6.86283 14.217 6.87967C14.1917 6.87967 14.1665 6.87967 14.137 6.87967C13.5645 6.87967 13.0424 6.55129 12.7983 6.02926C12.6425 5.70509 12.613 5.33462 12.7141 4.98519Z" fill="#008440"/>
<path d="M30.2067 26.3002L30.1941 26.2834L30.1899 26.2707L24.3886 13.9061L24.3843 13.8977C23.917 12.8957 22.9024 12.2431 21.8036 12.2305C20.688 12.2179 19.686 12.8241 19.185 13.8177L19.1766 13.8345L18.5536 15.0849C18.5451 15.1017 18.5367 15.1185 18.5283 15.1438L18.5241 15.1606C18.4778 15.2701 18.4399 15.3838 18.4104 15.4974L18.3767 15.649L18.2252 15.6616C17.8042 15.6953 17.4337 15.9521 17.2569 16.3352L16.8569 17.1898L15.7539 16.672L14.8151 10.1424C14.752 9.71296 14.5162 9.32986 14.1668 9.08568L14.1584 9.08147L10.441 6.19765C10.1421 5.9661 9.79263 5.83559 9.42637 5.81454H9.40953L5.87317 5.61247H5.85633C5.14905 5.57879 4.44599 5.87348 3.97447 6.40394C3.49875 6.9386 3.28825 7.67535 3.41034 8.37841L4.18497 12.9378L4.12182 13.0262C4.0292 13.1567 3.95763 13.3041 3.91554 13.4598V13.464L0.345492 25.1803C0.0760545 26.0686 0.585459 27.0159 1.48639 27.2937C1.65058 27.3443 1.81477 27.3695 1.98316 27.3695C2.7157 27.3695 3.37666 26.8854 3.59558 26.1907L3.59979 26.1739L3.60821 26.1613L6.33205 17.3625L7.8308 19.1769L7.86868 25.6813C7.87289 26.6117 8.63911 27.3695 9.57793 27.3695C10.5125 27.3695 11.2703 26.6159 11.2745 25.6855V25.6729V25.6687L11.2198 19.4422C11.2198 19.3243 11.2114 19.1685 11.1651 19.0043L11.1609 18.9875L10.0537 15.3417L10.3357 14.9628L12.5544 16.0026L12.7186 17.1435C12.7775 17.5519 12.9922 17.9098 13.3206 18.1539C13.59 18.3518 13.9058 18.457 14.2383 18.457C14.3141 18.457 14.3899 18.4528 14.4615 18.4402C14.8698 18.3813 15.2277 18.1666 15.4719 17.8298C15.514 17.7708 15.5561 17.7077 15.5897 17.6403L15.6824 17.4635L16.5244 17.8592L16.1202 18.7223C15.855 19.299 16.1034 19.9853 16.6801 20.2631L16.697 20.2673L16.7096 20.2757L17.4 20.5999L15.9181 21.0883C15.6318 21.1851 15.4003 21.3872 15.2614 21.6566L15.2529 21.6735L13.0554 26.0729C12.9248 26.3423 12.9459 26.6538 13.1143 26.9317C13.2827 27.2053 13.569 27.3695 13.8721 27.3695H29.5037C29.7605 27.3695 30.0131 27.2306 30.1562 27.0033C30.2909 26.797 30.312 26.5317 30.2067 26.3002ZM2.6315 25.8876C2.57677 26.0602 2.45889 26.1992 2.30312 26.2834C2.20629 26.3339 2.09683 26.3591 1.99158 26.3591C1.92423 26.3591 1.85266 26.3507 1.7853 26.3297C1.41903 26.216 1.20853 25.8371 1.31378 25.4835L1.31799 25.4708L4.46704 15.1101L5.56163 16.4363L2.6315 25.8876ZM10.7946 14.3481L12.066 12.6431L12.4239 15.1101L10.7946 14.3481ZM14.6551 17.2446C14.5751 17.3582 14.4531 17.4298 14.3183 17.4467C14.1289 17.4761 13.99 17.3961 13.9268 17.3498C13.8637 17.3035 13.7542 17.1983 13.7247 17.0172L13.7205 17.0046L12.9838 11.9316L12.9796 11.9148C12.9333 11.6117 12.7101 11.3717 12.407 11.2917C12.1081 11.2159 11.7966 11.317 11.6113 11.5527L11.6029 11.5653L11.5903 11.578L9.08115 14.9417C8.98432 15.068 8.95485 15.2364 9.00116 15.3922L10.1884 19.2906V19.299C10.1926 19.3201 10.201 19.358 10.201 19.4464L10.2473 25.6729C10.2473 26.0476 9.93998 26.3549 9.56109 26.3549C9.17798 26.3549 8.86644 26.056 8.86223 25.6813V25.6645L8.82435 19.2317V19.2275V19.219C8.82014 18.9538 8.72331 18.6928 8.5507 18.4865L8.53807 18.4739L4.9596 14.1376L4.94276 14.1208L4.93434 14.1082C4.82489 13.9566 4.82068 13.7545 4.92171 13.6114L6.79936 11.0349C6.80357 11.0265 6.81199 11.0181 6.8162 11.0096C6.82041 11.0054 6.82462 11.0012 6.82462 10.997C6.82883 10.9886 6.83304 10.9802 6.83725 10.976L6.84146 10.9675C6.84988 10.9549 6.85408 10.9381 6.85829 10.9254L6.86672 10.9044C6.86672 10.9002 6.86671 10.896 6.87092 10.8918L6.88777 10.8244C6.88777 10.8202 6.88776 10.816 6.89197 10.8118C6.89197 10.8033 6.89197 10.7991 6.89197 10.7949C6.89197 10.7781 6.89618 10.7612 6.89618 10.7402V10.7318C6.89618 10.7234 6.89618 10.7191 6.89618 10.7107C6.89618 10.7023 6.89618 10.6981 6.89618 10.6939C6.89618 10.6813 6.89618 10.6728 6.89197 10.6602V10.6518L6.56781 8.73625L7.64977 8.79098C7.65819 8.79098 7.66661 8.79098 7.67503 8.79098C7.94446 8.79098 8.16338 8.58049 8.18022 8.31105C8.18864 8.17633 8.14233 8.04582 8.04971 7.94478C7.9613 7.84374 7.835 7.7848 7.70029 7.77638L6.29837 7.70482C6.07524 7.6964 5.86054 7.78901 5.70477 7.96162C5.549 8.13844 5.48164 8.36999 5.51953 8.59312L5.86054 10.6097L4.99749 11.7969L4.39968 8.20159C4.33232 7.80164 4.45441 7.37644 4.72385 7.07332C4.99749 6.76599 5.40165 6.5976 5.81002 6.61865L9.35059 6.8123H9.37164C9.53162 6.82493 9.67897 6.87966 9.80947 6.9807L9.8221 6.99333L13.5395 9.87715C13.5437 9.88136 13.5479 9.88557 13.5521 9.88557L13.5605 9.88978C13.5648 9.89399 13.569 9.89399 13.5732 9.8982C13.6995 9.9824 13.7879 10.1297 13.8089 10.2855L13.8131 10.3024L14.752 16.8194V16.8236L14.7562 16.8488C14.7688 16.992 14.7351 17.1351 14.6551 17.2446ZM16.9748 19.2948L18.2378 16.6089L18.5872 16.7731L18.6209 16.8278C18.6546 16.8825 18.6925 16.9373 18.7304 16.992C19.2019 17.6235 19.2777 18.4991 18.9282 19.2233C18.9282 19.2275 18.924 19.2317 18.924 19.2359C18.9198 19.2401 18.9198 19.2443 18.9198 19.2485L18.8272 19.4548C18.7556 19.5979 18.6672 19.7369 18.5662 19.8632L18.4609 19.9937L16.9748 19.2948ZM14.0405 26.3718L16.1876 22.0776L17.8968 21.5135C18.6799 21.2482 19.345 20.6673 19.7197 19.9179L19.7239 19.9095C19.7281 19.9053 19.7281 19.9011 19.7323 19.8969C19.7323 19.8926 19.7366 19.8926 19.7366 19.8884L19.7408 19.8758L19.8376 19.6569C20.3512 18.5833 20.2333 17.333 19.5345 16.3942C19.3492 16.1458 19.3198 15.8174 19.4587 15.5395C19.4671 15.5269 19.4713 15.5101 19.4797 15.4932L19.4882 15.4764L20.086 14.2766C20.4144 13.6324 21.0627 13.2409 21.7868 13.2451C22.4983 13.2535 23.1508 13.6745 23.4582 14.3229L23.4624 14.3271C23.4624 14.3271 23.4624 14.3271 23.4624 14.3313L23.4666 14.3397L29.1248 26.3718H14.0405Z" fill="#008440"/>
</g>
<defs>
<clipPath id="clip0">
<rect width="30" height="30" fill="white" transform="translate(0.273438 0.160645)"/>
</clipPath>
</defs>
</svg>
