<svg width="344" height="344" viewBox="0 0 344 344" fill="none" xmlns="http://www.w3.org/2000/svg">
<g filter="url(#filter0_d)">
<circle cx="178" cy="172" r="88" fill="white"/>
</g>
<g clip-path="url(#clip0)">
<path d="M137.162 166.775H138.125C138.537 166.775 138.95 166.363 138.95 165.95V164.713C138.95 163.613 139.775 162.787 140.875 162.787H146.787C147.2 162.787 147.475 162.512 147.612 162.1L147.75 161.825C148.437 159.213 149.537 156.6 150.912 154.263L151.05 153.987C151.187 153.712 151.187 153.163 150.912 152.888L146.787 148.763C146.1 148.075 146.1 146.837 146.787 146.15L153.112 139.825C153.8 139.137 155.037 139.137 155.725 139.825L159.85 143.95C160.125 144.225 160.537 144.225 160.95 144.087L161.225 143.95C163.562 142.575 166.175 141.475 168.787 140.788L169.062 140.65C169.475 140.512 169.75 140.1 169.75 139.688V133.912C169.75 132.812 170.575 131.987 171.675 131.987H180.612C181.712 131.987 182.537 132.812 182.537 133.912V139.825C182.537 140.237 182.812 140.512 183.225 140.65H183.5C186.112 141.337 188.725 142.438 191.062 143.812L191.337 143.95C191.612 144.088 192.162 144.088 192.437 143.812L196.562 139.688C196.975 139.275 197.387 139.137 197.937 139.137C198.487 139.137 198.9 139.275 199.312 139.688L205.637 146.013C206.325 146.7 206.325 147.938 205.637 148.625L201.512 152.75C201.237 153.025 201.237 153.437 201.375 153.85L201.512 154.125C202.887 156.463 203.987 159.075 204.675 161.688L204.812 161.963C204.95 162.375 205.225 162.65 205.637 162.65H211.55C212.65 162.65 213.475 163.475 213.475 164.575V165.812C213.475 166.225 213.887 166.638 214.3 166.638H215.262C215.675 166.638 216.087 166.225 216.087 165.812V161C216.087 160.587 215.675 160.175 215.262 160.175H208.25C207.425 160.175 206.737 159.625 206.462 158.8C206.05 157.425 205.5 156.188 204.812 154.95C204.4 154.263 204.537 153.3 205.225 152.75L210.037 147.938C210.312 147.662 210.312 147.113 210.037 146.7L198.487 135.15C198.075 134.875 197.525 134.875 197.25 135.288L192.437 140.1C191.887 140.65 190.925 140.788 190.237 140.513C189 139.963 187.762 139.413 186.387 138.863C185.562 138.588 185.012 137.9 185.012 137.075V130.2C185.012 129.788 184.6 129.375 184.187 129.375H167.962C167.55 129.375 167.137 129.788 167.137 130.2V136.938C167.137 137.763 166.587 138.45 165.762 138.725C164.387 139.138 163.15 139.688 161.912 140.375C161.225 140.788 160.262 140.65 159.712 139.962L154.9 135.15C154.625 134.875 154.075 134.875 153.662 135.288L142.112 146.837C141.837 147.112 141.837 147.663 142.112 148.075L146.925 152.888C147.475 153.438 147.612 154.4 147.337 155.088C146.787 156.325 146.237 157.562 145.687 158.938C145.412 159.763 144.725 160.312 143.9 160.312H137.162C136.75 160.312 136.337 160.725 136.337 161.138V166.088C136.337 166.5 136.612 166.775 137.162 166.775Z" fill="#008440"/>
<path d="M134 172.412H167C167.688 172.412 168.238 171.862 168.238 171.175C168.238 170.487 167.688 169.938 167 169.938H134C133.313 169.938 132.763 170.487 132.763 171.175C132.763 171.862 133.175 172.412 134 172.412Z" fill="#008440"/>
<path d="M184.05 171.038C184.05 171.725 184.6 172.275 185.287 172.275H218.287C218.975 172.275 219.525 171.725 219.525 171.038C219.525 170.35 218.975 169.8 218.287 169.8H185.287C184.6 169.8 184.05 170.35 184.05 171.038Z" fill="#008440"/>
<path d="M179.513 176.538C178.275 175.85 176.9 175.575 175.525 175.713C174.013 175.85 172.5 176.538 171.263 177.638C170.163 178.738 169.475 180.25 169.338 181.9C169.2 183.275 169.475 184.65 170.163 185.888C170.85 187.125 171.95 188.088 173.188 188.638C174.425 189.188 175.938 189.463 177.313 189.188C178.688 188.913 179.925 188.225 180.888 187.263C181.85 186.3 182.538 185.063 182.813 183.55C183.088 182.175 182.813 180.8 182.263 179.425C181.713 178.05 180.75 177.225 179.513 176.538ZM179.65 184.65C179.238 185.338 178.55 186.025 177.863 186.3C177.313 186.575 176.763 186.713 176.075 186.713C175.8 186.713 175.525 186.713 175.388 186.713C174.563 186.575 173.738 186.163 173.188 185.613C172.638 185.063 172.225 184.238 172.088 183.413C171.95 182.588 172.088 181.763 172.363 180.938C172.775 180.113 173.325 179.563 174.013 179.013C174.7 178.6 175.663 178.325 176.488 178.463C177.45 178.6 178.413 179.013 179.1 179.7C179.788 180.388 180.2 181.35 180.338 182.313C180.338 183 180.063 183.825 179.65 184.65Z" fill="#008440"/>
<path d="M208.387 200.6C207.287 199.5 205.775 198.813 204.262 198.675C203.987 198.675 203.85 198.675 203.575 198.675C202.337 198.675 201.237 198.95 200.137 199.638C198.9 200.325 197.937 201.425 197.387 202.663C196.837 203.9 196.562 205.413 196.837 206.788C197.112 208.163 197.8 209.4 198.762 210.5C199.725 211.6 200.962 212.15 202.337 212.425C203.712 212.7 205.087 212.425 206.462 211.875C207.7 211.325 208.8 210.363 209.487 209.125C210.175 207.888 210.45 206.513 210.312 205.138C210.175 203.213 209.487 201.7 208.387 200.6ZM207.7 205.688C207.562 206.65 207.15 207.613 206.462 208.3C205.775 208.988 204.812 209.4 203.85 209.538C203.712 209.538 203.575 209.538 203.575 209.538C202.887 209.538 202.062 209.4 201.512 208.988C200.825 208.575 200.137 207.888 199.862 207.063C199.45 206.238 199.45 205.413 199.587 204.588C199.725 203.763 200.137 202.938 200.687 202.388C201.237 201.838 202.062 201.425 202.887 201.288C203.712 201.15 204.537 201.288 205.362 201.563C206.187 201.975 206.737 202.525 207.15 203.213C207.562 204.038 207.837 204.863 207.7 205.688Z" fill="#008440"/>
<path d="M152.012 188.087C150.775 187.4 149.4 187.125 148.025 187.262C146.375 187.4 145 188.087 143.9 189.187C142.8 190.287 142.112 191.8 141.975 193.45C141.837 194.825 142.112 196.2 142.8 197.437C143.487 198.675 144.587 199.637 145.825 200.187C147.062 200.737 148.575 201.012 149.95 200.737C151.325 200.462 152.562 199.775 153.525 198.812C154.487 197.85 155.175 196.612 155.45 195.1C155.725 193.587 155.45 192.35 154.9 190.975C154.35 189.6 153.25 188.775 152.012 188.087ZM152.15 196.062C151.737 196.75 151.05 197.437 150.362 197.712C149.812 197.987 149.262 198.125 148.575 198.125C148.3 198.125 148.025 198.125 147.887 198.125C147.062 197.987 146.237 197.575 145.687 197.025C145.137 196.475 144.725 195.65 144.587 194.825C144.45 194 144.587 193.175 144.862 192.35C145.275 191.525 145.825 190.975 146.512 190.425C147.2 190.012 148.162 189.737 148.987 189.875C149.95 190.012 150.912 190.425 151.6 191.112C152.287 191.8 152.7 192.762 152.837 193.725C152.837 194.412 152.7 195.237 152.15 196.062Z" fill="#008440"/>
<path d="M218.15 181.212H187.075C186.388 181.212 185.7 181.762 185.7 182.587C185.7 183.412 186.25 183.962 187.075 183.962H218.15C218.838 183.962 219.525 183.412 219.525 182.587C219.525 181.762 218.975 181.212 218.15 181.212Z" fill="#008440"/>
<path d="M134 183.825H165.213C165.9 183.825 166.588 183.275 166.588 182.45C166.588 181.625 166.038 181.075 165.213 181.075H134C133.312 181.075 132.625 181.625 132.625 182.45C132.625 183.275 133.175 183.825 134 183.825Z" fill="#008440"/>
<path d="M218.15 204.038H214.438C213.75 204.038 213.062 204.588 213.062 205.413C213.062 206.238 213.613 206.788 214.438 206.788H218.15C218.838 206.788 219.525 206.238 219.525 205.413C219.525 204.588 218.975 204.038 218.15 204.038Z" fill="#008440"/>
<path d="M192.575 204.038H134C133.312 204.038 132.625 204.588 132.625 205.413C132.625 206.238 133.175 206.788 134 206.788H192.575C193.262 206.788 193.95 206.238 193.95 205.413C193.95 204.588 193.262 204.038 192.575 204.038Z" fill="#008440"/>
<path d="M134 195.238H137.713C138.4 195.238 139.087 194.688 139.087 193.863C139.087 193.038 138.538 192.488 137.713 192.488H134C133.312 192.488 132.625 193.038 132.625 193.863C132.625 194.688 133.175 195.238 134 195.238Z" fill="#008440"/>
<path d="M218.15 192.625H159.575C158.888 192.625 158.2 193.175 158.2 194C158.2 194.825 158.75 195.375 159.575 195.375H218.15C218.838 195.375 219.525 194.825 219.525 194C219.525 193.175 218.975 192.625 218.15 192.625Z" fill="#008440"/>
<path d="M189.275 165.4C189.412 166.225 189.962 166.775 190.787 166.775C191.2 166.775 191.475 166.637 191.75 166.362C192.025 166.087 192.025 165.812 192.025 165.537C191.612 161.962 189.962 158.525 187.487 156.05C184.462 153.025 180.475 151.375 176.212 151.375C171.95 151.375 167.962 153.025 164.937 156.05C162.325 158.662 160.812 161.962 160.4 165.537C160.4 165.812 160.4 166.087 160.675 166.362C160.95 166.637 161.225 166.775 161.637 166.775C162.325 166.775 163.012 166.225 163.15 165.4C163.562 162.513 164.937 159.9 166.862 157.838C169.337 155.363 172.775 153.987 176.35 153.987C179.925 153.987 183.225 155.363 185.837 157.838C187.487 159.9 188.862 162.65 189.275 165.4Z" fill="#008440"/>
</g>
<defs>
<filter id="filter0_d" x="0" y="0" width="344" height="344" filterUnits="userSpaceOnUse" color-interpolation-filters="sRGB">
<feFlood flood-opacity="0" result="BackgroundImageFix"/>
<feColorMatrix in="SourceAlpha" type="matrix" values="0 0 0 0 0 0 0 0 0 0 0 0 0 0 0 0 0 0 127 0"/>
<feMorphology radius="38" operator="dilate" in="SourceAlpha" result="effect1_dropShadow"/>
<feOffset dx="-6"/>
<feGaussianBlur stdDeviation="23"/>
<feColorMatrix type="matrix" values="0 0 0 0 0.64375 0 0 0 0 0.75 0 0 0 0 0.695265 0 0 0 0.14 0"/>
<feBlend mode="normal" in2="BackgroundImageFix" result="effect1_dropShadow"/>
<feBlend mode="normal" in="SourceGraphic" in2="effect1_dropShadow" result="shape"/>
</filter>
<clipPath id="clip0">
<rect width="88" height="88" fill="white" transform="translate(132.625 126.625)"/>
</clipPath>
</defs>
</svg>
