<svg width="344" height="344" viewBox="0 0 344 344" fill="none" xmlns="http://www.w3.org/2000/svg">
<g filter="url(#filter0_d)">
<circle cx="178" cy="172" r="88" fill="white"/>
</g>
<g clip-path="url(#clip0)">
<path d="M184.82 203.975C184.82 204.528 184.372 204.975 183.82 204.975H172.199C171.647 204.975 171.199 204.528 171.199 203.975V199.333C171.199 198.878 170.891 198.482 170.455 198.354C168.508 197.785 166.631 196.997 164.859 196.003C164.457 195.778 163.952 195.84 163.628 196.168L160.421 199.411C160.03 199.806 159.393 199.807 159.001 199.413L150.779 191.154C150.391 190.765 150.391 190.135 150.778 189.744L154.011 186.489C154.331 186.166 154.392 185.669 154.172 185.271C153.184 183.479 152.402 181.579 151.842 179.608C151.717 179.168 151.319 178.857 150.862 178.857H146.338C145.786 178.857 145.338 178.409 145.338 177.857V166.111C145.338 165.558 145.786 165.111 146.338 165.111H150.916C151.374 165.111 151.771 164.8 151.896 164.36C152.457 162.391 153.238 160.494 154.226 158.706C154.446 158.308 154.386 157.811 154.066 157.488L150.828 154.22C150.442 153.831 150.441 153.204 150.826 152.814L159.002 144.515C159.393 144.119 160.032 144.118 160.425 144.513L163.639 147.758C163.962 148.084 164.465 148.146 164.866 147.924C166.635 146.943 168.507 146.167 170.449 145.61C170.888 145.485 171.199 145.088 171.199 144.63V139.992C171.199 139.44 171.647 138.992 172.199 138.992H183.82C184.372 138.992 184.82 139.44 184.82 139.992V144.635C184.82 145.09 185.127 145.486 185.564 145.613C187.508 146.181 189.382 146.967 191.152 147.957C191.553 148.181 192.057 148.12 192.381 147.793L195.597 144.547C195.988 144.152 196.625 144.152 197.017 144.545L205.241 152.814C205.628 153.204 205.629 153.833 205.242 154.223L202.005 157.49C201.686 157.812 201.625 158.307 201.843 158.704C202.823 160.495 203.6 162.392 204.159 164.359C204.284 164.799 204.681 165.111 205.139 165.111H209.717C210.269 165.111 210.717 165.558 210.717 166.111V177.857C210.717 178.409 210.269 178.857 209.717 178.857H205.138C204.68 178.857 204.283 179.167 204.158 179.607C203.595 181.578 202.813 183.478 201.826 185.272C201.608 185.67 201.668 186.165 201.988 186.488L205.225 189.755C205.612 190.145 205.612 190.773 205.226 191.163L197.017 199.456C196.625 199.851 195.987 199.851 195.596 199.456L192.382 196.213C192.058 195.886 191.553 195.824 191.151 196.05C189.383 197.044 187.508 197.832 185.564 198.4C185.127 198.528 184.82 198.924 184.82 199.379V203.975ZM173.92 201.229C173.922 201.78 174.369 202.226 174.92 202.226H181.095C181.648 202.226 182.095 201.778 182.095 201.226V197.206C182.095 196.735 182.425 196.327 182.886 196.228L183.167 196.168C186.076 195.549 188.846 194.393 191.339 192.759L191.561 192.611C191.96 192.346 192.49 192.4 192.827 192.741L195.624 195.57C196.015 195.965 196.653 195.966 197.045 195.571L201.418 191.164C201.805 190.774 201.805 190.144 201.417 189.755L198.576 186.9C198.243 186.565 198.189 186.043 198.448 185.648L198.604 185.41C200.216 182.91 201.361 180.133 201.982 177.217L202.043 176.922C202.139 176.459 202.548 176.126 203.022 176.126H206.993C207.545 176.126 207.993 175.678 207.993 175.126V168.878C207.993 168.326 207.545 167.878 206.993 167.878H203.011C202.538 167.878 202.13 167.547 202.033 167.084L201.973 166.797C201.359 163.861 200.214 161.065 198.595 158.549L198.438 158.31C198.18 157.915 198.233 157.393 198.566 157.058L201.391 154.213C201.778 153.823 201.778 153.194 201.391 152.804L197.018 148.398C196.626 148.003 195.987 148.004 195.597 148.4L192.8 151.235C192.463 151.576 191.932 151.631 191.533 151.365L191.312 151.218C188.817 149.587 186.047 148.431 183.14 147.808L182.859 147.748C182.398 147.65 182.068 147.242 182.068 146.771V142.742C182.068 142.189 181.62 141.742 181.068 141.742H174.896C174.344 141.742 173.896 142.189 173.896 142.742V146.76C173.896 147.232 173.565 147.64 173.103 147.738L172.815 147.799C169.926 148.426 167.174 149.581 164.697 151.208L164.474 151.357C164.076 151.622 163.546 151.568 163.21 151.228L160.413 148.406C160.022 148.011 159.384 148.011 158.993 148.405L154.621 152.81C154.233 153.201 154.234 153.833 154.625 154.222L157.475 157.067C157.81 157.402 157.865 157.926 157.605 158.322L157.451 158.558C155.832 161.074 154.687 163.87 154.073 166.806L154.013 167.093C153.916 167.556 153.507 167.887 153.034 167.887H149.062C148.51 167.887 148.062 168.335 148.062 168.887V175.135C148.062 175.688 148.51 176.135 149.062 176.135H153.024C153.498 176.135 153.906 176.468 154.003 176.931L154.064 177.226C154.685 180.142 155.83 182.919 157.442 185.419L157.598 185.658C157.857 186.053 157.804 186.575 157.471 186.91L154.645 189.755C154.258 190.145 154.258 190.774 154.644 191.164L159.016 195.576C159.409 195.972 160.05 195.97 160.441 195.572L163.219 192.737C163.555 192.394 164.088 192.338 164.487 192.604L164.706 192.75C167.183 194.377 169.935 195.532 172.824 196.159L173.115 196.221C173.576 196.319 173.906 196.725 173.907 197.196L173.92 201.229Z" fill="#008440"/>
<path d="M178.027 189.854C174.524 189.858 171.099 188.813 168.185 186.851C165.271 184.89 162.998 182.1 161.655 178.835C160.312 175.57 159.959 171.976 160.64 168.509C161.321 165.041 163.006 161.855 165.482 159.354C167.958 156.853 171.113 155.149 174.548 154.458C177.983 153.767 181.544 154.12 184.781 155.472C188.018 156.824 190.784 159.114 192.731 162.054C194.677 164.993 195.716 168.449 195.716 171.984C195.709 176.718 193.843 181.256 190.528 184.606C187.213 187.955 182.718 189.842 178.027 189.854V189.854ZM178.027 156.863C175.063 156.859 172.165 157.743 169.698 159.402C167.232 161.061 165.309 163.422 164.172 166.184C163.035 168.947 162.736 171.988 163.312 174.922C163.888 177.857 165.314 180.553 167.408 182.669C169.503 184.786 172.173 186.228 175.079 186.813C177.986 187.398 181 187.099 183.739 185.956C186.477 184.812 188.818 182.874 190.466 180.386C192.113 177.899 192.992 174.975 192.992 171.984C192.987 167.978 191.409 164.138 188.605 161.303C185.8 158.469 181.996 156.872 178.027 156.863V156.863Z" fill="#008440"/>
<path d="M221.521 170.623C221.543 171.374 220.932 171.984 220.18 171.984V171.984C219.427 171.984 218.82 171.373 218.796 170.621C218.494 161.093 214.929 151.947 208.686 144.757C202.144 137.224 193.11 132.351 183.27 131.049C173.43 129.746 163.456 132.101 155.211 137.676C146.966 143.251 141.013 151.664 138.464 161.344L135.84 160.629C138.565 150.311 144.917 141.346 153.71 135.406C162.503 129.466 173.137 126.957 183.628 128.347C194.119 129.737 203.751 134.931 210.727 142.96C217.406 150.647 221.214 160.431 221.521 170.623Z" fill="#008440"/>
<path d="M177.954 215.972C166.398 215.96 155.319 211.322 147.148 203.075C139.21 195.064 134.647 184.285 134.381 172.985C134.368 172.432 134.817 171.984 135.369 171.984H136.091C136.644 171.984 137.091 172.432 137.103 172.985C137.325 182.643 140.901 191.929 147.224 199.211C153.765 206.743 162.799 211.616 172.639 212.919C182.479 214.222 192.453 211.866 200.698 206.291C208.666 200.904 214.493 192.866 217.177 183.596C217.331 183.062 217.882 182.742 218.418 182.888L219.112 183.077C219.642 183.222 219.957 183.767 219.805 184.295C217.214 193.263 211.859 201.175 204.504 206.874C196.889 212.775 187.556 215.974 177.954 215.972Z" fill="#008440"/>
<path d="M221.803 190.468C221.293 190.69 220.7 190.454 220.482 189.943L218.766 185.913C218.548 185.403 217.958 185.167 217.449 185.387L213.467 187.108C212.957 187.329 212.366 187.092 212.149 186.581L211.858 185.893C211.644 185.387 211.878 184.803 212.382 184.585L218.883 181.776C219.392 181.556 219.983 181.793 220.2 182.303L222.988 188.87C223.202 189.374 222.97 189.958 222.468 190.177L221.803 190.468Z" fill="#008440"/>
<path d="M136.927 162.397C136.413 162.604 135.827 162.354 135.623 161.838L132.992 155.204C132.789 154.692 133.038 154.112 133.549 153.907L134.226 153.635C134.74 153.429 135.324 153.68 135.528 154.195L137.139 158.263C137.344 158.779 137.93 159.03 138.444 158.821L142.462 157.194C142.976 156.986 143.561 157.236 143.766 157.752L144.044 158.449C144.247 158.961 143.999 159.54 143.489 159.746L136.927 162.397Z" fill="#008440"/>
<path d="M178.371 170.609H177.647C177.095 170.609 176.647 171.057 176.647 171.609V172.359C176.647 172.911 177.095 173.359 177.647 173.359H178.371C178.923 173.359 179.371 172.911 179.371 172.359V171.609C179.371 171.057 178.923 170.609 178.371 170.609Z" fill="#008440"/>
<path d="M172.923 170.609H172.199C171.646 170.609 171.199 171.057 171.199 171.609V172.359C171.199 172.911 171.646 173.359 172.199 173.359H172.923C173.475 173.359 173.923 172.911 173.923 172.359V171.609C173.923 171.057 173.475 170.609 172.923 170.609Z" fill="#008440"/>
<path d="M183.819 170.609H183.095C182.543 170.609 182.095 171.057 182.095 171.609V172.359C182.095 172.911 182.543 173.359 183.095 173.359H183.819C184.372 173.359 184.819 172.911 184.819 172.359V171.609C184.819 171.057 184.372 170.609 183.819 170.609Z" fill="#008440"/>
</g>
<defs>
<filter id="filter0_d" x="0" y="0" width="344" height="344" filterUnits="userSpaceOnUse" color-interpolation-filters="sRGB">
<feFlood flood-opacity="0" result="BackgroundImageFix"/>
<feColorMatrix in="SourceAlpha" type="matrix" values="0 0 0 0 0 0 0 0 0 0 0 0 0 0 0 0 0 0 127 0"/>
<feMorphology radius="38" operator="dilate" in="SourceAlpha" result="effect1_dropShadow"/>
<feOffset dx="-6"/>
<feGaussianBlur stdDeviation="23"/>
<feColorMatrix type="matrix" values="0 0 0 0 0.64375 0 0 0 0 0.75 0 0 0 0 0.695265 0 0 0 0.14 0"/>
<feBlend mode="normal" in2="BackgroundImageFix" result="effect1_dropShadow"/>
<feBlend mode="normal" in="SourceGraphic" in2="effect1_dropShadow" result="shape"/>
</filter>
<clipPath id="clip0">
<rect width="92.125" height="88" fill="white" transform="translate(132.625 128)"/>
</clipPath>
</defs>
</svg>
