<svg width="46" height="46" viewBox="0 0 46 46" fill="none" xmlns="http://www.w3.org/2000/svg">
<path d="M10.3903 36.7576C14.7383 35.6383 18.7726 33.6097 22.4661 30.6989C23.6439 29.7657 24.827 28.7293 25.9367 27.6196C31.4583 22.0981 34.7622 15.7122 35.8459 8.51365C35.9714 7.55651 36.0969 6.59937 36.1464 5.62038C36.1542 5.4658 36.162 5.31122 36.1699 5.15664C36.2439 4.20211 36.2393 3.27725 36.2102 2.32793M36.2102 2.32793L43.0833 9.2011M36.2102 2.32793L35.9411 2.05887L27.9566 10.0434M3.78555 37.7856C4.60997 37.7438 5.40993 37.6777 6.21249 37.56L3.78555 37.7856Z" stroke="#008446" stroke-width="2" stroke-miterlimit="3" stroke-linecap="round" stroke-linejoin="round"/>
</svg>
