<svg width="46" height="46" viewBox="0 0 46 46" fill="none" xmlns="http://www.w3.org/2000/svg">
<path d="M35.8684 37.2751C31.4358 36.1581 27.3289 34.1109 23.5753 31.161C22.3782 30.2152 21.1764 29.1641 20.05 28.0377C14.4455 22.4331 11.1102 15.9329 10.0466 8.58967C9.9241 7.61319 9.80164 6.63672 9.7569 5.63747C9.74983 5.47969 9.74278 5.32192 9.73571 5.16414C9.66585 4.19002 9.67604 3.24572 9.71136 2.2763M9.71136 2.2763L2.65308 9.33458M9.71136 2.2763L9.98767 2L18.0923 10.1047M42.6057 38.2853C41.7642 38.2476 40.9479 38.1848 40.1292 38.0694L42.6057 38.2853Z" stroke="#008440" stroke-width="2" stroke-miterlimit="3" stroke-linecap="round" stroke-linejoin="round"/>
</svg>
