<svg width="46" height="46" viewBox="0 0 46 46" fill="none" xmlns="http://www.w3.org/2000/svg">
<path d="M10.5709 9.1766C15.0035 10.2936 19.1104 12.3408 22.8641 15.2906C24.0611 16.2365 25.2629 17.2876 26.3893 18.414C31.9939 24.0185 35.3292 30.5187 36.3928 37.862C36.5152 38.8385 36.6377 39.8149 36.6824 40.8142C36.6895 40.972 36.6966 41.1297 36.7036 41.2875C36.7735 42.2616 36.7633 43.2059 36.728 44.1754M36.728 44.1754L43.7862 37.1171M36.728 44.1754L36.4517 44.4517L28.347 36.347M3.83365 8.16635C4.67512 8.20403 5.49147 8.26683 6.31018 8.38222L3.83365 8.16635Z" stroke="#008440" stroke-width="2" stroke-miterlimit="3" stroke-linecap="round" stroke-linejoin="round"/>
</svg>
