<svg width="46" height="46" viewBox="0 0 46 46" fill="none" xmlns="http://www.w3.org/2000/svg">
<path d="M35.8684 9.16415C31.4358 10.2811 27.3289 12.3283 23.5753 15.2782C22.3782 16.224 21.1764 17.2751 20.05 18.4015C14.4455 24.0061 11.1102 30.5063 10.0466 37.8495C9.9241 38.826 9.80164 39.8025 9.7569 40.8017C9.74983 40.9595 9.74278 41.1173 9.73571 41.2751C9.66585 42.2492 9.67604 43.1935 9.71136 44.1629M9.71136 44.1629L2.65308 37.1046M9.71136 44.1629L9.98767 44.4392L18.0923 36.3346M42.6057 8.1539C41.7642 8.19158 40.9479 8.25438 40.1292 8.36977L42.6057 8.1539Z" stroke="#008440" stroke-width="2" stroke-miterlimit="3" stroke-linecap="round" stroke-linejoin="round"/>
</svg>
