<svg width="119" height="53" viewBox="0 0 119 53" fill="none" xmlns="http://www.w3.org/2000/svg">
<path d="M2.17806 0.672H9.68206V2.496H4.19406V5.28H9.39406V7.104H4.19406V10.176H9.97006V12H2.17806V0.672ZM11.9593 0.672H14.6313L20.1193 9.088H20.1513V0.672H22.1673V12H19.6073L14.0073 3.312H13.9753V12H11.9593V0.672ZM34.7577 11.168C33.3604 11.9147 31.7977 12.288 30.0697 12.288C29.195 12.288 28.3897 12.1493 27.6537 11.872C26.9284 11.584 26.299 11.184 25.7657 10.672C25.243 10.1493 24.8324 9.52533 24.5337 8.8C24.235 8.07467 24.0857 7.26933 24.0857 6.384C24.0857 5.47733 24.235 4.656 24.5337 3.92C24.8324 3.17333 25.243 2.53867 25.7657 2.016C26.299 1.49333 26.9284 1.09333 27.6537 0.815999C28.3897 0.528 29.195 0.384 30.0697 0.384C30.9337 0.384 31.7444 0.490666 32.5017 0.704C33.259 0.906666 33.9364 1.27467 34.5337 1.808L33.0457 3.312C32.683 2.96 32.2404 2.688 31.7177 2.496C31.2057 2.304 30.6617 2.208 30.0857 2.208C29.499 2.208 28.9657 2.31467 28.4857 2.528C28.0164 2.73067 27.611 3.01867 27.2697 3.392C26.9284 3.75467 26.6617 4.18133 26.4697 4.672C26.2884 5.16267 26.1977 5.69067 26.1977 6.256C26.1977 6.864 26.2884 7.424 26.4697 7.936C26.6617 8.448 26.9284 8.89067 27.2697 9.264C27.611 9.63733 28.0164 9.93067 28.4857 10.144C28.9657 10.3573 29.499 10.464 30.0857 10.464C30.5977 10.464 31.0777 10.416 31.5257 10.32C31.9844 10.224 32.3897 10.0747 32.7417 9.872V7.2H30.4217V5.376H34.7577V11.168ZM37.0988 0.672H39.1148V12H37.0988V0.672ZM41.5999 0.672H44.2719L49.7599 9.088H49.7919V0.672H51.8079V12H49.2479L43.6479 3.312H43.6159V12H41.5999V0.672ZM54.3343 0.672H61.8383V2.496H56.3503V5.28H61.5503V7.104H56.3503V10.176H62.1263V12H54.3343V0.672ZM64.1156 0.672H71.6196V2.496H66.1316V5.28H71.3316V7.104H66.1316V10.176H71.9076V12H64.1156V0.672ZM73.8968 0.672H77.8328C78.3768 0.672 78.8995 0.725333 79.4008 0.832C79.9128 0.928 80.3661 1.09867 80.7608 1.344C81.1555 1.58933 81.4701 1.92 81.7048 2.336C81.9395 2.752 82.0568 3.28 82.0568 3.92C82.0568 4.74133 81.8275 5.42933 81.3688 5.984C80.9208 6.53867 80.2755 6.87467 79.4328 6.992L82.4408 12H80.0088L77.3848 7.2H75.9128V12H73.8968V0.672ZM77.4808 5.472C77.7688 5.472 78.0568 5.46133 78.3448 5.44C78.6328 5.408 78.8941 5.344 79.1288 5.248C79.3741 5.14133 79.5715 4.98667 79.7208 4.784C79.8701 4.57067 79.9448 4.27733 79.9448 3.904C79.9448 3.57333 79.8755 3.30667 79.7368 3.104C79.5981 2.90133 79.4168 2.752 79.1928 2.656C78.9688 2.54933 78.7181 2.48 78.4408 2.448C78.1741 2.416 77.9128 2.4 77.6568 2.4H75.9128V5.472H77.4808ZM83.9269 0.672H85.9429V12H83.9269V0.672ZM88.4281 0.672H91.1001L96.5881 9.088H96.6201V0.672H98.6361V12H96.0761L90.4761 3.312H90.4441V12H88.4281V0.672ZM111.226 11.168C109.829 11.9147 108.266 12.288 106.538 12.288C105.664 12.288 104.858 12.1493 104.122 11.872C103.397 11.584 102.768 11.184 102.234 10.672C101.712 10.1493 101.301 9.52533 101.002 8.8C100.704 8.07467 100.554 7.26933 100.554 6.384C100.554 5.47733 100.704 4.656 101.002 3.92C101.301 3.17333 101.712 2.53867 102.234 2.016C102.768 1.49333 103.397 1.09333 104.122 0.815999C104.858 0.528 105.664 0.384 106.538 0.384C107.402 0.384 108.213 0.490666 108.97 0.704C109.728 0.906666 110.405 1.27467 111.002 1.808L109.514 3.312C109.152 2.96 108.709 2.688 108.186 2.496C107.674 2.304 107.13 2.208 106.554 2.208C105.968 2.208 105.434 2.31467 104.954 2.528C104.485 2.73067 104.08 3.01867 103.738 3.392C103.397 3.75467 103.13 4.18133 102.938 4.672C102.757 5.16267 102.666 5.69067 102.666 6.256C102.666 6.864 102.757 7.424 102.938 7.936C103.13 8.448 103.397 8.89067 103.738 9.264C104.08 9.63733 104.485 9.93067 104.954 10.144C105.434 10.3573 105.968 10.464 106.554 10.464C107.066 10.464 107.546 10.416 107.994 10.32C108.453 10.224 108.858 10.0747 109.21 9.872V7.2H106.89V5.376H111.226V11.168ZM24.3324 29.328L26.7804 32H24.3004L23.1004 30.704C22.6418 31.248 22.1511 31.648 21.6284 31.904C21.1058 32.16 20.4818 32.288 19.7564 32.288C19.2551 32.288 18.7698 32.2133 18.3004 32.064C17.8418 31.9253 17.4364 31.7173 17.0844 31.44C16.7324 31.152 16.4498 30.8053 16.2364 30.4C16.0231 29.984 15.9164 29.504 15.9164 28.96C15.9164 28.576 15.9804 28.224 16.1084 27.904C16.2364 27.5733 16.4071 27.2747 16.6204 27.008C16.8444 26.7307 17.1058 26.4907 17.4044 26.288C17.7031 26.0747 18.0231 25.904 18.3644 25.776C18.1831 25.5733 18.0124 25.376 17.8524 25.184C17.7031 24.992 17.5698 24.7947 17.4524 24.592C17.3351 24.3893 17.2391 24.1707 17.1644 23.936C17.1004 23.7013 17.0684 23.4453 17.0684 23.168C17.0684 22.7093 17.1538 22.304 17.3244 21.952C17.5058 21.6 17.7458 21.312 18.0444 21.088C18.3431 20.8533 18.6898 20.6773 19.0844 20.56C19.4791 20.4427 19.8898 20.384 20.3164 20.384C20.7431 20.384 21.1484 20.4373 21.5324 20.544C21.9164 20.6507 22.2524 20.816 22.5404 21.04C22.8391 21.2533 23.0738 21.5307 23.2444 21.872C23.4258 22.2133 23.5164 22.6133 23.5164 23.072C23.5164 23.424 23.4524 23.7493 23.3244 24.048C23.1964 24.336 23.0258 24.6027 22.8124 24.848C22.5991 25.0827 22.3538 25.3013 22.0764 25.504C21.8098 25.696 21.5378 25.8613 21.2604 26L23.0844 27.968L24.3484 26.048H26.6044L24.3324 29.328ZM20.3484 22.112C19.9751 22.112 19.6551 22.2187 19.3884 22.432C19.1218 22.6347 18.9884 22.9067 18.9884 23.248C18.9884 23.3973 19.0204 23.5467 19.0844 23.696C19.1484 23.8347 19.2338 23.9787 19.3404 24.128C19.4471 24.2667 19.5591 24.4 19.6764 24.528C19.8044 24.656 19.9324 24.7787 20.0604 24.896C20.2204 24.8107 20.3911 24.7147 20.5724 24.608C20.7538 24.4907 20.9191 24.3627 21.0684 24.224C21.2284 24.0747 21.3564 23.9147 21.4524 23.744C21.5484 23.5733 21.5964 23.3813 21.5964 23.168C21.5964 22.8587 21.4738 22.608 21.2284 22.416C20.9831 22.2133 20.6898 22.112 20.3484 22.112ZM19.5804 26.912C19.3884 27.0293 19.2018 27.152 19.0204 27.28C18.8391 27.3973 18.6738 27.5307 18.5244 27.68C18.3751 27.8293 18.2524 28 18.1564 28.192C18.0711 28.384 18.0284 28.6027 18.0284 28.848C18.0284 29.0933 18.0764 29.3227 18.1724 29.536C18.2684 29.7493 18.3964 29.9307 18.5564 30.08C18.7271 30.2293 18.9191 30.3467 19.1324 30.432C19.3458 30.5173 19.5751 30.56 19.8204 30.56C20.2578 30.56 20.6418 30.4427 20.9724 30.208C21.3031 29.9733 21.6124 29.7173 21.9004 29.44L19.5804 26.912ZM33.0062 20.672H36.8142C37.3582 20.672 37.8809 20.7253 38.3822 20.832C38.8942 20.9387 39.3422 21.12 39.7262 21.376C40.1102 21.6213 40.4142 21.9573 40.6382 22.384C40.8729 22.8 40.9902 23.3227 40.9902 23.952C40.9902 24.6667 40.8675 25.2427 40.6222 25.68C40.3769 26.1173 40.0462 26.4587 39.6302 26.704C39.2142 26.9387 38.7289 27.0987 38.1742 27.184C37.6302 27.2693 37.0595 27.312 36.4622 27.312H35.0222V32H33.0062V20.672ZM36.2382 25.584C36.5262 25.584 36.8249 25.5733 37.1342 25.552C37.4435 25.5307 37.7262 25.4667 37.9822 25.36C38.2489 25.2533 38.4622 25.0933 38.6222 24.88C38.7929 24.6667 38.8782 24.368 38.8782 23.984C38.8782 23.632 38.8035 23.3547 38.6542 23.152C38.5049 22.9387 38.3129 22.7787 38.0782 22.672C37.8435 22.5547 37.5822 22.48 37.2942 22.448C37.0062 22.416 36.7289 22.4 36.4622 22.4H35.0222V25.584H36.2382ZM42.7874 20.672H46.7234C47.2674 20.672 47.7901 20.7253 48.2914 20.832C48.8034 20.928 49.2568 21.0987 49.6514 21.344C50.0461 21.5893 50.3608 21.92 50.5954 22.336C50.8301 22.752 50.9474 23.28 50.9474 23.92C50.9474 24.7413 50.7181 25.4293 50.2594 25.984C49.8114 26.5387 49.1661 26.8747 48.3234 26.992L51.3314 32H48.8994L46.2754 27.2H44.8034V32H42.7874V20.672ZM46.3714 25.472C46.6594 25.472 46.9474 25.4613 47.2354 25.44C47.5234 25.408 47.7848 25.344 48.0194 25.248C48.2648 25.1413 48.4621 24.9867 48.6114 24.784C48.7608 24.5707 48.8354 24.2773 48.8354 23.904C48.8354 23.5733 48.7661 23.3067 48.6274 23.104C48.4888 22.9013 48.3074 22.752 48.0834 22.656C47.8594 22.5493 47.6088 22.48 47.3314 22.448C47.0648 22.416 46.8034 22.4 46.5474 22.4H44.8034V25.472H46.3714ZM52.2576 26.384C52.2576 25.4773 52.4069 24.656 52.7056 23.92C53.0042 23.1733 53.4149 22.5387 53.9376 22.016C54.4709 21.4933 55.1002 21.0933 55.8256 20.816C56.5616 20.528 57.3669 20.384 58.2416 20.384C59.1269 20.3733 59.9376 20.5067 60.6736 20.784C61.4096 21.0507 62.0442 21.4453 62.5776 21.968C63.1109 22.4907 63.5269 23.12 63.8256 23.856C64.1242 24.592 64.2736 25.4133 64.2736 26.32C64.2736 27.2053 64.1242 28.0107 63.8256 28.736C63.5269 29.4613 63.1109 30.0853 62.5776 30.608C62.0442 31.1307 61.4096 31.5413 60.6736 31.84C59.9376 32.128 59.1269 32.2773 58.2416 32.288C57.3669 32.288 56.5616 32.1493 55.8256 31.872C55.1002 31.584 54.4709 31.184 53.9376 30.672C53.4149 30.1493 53.0042 29.5253 52.7056 28.8C52.4069 28.0747 52.2576 27.2693 52.2576 26.384ZM54.3696 26.256C54.3696 26.864 54.4602 27.424 54.6416 27.936C54.8336 28.448 55.1002 28.8907 55.4416 29.264C55.7829 29.6373 56.1882 29.9307 56.6576 30.144C57.1376 30.3573 57.6709 30.464 58.2576 30.464C58.8442 30.464 59.3776 30.3573 59.8576 30.144C60.3376 29.9307 60.7482 29.6373 61.0896 29.264C61.4309 28.8907 61.6922 28.448 61.8736 27.936C62.0656 27.424 62.1616 26.864 62.1616 26.256C62.1616 25.6907 62.0656 25.1627 61.8736 24.672C61.6922 24.1813 61.4309 23.7547 61.0896 23.392C60.7482 23.0187 60.3376 22.7307 59.8576 22.528C59.3776 22.3147 58.8442 22.208 58.2576 22.208C57.6709 22.208 57.1376 22.3147 56.6576 22.528C56.1882 22.7307 55.7829 23.0187 55.4416 23.392C55.1002 23.7547 54.8336 24.1813 54.6416 24.672C54.4602 25.1627 54.3696 25.6907 54.3696 26.256ZM71.7457 28.864C71.7457 29.312 71.671 29.744 71.5217 30.16C71.383 30.576 71.1697 30.944 70.8817 31.264C70.6044 31.5733 70.2524 31.8187 69.8257 32C69.399 32.192 68.903 32.288 68.3377 32.288C67.4417 32.288 66.7057 32.08 66.1297 31.664C65.5644 31.248 65.191 30.5867 65.0097 29.68L66.8977 29.232C66.9617 29.6053 67.111 29.904 67.3457 30.128C67.591 30.352 67.8897 30.464 68.2417 30.464C68.8177 30.464 69.207 30.272 69.4097 29.888C69.623 29.4933 69.7297 28.9547 69.7297 28.272V20.672H71.7457V28.864ZM74.1937 20.672H81.6977V22.496H76.2097V25.28H81.4097V27.104H76.2097V30.176H81.9857V32H74.1937V20.672ZM91.7509 23.328C91.3349 22.88 90.9296 22.5813 90.5349 22.432C90.1509 22.2827 89.7616 22.208 89.3669 22.208C88.7803 22.208 88.2469 22.3147 87.7669 22.528C87.2976 22.7307 86.8923 23.0187 86.5509 23.392C86.2096 23.7547 85.9429 24.1813 85.7509 24.672C85.5696 25.1627 85.4789 25.6907 85.4789 26.256C85.4789 26.864 85.5696 27.424 85.7509 27.936C85.9429 28.448 86.2096 28.8907 86.5509 29.264C86.8923 29.6373 87.2976 29.9307 87.7669 30.144C88.2469 30.3573 88.7803 30.464 89.3669 30.464C89.8256 30.464 90.2683 30.3573 90.6949 30.144C91.1323 29.92 91.5376 29.568 91.9109 29.088L93.5749 30.272C93.0629 30.976 92.4389 31.488 91.7029 31.808C90.9669 32.128 90.1829 32.288 89.3509 32.288C88.4763 32.288 87.6709 32.1493 86.9349 31.872C86.2096 31.584 85.5803 31.184 85.0469 30.672C84.5243 30.1493 84.1136 29.5253 83.8149 28.8C83.5163 28.0747 83.3669 27.2693 83.3669 26.384C83.3669 25.4773 83.5163 24.656 83.8149 23.92C84.1136 23.1733 84.5243 22.5387 85.0469 22.016C85.5803 21.4933 86.2096 21.0933 86.9349 20.816C87.6709 20.528 88.4763 20.384 89.3509 20.384C90.1189 20.384 90.8283 20.5227 91.4789 20.8C92.1403 21.0667 92.7536 21.5253 93.3189 22.176L91.7509 23.328ZM97.2481 22.496H93.7761V20.672H102.736V22.496H99.2641V32H97.2481V22.496ZM0.616688 40.672H3.68869L6.71269 48.608L9.76869 40.672H12.8087V52H10.8887V42.592H10.8567L7.41669 52H6.00869L2.56869 42.592H2.53669V52H0.616688V40.672ZM19.0452 40.672H20.7892L25.6692 52H23.3652L22.3092 49.408H17.3972L16.3732 52H14.1172L19.0452 40.672ZM21.6052 47.68L19.8612 43.072L18.0852 47.68H21.6052ZM26.9281 40.672H29.6001L35.0881 49.088H35.1201V40.672H37.1361V52H34.5761L28.9761 43.312H28.9441V52H26.9281V40.672ZM43.3264 40.672H45.0704L49.9504 52H47.6464L46.5904 49.408H41.6784L40.6544 52H38.3984L43.3264 40.672ZM45.8864 47.68L44.1424 43.072L42.3664 47.68H45.8864ZM61.2733 51.168C59.876 51.9147 58.3133 52.288 56.5853 52.288C55.7106 52.288 54.9053 52.1493 54.1693 51.872C53.444 51.584 52.8146 51.184 52.2813 50.672C51.7586 50.1493 51.348 49.5253 51.0493 48.8C50.7506 48.0747 50.6013 47.2693 50.6013 46.384C50.6013 45.4773 50.7506 44.656 51.0493 43.92C51.348 43.1733 51.7586 42.5387 52.2813 42.016C52.8146 41.4933 53.444 41.0933 54.1693 40.816C54.9053 40.528 55.7106 40.384 56.5853 40.384C57.4493 40.384 58.26 40.4907 59.0173 40.704C59.7746 40.9067 60.452 41.2747 61.0493 41.808L59.5613 43.312C59.1986 42.96 58.756 42.688 58.2333 42.496C57.7213 42.304 57.1773 42.208 56.6013 42.208C56.0146 42.208 55.4813 42.3147 55.0013 42.528C54.532 42.7307 54.1266 43.0187 53.7853 43.392C53.444 43.7547 53.1773 44.1813 52.9853 44.672C52.804 45.1627 52.7133 45.6907 52.7133 46.256C52.7133 46.864 52.804 47.424 52.9853 47.936C53.1773 48.448 53.444 48.8907 53.7853 49.264C54.1266 49.6373 54.532 49.9307 55.0013 50.144C55.4813 50.3573 56.0146 50.464 56.6013 50.464C57.1133 50.464 57.5933 50.416 58.0413 50.32C58.5 50.224 58.9053 50.0747 59.2573 49.872V47.2H56.9373V45.376H61.2733V51.168ZM63.6624 40.672H71.1664V42.496H65.6784V45.28H70.8784V47.104H65.6784V50.176H71.4544V52H63.6624V40.672ZM73.4917 40.672H76.5637L79.5877 48.608L82.6437 40.672H85.6837V52H83.7637V42.592H83.7317L80.2917 52H78.8837L75.4437 42.592H75.4117V52H73.4917V40.672ZM88.2562 40.672H95.7602V42.496H90.2722V45.28H95.4722V47.104H90.2722V50.176H96.0482V52H88.2562V40.672ZM98.0374 40.672H100.709L106.197 49.088H106.229V40.672H108.245V52H105.685L100.085 43.312H100.053V52H98.0374V40.672ZM113.092 42.496H109.62V40.672H118.58V42.496H115.108V52H113.092V42.496Z" fill="#008440"/>
</svg>
