<svg width="40" height="40" viewBox="0 0 40 40" fill="none" xmlns="http://www.w3.org/2000/svg">
<path d="M18.0426 15.4055V17.471H16.5306V19.9955H18.0426V27.5H21.1506V19.9955H23.2356C23.2356 19.9955 23.4321 18.785 23.5266 17.4605H21.1626V15.7355C21.1626 15.476 21.5016 15.1295 21.8376 15.1295H23.5296V12.5H21.2271C17.9661 12.5 18.0426 15.0275 18.0426 15.4055Z" fill="white"/>
<path d="M20 32C23.1826 32 26.2348 30.7357 28.4853 28.4853C30.7357 26.2348 32 23.1826 32 20C32 16.8174 30.7357 13.7652 28.4853 11.5147C26.2348 9.26428 23.1826 8 20 8C16.8174 8 13.7652 9.26428 11.5147 11.5147C9.26428 13.7652 8 16.8174 8 20C8 23.1826 9.26428 26.2348 11.5147 28.4853C13.7652 30.7357 16.8174 32 20 32ZM20 35C11.7155 35 5 28.2845 5 20C5 11.7155 11.7155 5 20 5C28.2845 5 35 11.7155 35 20C35 28.2845 28.2845 35 20 35Z" fill="white"/>
</svg>
