<svg width="24" height="24" viewBox="0 0 24 24" fill="none" xmlns="http://www.w3.org/2000/svg">
<circle cx="12" cy="12" r="9" fill="#EB7700"/>
<path d="M17 9.82863C16.6688 9.96863 16.3133 10.0649 15.9398 10.1069C16.3214 9.88813 16.613 9.54163 16.7516 9.12951C16.388 9.33554 15.9912 9.48049 15.578 9.55826C15.4042 9.38113 15.1951 9.24029 14.9635 9.14431C14.7318 9.04833 14.4825 8.99923 14.2307 9.00001C13.211 9.00001 12.3848 9.79188 12.3848 10.7675C12.3848 10.9058 12.401 11.0405 12.4325 11.17C11.7011 11.1362 10.985 10.9546 10.3298 10.6367C9.67461 10.3188 9.09478 9.87168 8.6273 9.32376C8.46311 9.59247 8.37666 9.89933 8.3771 10.2119C8.3771 10.8244 8.7038 11.3669 9.1988 11.6828C8.9058 11.6738 8.61907 11.598 8.3618 11.4614V11.4833C8.36458 11.894 8.51372 12.2912 8.78383 12.6071C9.05393 12.9229 9.4283 13.1381 9.8432 13.2158C9.57082 13.2858 9.28582 13.2959 9.0089 13.2455C9.12961 13.5989 9.36051 13.907 9.66952 14.127C9.97853 14.3469 10.3503 14.4679 10.7333 14.4731C10.0763 14.9654 9.26958 15.2313 8.4401 15.2291C8.2916 15.2291 8.1449 15.2204 8 15.2046C8.84642 15.7255 9.82787 16.0014 10.8296 16C14.2262 16 16.0829 13.3068 16.0829 10.9705L16.0766 10.7413C16.4387 10.4939 16.7515 10.1847 17 9.82863V9.82863Z" fill="white"/>
</svg>
