<svg width="24" height="24" viewBox="0 0 24 24" fill="none" xmlns="http://www.w3.org/2000/svg">
<circle cx="12" cy="12" r="9" fill="#EB7700"/>
<path d="M16.5833 13.0358V16.4247H14.6189V13.2622C14.6189 12.4684 14.3347 11.9266 13.6234 11.9266C13.0807 11.9266 12.7571 12.2915 12.615 12.6453C12.5637 12.7718 12.55 12.9478 12.55 13.1238V16.4247H10.5846C10.5846 16.4247 10.6112 11.0695 10.5846 10.515H12.55V11.3519L12.5371 11.3711H12.55V11.3528C12.8112 10.9495 13.2769 10.3756 14.321 10.3756C15.6135 10.3756 16.5833 11.2208 16.5833 13.0358V13.0358ZM8.52854 7.66504C7.85663 7.66504 7.41663 8.10687 7.41663 8.68621C7.41663 9.25454 7.84379 9.70829 8.50288 9.70829H8.51571C9.20138 9.70829 9.62763 9.25362 9.62763 8.68621C9.61479 8.10687 9.20138 7.66504 8.52854 7.66504ZM7.53304 16.4247H9.49838V10.515H7.53304V16.4247V16.4247Z" fill="white"/>
</svg>
