<svg width="24" height="24" viewBox="0 0 24 24" fill="none" xmlns="http://www.w3.org/2000/svg">
<path d="M12 21C7.0293 21 3 16.9707 3 12C3 7.0293 7.0293 3 12 3C16.9707 3 21 7.0293 21 12C21 16.9707 16.9707 21 12 21Z" fill="#EB7700"/>
<path d="M10.8255 9.2433V10.4826H9.91833V11.9973H10.8255V16.5H12.6903V11.9973H13.9413C13.9413 11.9973 14.0592 11.271 14.1159 10.4763H12.6975V9.4413C12.6975 9.2856 12.9009 9.0777 13.1025 9.0777H14.1177V7.5H12.7362C10.7796 7.5 10.8255 9.0165 10.8255 9.2433Z" fill="white"/>
</svg>
