<svg width="40" height="40" viewBox="0 0 40 40" fill="none" xmlns="http://www.w3.org/2000/svg">
<path d="M27.6388 21.7263V27.3745H24.3648V22.1036C24.3648 20.7806 23.8912 19.8777 22.7056 19.8777C21.8012 19.8777 21.2619 20.4857 21.0251 21.0754C20.9395 21.2863 20.9166 21.5796 20.9166 21.8729V27.3745H17.641C17.641 27.3745 17.6854 18.4492 17.641 17.5249H20.9166V18.9197L20.8952 18.9518H20.9166V18.9213C21.352 18.2491 22.1281 17.2927 23.8683 17.2927C26.0224 17.2927 27.6388 18.7013 27.6388 21.7263ZM14.2142 12.775C13.0944 12.775 12.361 13.5114 12.361 14.477C12.361 15.4242 13.073 16.1804 14.1715 16.1804H14.1929C15.3356 16.1804 16.046 15.4227 16.046 14.477C16.0247 13.5114 15.3356 12.775 14.2142 12.775ZM12.5551 27.3745H15.8306V17.5249H12.5551V27.3745Z" fill="white"/>
<path d="M19.7223 31.722C22.9049 31.722 25.9571 30.4578 28.2076 28.2073C30.458 25.9569 31.7223 22.9046 31.7223 19.722C31.7223 16.5394 30.458 13.4872 28.2076 11.2368C25.9571 8.98633 22.9049 7.72205 19.7223 7.72205C16.5397 7.72205 13.4874 8.98633 11.237 11.2368C8.98657 13.4872 7.72229 16.5394 7.72229 19.722C7.72229 22.9046 8.98657 25.9569 11.237 28.2073C13.4874 30.4578 16.5397 31.722 19.7223 31.722ZM19.7223 34.722C11.4378 34.722 4.72229 28.0065 4.72229 19.722C4.72229 11.4375 11.4378 4.72205 19.7223 4.72205C28.0068 4.72205 34.7223 11.4375 34.7223 19.722C34.7223 28.0065 28.0068 34.722 19.7223 34.722Z" fill="white"/>
</svg>
