<svg width="24" height="24" viewBox="0 0 24 24" fill="none" xmlns="http://www.w3.org/2000/svg">
<path d="M10.8255 9.2433V10.4826H9.91833V11.9973H10.8255V16.5H12.6903V11.9973H13.9413C13.9413 11.9973 14.0592 11.271 14.1159 10.4763H12.6975V9.4413C12.6975 9.2856 12.9009 9.0777 13.1025 9.0777H14.1177V7.5H12.7362C10.7796 7.5 10.8255 9.0165 10.8255 9.2433Z" fill="#EB7700"/>
<path d="M12 19.2C13.9096 19.2 15.7409 18.4414 17.0912 17.0912C18.4414 15.7409 19.2 13.9096 19.2 12C19.2 10.0904 18.4414 8.25909 17.0912 6.90883C15.7409 5.55857 13.9096 4.8 12 4.8C10.0904 4.8 8.25909 5.55857 6.90883 6.90883C5.55857 8.25909 4.8 10.0904 4.8 12C4.8 13.9096 5.55857 15.7409 6.90883 17.0912C8.25909 18.4414 10.0904 19.2 12 19.2ZM12 21C7.0293 21 3 16.9707 3 12C3 7.0293 7.0293 3 12 3C16.9707 3 21 7.0293 21 12C21 16.9707 16.9707 21 12 21Z" fill="#EB7700"/>
</svg>
