<svg width="40" height="40" viewBox="0 0 40 40" fill="none" xmlns="http://www.w3.org/2000/svg">
<path d="M20 32C23.1826 32 26.2348 30.7357 28.4853 28.4853C30.7357 26.2348 32 23.1826 32 20C32 16.8174 30.7357 13.7652 28.4853 11.5147C26.2348 9.26428 23.1826 8 20 8C16.8174 8 13.7652 9.26428 11.5147 11.5147C9.26428 13.7652 8 16.8174 8 20C8 23.1826 9.26428 26.2348 11.5147 28.4853C13.7652 30.7357 16.8174 32 20 32ZM20 35C11.7155 35 5 28.2845 5 20C5 11.7155 11.7155 5 20 5C28.2845 5 35 11.7155 35 20C35 28.2845 28.2845 35 20 35Z" fill="white"/>
<path d="M28.3333 16.3811C27.7813 16.6144 27.1888 16.7748 26.5663 16.8448C27.2023 16.4802 27.6883 15.9027 27.9193 15.2158C27.3133 15.5592 26.652 15.8008 25.9633 15.9304C25.6736 15.6352 25.3251 15.4005 24.9391 15.2405C24.553 15.0806 24.1375 14.9987 23.7178 15C22.0183 15 20.6413 16.3198 20.6413 17.9458C20.6413 18.1763 20.6683 18.4008 20.7208 18.6167C19.5018 18.5604 18.3083 18.2577 17.2163 17.7279C16.1243 17.1981 15.158 16.4528 14.3788 15.5396C14.1052 15.9875 13.9611 16.4989 13.9618 17.0198C13.9618 18.0406 14.5063 18.9448 15.3313 19.4713C14.843 19.4564 14.3651 19.33 13.9363 19.1023V19.1388C13.941 19.8234 14.1895 20.4853 14.6397 21.0118C15.0899 21.5382 15.7138 21.8968 16.4053 22.0263C15.9514 22.143 15.4764 22.1599 15.0148 22.0758C15.216 22.6648 15.6008 23.1783 16.1159 23.5449C16.6309 23.9116 17.2506 24.1132 17.8888 24.1219C16.7938 24.9423 15.4493 25.3855 14.0668 25.3819C13.8193 25.3819 13.5748 25.3673 13.3333 25.341C14.744 26.2092 16.3798 26.669 18.0493 26.6667C23.7103 26.6667 26.8048 22.1779 26.8048 18.2842L26.7943 17.9021C27.3978 17.4898 27.9192 16.9744 28.3333 16.3811Z" fill="white"/>
</svg>
